<?xml version="1.0" encoding="UTF-8" standalone="no"?>
<!DOCTYPE svg PUBLIC "-//W3C//DTD SVG 1.1//EN"
 "http://www.w3.org/Graphics/SVG/1.1/DTD/svg11.dtd">
<!-- Generated by graphviz version 14.1.3 (20260303.0454)
 -->
<!-- Title: draxul Pages: 1 -->
<svg width="962pt" height="557pt"
 viewBox="0.00 0.00 962.00 557.00" xmlns="http://www.w3.org/2000/svg" xmlns:xlink="http://www.w3.org/1999/xlink">
<g id="graph0" class="graph" transform="scale(1 1) rotate(0) translate(4 552.64)">
<title>draxul</title>
<polygon fill="white" stroke="none" points="-4,4 -4,-552.64 957.87,-552.64 957.87,4 -4,4"/>
<!-- node0 -->
<g id="node1" class="node">
<title>node0</title>
<polygon fill="#e8e8e8" stroke="black" points="258.68,-337.82 258.68,-359.06 211.16,-374.08 143.95,-374.08 96.42,-359.06 96.42,-337.82 143.95,-322.8 211.16,-322.8 258.68,-337.82"/>
<text xml:space="preserve" text-anchor="middle" x="177.55" y="-349.79" font-family="Helvetica,sans-Serif" font-size="12.00">Catch2</text>
<text xml:space="preserve" text-anchor="middle" x="177.55" y="-337.04" font-family="Helvetica,sans-Serif" font-size="12.00">(Catch2::Catch2)</text>
</g>
<!-- node1 -->
<g id="node2" class="node">
<title>node1</title>
<polygon fill="#e8e8e8" stroke="black" points="336.14,-425.1 336.14,-446.34 266.09,-461.36 167.02,-461.36 96.96,-446.34 96.96,-425.1 167.02,-410.08 266.09,-410.08 336.14,-425.1"/>
<text xml:space="preserve" text-anchor="middle" x="216.55" y="-437.07" font-family="Helvetica,sans-Serif" font-size="12.00">Catch2WithMain</text>
<text xml:space="preserve" text-anchor="middle" x="216.55" y="-424.32" font-family="Helvetica,sans-Serif" font-size="12.00">(Catch2::Catch2WithMain)</text>
</g>
<!-- node1&#45;&gt;node0 -->
<g id="edge1" class="edge">
<title>node1&#45;&gt;node0</title>
<path fill="none" stroke="#888888" d="M205.06,-409.59C201.49,-401.78 197.49,-393.03 193.66,-384.66"/>
<polygon fill="#888888" stroke="#888888" points="196.93,-383.4 189.59,-375.76 190.56,-386.31 196.93,-383.4"/>
</g>
<!-- node2 -->
<g id="node3" class="node">
<title>node2</title>
<polygon fill="#e8e8e8" stroke="black" points="802.31,-20.74 802.31,-50.06 747.39,-70.8 669.71,-70.8 614.79,-50.06 614.79,-20.74 669.71,0 747.39,0 802.31,-20.74"/>
<text xml:space="preserve" text-anchor="middle" x="708.55" y="-43.12" font-family="Helvetica,sans-Serif" font-size="12.00">SDL3&#45;static</text>
<text xml:space="preserve" text-anchor="middle" x="708.55" y="-30.37" font-family="Helvetica,sans-Serif" font-size="12.00">(SDL3::SDL3)</text>
<text xml:space="preserve" text-anchor="middle" x="708.55" y="-17.62" font-family="Helvetica,sans-Serif" font-size="12.00">(SDL3::SDL3&#45;static)</text>
</g>
<!-- node4 -->
<g id="node4" class="node">
<title>node4</title>
<polygon fill="#e8e8e8" stroke="black" points="763.72,-512.38 763.72,-533.62 711.48,-548.64 637.62,-548.64 585.39,-533.62 585.39,-512.38 637.62,-497.36 711.48,-497.36 763.72,-512.38"/>
<text xml:space="preserve" text-anchor="middle" x="674.55" y="-524.35" font-family="Helvetica,sans-Serif" font-size="12.00">SDL3_test</text>
<text xml:space="preserve" text-anchor="middle" x="674.55" y="-511.6" font-family="Helvetica,sans-Serif" font-size="12.00">(SDL3::SDL3_test)</text>
</g>
<!-- node5 -->
<g id="node5" class="node">
<title>node5</title>
<polygon fill="#2d6a9f" stroke="black" points="538.5,-505.04 540.46,-505.14 542.4,-505.29 544.3,-505.49 546.18,-505.73 548.01,-506.02 549.78,-506.36 551.5,-506.74 553.16,-507.17 554.75,-507.64 556.26,-508.16 557.69,-508.71 559.03,-509.3 560.28,-509.93 561.44,-510.6 562.5,-511.3 563.47,-512.03 564.33,-512.8 565.08,-513.59 565.74,-514.4 566.29,-515.24 566.73,-516.1 567.07,-516.98 567.31,-517.88 567.44,-518.79 567.48,-519.71 567.42,-520.65 567.26,-521.58 567.02,-522.52 566.69,-523.47 566.27,-524.41 565.77,-525.35 565.2,-526.28 564.55,-527.2 563.84,-528.11 563.06,-529.01 562.23,-529.89 561.34,-530.75 560.4,-531.59 559.41,-532.4 558.38,-533.19 557.32,-533.96 556.22,-534.69 555.09,-535.39 553.93,-536.06 552.74,-536.69 551.54,-537.28 550.32,-537.83 549.08,-538.35 547.82,-538.82 546.56,-539.25 545.28,-539.63 544,-539.97 542.71,-540.26 541.42,-540.5 540.12,-540.7 538.81,-540.85 537.51,-540.95 536.2,-541 534.9,-541 533.59,-540.95 532.29,-540.85 530.98,-540.7 529.69,-540.5 528.39,-540.26 527.1,-539.97 525.82,-539.63 524.54,-539.25 523.28,-538.82 522.03,-538.35 520.79,-537.83 519.56,-537.28 518.36,-536.69 517.17,-536.06 516.02,-535.39 514.88,-534.69 513.78,-533.96 512.72,-533.19 511.69,-532.4 510.7,-531.59 509.76,-530.75 508.87,-529.89 508.04,-529.01 507.26,-528.11 506.55,-527.2 505.9,-526.28 505.33,-525.35 504.83,-524.41 504.42,-523.47 504.08,-522.52 503.84,-521.58 503.68,-520.65 503.62,-519.71 503.66,-518.79 503.79,-517.88 504.03,-516.98 504.37,-516.1 504.82,-515.24 505.36,-514.4 506.02,-513.59 506.77,-512.8 507.64,-512.03 508.6,-511.3 509.66,-510.6 510.82,-509.93 512.07,-509.3 513.42,-508.71 514.84,-508.16 516.35,-507.64 517.94,-507.17 519.6,-506.74 521.32,-506.36 523.1,-506.02 524.92,-505.73 526.8,-505.49 528.7,-505.29 530.64,-505.14 532.6,-505.04 534.56,-505 536.54,-505 538.5,-505.04"/>
<text xml:space="preserve" text-anchor="middle" x="535.55" y="-517.97" font-family="Helvetica,sans-Serif" font-size="12.00" fill="white">draxul</text>
</g>
<!-- node6 -->
<g id="node6" class="node">
<title>node6</title>
<polygon fill="#e8e8e8" stroke="black" points="430.71,-261.34 430.71,-276.25 385.51,-286.8 321.59,-286.8 276.4,-276.25 276.4,-261.34 321.59,-250.8 385.51,-250.8 430.71,-261.34"/>
<text xml:space="preserve" text-anchor="middle" x="353.55" y="-263.77" font-family="Helvetica,sans-Serif" font-size="12.00">draxul&#45;app&#45;support</text>
</g>
<!-- node5&#45;&gt;node6 -->
<g id="edge20" class="edge">
<title>node5&#45;&gt;node6</title>
<path fill="none" stroke="#888888" stroke-dasharray="1,5" d="M503.17,-520.04C404.88,-513.76 114.95,-492.72 87.55,-461.36 47.03,-414.98 48.49,-370.41 87.55,-322.8 87.75,-322.55 206.31,-299 285.06,-283.38"/>
<polygon fill="#888888" stroke="#888888" points="285.28,-286.9 294.4,-281.52 283.91,-280.03 285.28,-286.9"/>
</g>
<!-- node7 -->
<g id="node7" class="node">
<title>node7</title>
<polygon fill="#f0a868" stroke="black" points="154.4,-189.34 154.4,-204.25 126.37,-214.8 86.73,-214.8 58.7,-204.25 58.7,-189.34 86.73,-178.8 126.37,-178.8 154.4,-189.34"/>
<text xml:space="preserve" text-anchor="middle" x="106.55" y="-191.77" font-family="Helvetica,sans-Serif" font-size="12.00">draxul&#45;font</text>
</g>
<!-- node5&#45;&gt;node7 -->
<g id="edge21" class="edge">
<title>node5&#45;&gt;node7</title>
<path fill="none" stroke="#888888" stroke-dasharray="1,5" d="M503.24,-520.57C395.9,-515.51 56.16,-496.81 23.55,-461.36 -39.87,-392.41 41.76,-275.29 84.05,-223.61"/>
<polygon fill="#888888" stroke="#888888" points="86.52,-226.12 90.23,-216.2 81.14,-221.64 86.52,-226.12"/>
</g>
<!-- node12 -->
<g id="node11" class="node">
<title>node12</title>
<polygon fill="#f0a868" stroke="black" points="506.9,-189.34 506.9,-204.25 478.58,-214.8 438.52,-214.8 410.2,-204.25 410.2,-189.34 438.52,-178.8 478.58,-178.8 506.9,-189.34"/>
<text xml:space="preserve" text-anchor="middle" x="458.55" y="-191.77" font-family="Helvetica,sans-Serif" font-size="12.00">draxul&#45;grid</text>
</g>
<!-- node5&#45;&gt;node12 -->
<g id="edge22" class="edge">
<title>node5&#45;&gt;node12</title>
<path fill="none" stroke="#888888" stroke-dasharray="1,5" d="M531.52,-505.02C519.02,-452.4 480.84,-291.64 465.27,-226.08"/>
<polygon fill="#888888" stroke="#888888" points="468.7,-225.39 462.98,-216.47 461.89,-227 468.7,-225.39"/>
</g>
<!-- node13 -->
<g id="node12" class="node">
<title>node13</title>
<polygon fill="#5b8dd9" stroke="black" points="371.37,-189.34 371.37,-204.25 341.02,-214.8 298.08,-214.8 267.73,-204.25 267.73,-189.34 298.08,-178.8 341.02,-178.8 371.37,-189.34"/>
<text xml:space="preserve" text-anchor="middle" x="319.55" y="-191.77" font-family="Helvetica,sans-Serif" font-size="12.00" fill="white">draxul&#45;nvim</text>
</g>
<!-- node5&#45;&gt;node13 -->
<g id="edge34" class="edge">
<title>node5&#45;&gt;node13</title>
<path fill="none" stroke="#888888" stroke-dasharray="1,5" d="M503.43,-520.36C400.72,-514.79 85.27,-495.06 55.55,-461.36 -8.56,-388.63 31.47,-303.94 112.55,-250.8 155.56,-222.61 212.68,-209.41 256.02,-203.23"/>
<polygon fill="#888888" stroke="#888888" points="256.34,-206.72 265.79,-201.93 255.42,-199.78 256.34,-206.72"/>
</g>
<!-- node15 -->
<g id="node14" class="node">
<title>node15</title>
<polygon fill="#7ec8a4" stroke="black" points="824.29,-189.34 824.29,-204.25 786.37,-214.8 732.74,-214.8 694.81,-204.25 694.81,-189.34 732.74,-178.8 786.37,-178.8 824.29,-189.34"/>
<text xml:space="preserve" text-anchor="middle" x="759.55" y="-191.77" font-family="Helvetica,sans-Serif" font-size="12.00">draxul&#45;renderer</text>
</g>
<!-- node5&#45;&gt;node15 -->
<g id="edge35" class="edge">
<title>node5&#45;&gt;node15</title>
<path fill="none" stroke="#888888" stroke-dasharray="1,5" d="M556.09,-507.67C562.41,-503.82 569.56,-499.99 576.55,-497.36 660.67,-465.69 717.93,-530.34 775.55,-461.36 832.23,-393.51 794.43,-278.32 772.34,-225.61"/>
<polygon fill="#888888" stroke="#888888" points="775.56,-224.24 768.37,-216.45 769.13,-227.02 775.56,-224.24"/>
</g>
<!-- node18 -->
<g id="node17" class="node">
<title>node18</title>
<polygon fill="#e8e8e8" stroke="black" points="624.39,-340.98 624.39,-355.89 595.19,-366.44 553.91,-366.44 524.71,-355.89 524.71,-340.98 553.91,-330.44 595.19,-330.44 624.39,-340.98"/>
<text xml:space="preserve" text-anchor="middle" x="574.55" y="-343.41" font-family="Helvetica,sans-Serif" font-size="12.00">draxul&#45;host</text>
</g>
<!-- node5&#45;&gt;node18 -->
<g id="edge29" class="edge">
<title>node5&#45;&gt;node18</title>
<path fill="none" stroke="#888888" stroke-dasharray="1,5" d="M539.43,-504.82C546.13,-475.18 559.93,-414.14 568.09,-378.01"/>
<polygon fill="#888888" stroke="#888888" points="571.5,-378.8 570.29,-368.28 564.67,-377.26 571.5,-378.8"/>
</g>
<!-- node19 -->
<g id="node18" class="node">
<title>node19</title>
<polygon fill="#e8e8e8" stroke="black" points="766.27,-428.26 766.27,-443.17 727.19,-453.72 671.91,-453.72 632.83,-443.17 632.83,-428.26 671.91,-417.72 727.19,-417.72 766.27,-428.26"/>
<text xml:space="preserve" text-anchor="middle" x="699.55" y="-430.69" font-family="Helvetica,sans-Serif" font-size="12.00">draxul&#45;megacity</text>
</g>
<!-- node5&#45;&gt;node19 -->
<g id="edge33" class="edge">
<title>node5&#45;&gt;node19</title>
<path fill="none" stroke="#888888" stroke-dasharray="1,5" d="M557.48,-508.36C563.6,-504.68 570.28,-500.78 576.55,-497.36 602.4,-483.25 631.99,-468.62 655.66,-457.26"/>
<polygon fill="#888888" stroke="#888888" points="656.87,-460.56 664.39,-453.1 653.86,-454.24 656.87,-460.56"/>
</g>
<!-- node20 -->
<g id="node19" class="node">
<title>node20</title>
<polygon fill="#e8e8e8" stroke="black" points="924.94,-189.34 924.94,-204.25 900.7,-214.8 866.41,-214.8 842.16,-204.25 842.16,-189.34 866.41,-178.8 900.7,-178.8 924.94,-189.34"/>
<text xml:space="preserve" text-anchor="middle" x="883.55" y="-191.77" font-family="Helvetica,sans-Serif" font-size="12.00">draxul&#45;ui</text>
</g>
<!-- node5&#45;&gt;node20 -->
<g id="edge39" class="edge">
<title>node5&#45;&gt;node20</title>
<path fill="none" stroke="#888888" stroke-dasharray="1,5" d="M556.05,-507.58C562.38,-503.72 569.53,-499.92 576.55,-497.36 671.69,-462.64 725.01,-527.67 801.55,-461.36 871.59,-400.68 882.6,-281.29 883.8,-226.5"/>
<polygon fill="#888888" stroke="#888888" points="887.3,-226.79 883.91,-216.75 880.3,-226.71 887.3,-226.79"/>
</g>
<!-- node6&#45;&gt;node7 -->
<g id="edge6" class="edge">
<title>node6&#45;&gt;node7</title>
<path fill="none" stroke="#888888" d="M305.34,-254.13C261.95,-241.84 198.5,-223.85 155.02,-211.53"/>
<polygon fill="#888888" stroke="#888888" points="156.18,-208.22 145.6,-208.86 154.27,-214.96 156.18,-208.22"/>
</g>
<!-- node6&#45;&gt;node12 -->
<g id="edge8" class="edge">
<title>node6&#45;&gt;node12</title>
<path fill="none" stroke="#888888" d="M379.78,-250.31C393.63,-241.08 410.77,-229.65 425.52,-219.82"/>
<polygon fill="#888888" stroke="#888888" points="427.17,-222.92 433.55,-214.46 423.29,-217.1 427.17,-222.92"/>
</g>
<!-- node6&#45;&gt;node13 -->
<g id="edge12" class="edge">
<title>node6&#45;&gt;node13</title>
<path fill="none" stroke="#888888" d="M345.15,-250.49C341.44,-242.86 337,-233.71 332.86,-225.19"/>
<polygon fill="#888888" stroke="#888888" points="336.04,-223.73 328.52,-216.26 329.74,-226.79 336.04,-223.73"/>
</g>
<!-- node6&#45;&gt;node15 -->
<g id="edge19" class="edge">
<title>node6&#45;&gt;node15</title>
<path fill="none" stroke="#888888" d="M414.77,-257.24C489.73,-244.32 616.19,-222.51 693.34,-209.21"/>
<polygon fill="#888888" stroke="#888888" points="693.61,-212.72 702.87,-207.57 692.42,-205.82 693.61,-212.72"/>
</g>
<!-- node8 -->
<g id="node8" class="node">
<title>node8</title>
<polygon fill="#c9a8e0" stroke="black" points="596.36,-27.94 596.36,-42.85 564.84,-53.4 520.26,-53.4 488.74,-42.85 488.74,-27.94 520.26,-17.4 564.84,-17.4 596.36,-27.94"/>
<text xml:space="preserve" text-anchor="middle" x="542.55" y="-30.37" font-family="Helvetica,sans-Serif" font-size="12.00">draxul&#45;types</text>
</g>
<!-- node7&#45;&gt;node8 -->
<g id="edge2" class="edge">
<title>node7&#45;&gt;node8</title>
<path fill="none" stroke="#888888" d="M130.01,-179.82C159.85,-160.14 213.53,-126.86 263.55,-106.8 336.14,-77.68 424.29,-57.85 481.83,-46.83"/>
<polygon fill="#888888" stroke="#888888" points="482.24,-50.32 491.42,-45.03 480.95,-43.44 482.24,-50.32"/>
</g>
<!-- node9 -->
<g id="node9" class="node">
<title>node9</title>
<polygon fill="#e8e8e8" stroke="black" points="148.46,-27.94 148.46,-42.85 125.67,-53.4 93.43,-53.4 70.64,-42.85 70.64,-27.94 93.43,-17.4 125.67,-17.4 148.46,-27.94"/>
<text xml:space="preserve" text-anchor="middle" x="109.55" y="-30.37" font-family="Helvetica,sans-Serif" font-size="12.00">freetype</text>
</g>
<!-- node7&#45;&gt;node9 -->
<g id="edge3" class="edge">
<title>node7&#45;&gt;node9</title>
<path fill="none" stroke="#888888" d="M114.03,-178.5C118.02,-168.32 122.52,-155.07 124.55,-142.8 128.91,-116.4 123.68,-86.18 118.23,-64.71"/>
<polygon fill="#888888" stroke="#888888" points="121.65,-63.95 115.64,-55.22 114.9,-65.79 121.65,-63.95"/>
</g>
<!-- node11 -->
<g id="node10" class="node">
<title>node11</title>
<polygon fill="#e8e8e8" stroke="black" points="115.45,-117.34 115.45,-132.25 91.49,-142.8 57.61,-142.8 33.65,-132.25 33.65,-117.34 57.61,-106.8 91.49,-106.8 115.45,-117.34"/>
<text xml:space="preserve" text-anchor="middle" x="74.55" y="-119.77" font-family="Helvetica,sans-Serif" font-size="12.00">harfbuzz</text>
</g>
<!-- node7&#45;&gt;node11 -->
<g id="edge5" class="edge">
<title>node7&#45;&gt;node11</title>
<path fill="none" stroke="#888888" d="M98.64,-178.49C95.15,-170.86 90.97,-161.71 87.07,-153.19"/>
<polygon fill="#888888" stroke="#888888" points="90.34,-151.92 83,-144.28 83.97,-154.83 90.34,-151.92"/>
</g>
<!-- node11&#45;&gt;node9 -->
<g id="edge4" class="edge">
<title>node11&#45;&gt;node9</title>
<path fill="none" stroke="#888888" d="M81.47,-106.53C86.31,-94.44 92.88,-78.03 98.45,-64.12"/>
<polygon fill="#888888" stroke="#888888" points="101.62,-65.62 102.09,-55.03 95.12,-63.02 101.62,-65.62"/>
</g>
<!-- node12&#45;&gt;node8 -->
<g id="edge7" class="edge">
<title>node12&#45;&gt;node8</title>
<path fill="none" stroke="#888888" d="M467.7,-178.43C482.28,-150.77 510.9,-96.45 528.22,-63.59"/>
<polygon fill="#888888" stroke="#888888" points="531.14,-65.56 532.71,-55.08 524.95,-62.29 531.14,-65.56"/>
</g>
<!-- node13&#45;&gt;node2 -->
<g id="edge9" class="edge">
<title>node13&#45;&gt;node2</title>
<path fill="none" stroke="#888888" d="M352.38,-182.34C414.48,-156.9 550.48,-101.17 635.31,-66.41"/>
<polygon fill="#888888" stroke="#888888" points="636.57,-69.67 644.5,-62.64 633.92,-63.2 636.57,-69.67"/>
</g>
<!-- node13&#45;&gt;node8 -->
<g id="edge10" class="edge">
<title>node13&#45;&gt;node8</title>
<path fill="none" stroke="#888888" d="M342.99,-179.04C382.87,-150.53 464.02,-92.53 509.59,-59.96"/>
<polygon fill="#888888" stroke="#888888" points="511.42,-62.95 517.52,-54.29 507.35,-57.26 511.42,-62.95"/>
</g>
<!-- node14 -->
<g id="node13" class="node">
<title>node14</title>
<polygon fill="#e8e8e8" stroke="black" points="366.41,-117.34 366.41,-132.25 338.96,-142.8 300.14,-142.8 272.69,-132.25 272.69,-117.34 300.14,-106.8 338.96,-106.8 366.41,-117.34"/>
<text xml:space="preserve" text-anchor="middle" x="319.55" y="-119.77" font-family="Helvetica,sans-Serif" font-size="12.00">mpack_lib</text>
</g>
<!-- node13&#45;&gt;node14 -->
<g id="edge11" class="edge">
<title>node13&#45;&gt;node14</title>
<path fill="none" stroke="#888888" d="M319.55,-178.49C319.55,-171.2 319.55,-162.52 319.55,-154.33"/>
<polygon fill="#888888" stroke="#888888" points="323.05,-154.41 319.55,-144.41 316.05,-154.41 323.05,-154.41"/>
</g>
<!-- node15&#45;&gt;node2 -->
<g id="edge13" class="edge">
<title>node15&#45;&gt;node2</title>
<path fill="none" stroke="#888888" d="M774.55,-178.42C788.31,-160.24 804.95,-131.05 793.55,-106.8 787.63,-94.21 778.23,-83.1 767.81,-73.64"/>
<polygon fill="#888888" stroke="#888888" points="770.32,-71.18 760.43,-67.39 765.8,-76.53 770.32,-71.18"/>
</g>
<!-- node15&#45;&gt;node8 -->
<g id="edge14" class="edge">
<title>node15&#45;&gt;node8</title>
<path fill="none" stroke="#888888" d="M765.65,-178.33C771.29,-158.72 776.6,-127 760.55,-106.8 716.56,-51.42 671.64,-95.97 605.55,-70.8 596.43,-67.32 586.99,-62.75 578.28,-58.08"/>
<polygon fill="#888888" stroke="#888888" points="580.22,-55.16 569.78,-53.35 576.82,-61.27 580.22,-55.16"/>
</g>
<!-- node16 -->
<g id="node15" class="node">
<title>node16</title>
<polygon fill="#7ec8a4" stroke="black" points="751.8,-117.34 751.8,-132.25 715.34,-142.8 663.76,-142.8 627.3,-132.25 627.3,-117.34 663.76,-106.8 715.34,-106.8 751.8,-117.34"/>
<text xml:space="preserve" text-anchor="middle" x="689.55" y="-119.77" font-family="Helvetica,sans-Serif" font-size="12.00">draxul&#45;window</text>
</g>
<!-- node15&#45;&gt;node16 -->
<g id="edge17" class="edge">
<title>node15&#45;&gt;node16</title>
<path fill="none" stroke="#888888" d="M742.25,-178.49C733.94,-170.19 723.83,-160.07 714.69,-150.94"/>
<polygon fill="#888888" stroke="#888888" points="717.27,-148.57 707.73,-143.97 712.32,-153.52 717.27,-148.57"/>
</g>
<!-- node17 -->
<g id="node16" class="node">
<title>node17</title>
<polygon fill="#e8e8e8" stroke="black" points="905.52,-117.34 905.52,-132.25 887.96,-142.8 863.14,-142.8 845.58,-132.25 845.58,-117.34 863.14,-106.8 887.96,-106.8 905.52,-117.34"/>
<text xml:space="preserve" text-anchor="middle" x="875.55" y="-119.77" font-family="Helvetica,sans-Serif" font-size="12.00">imgui</text>
</g>
<!-- node15&#45;&gt;node17 -->
<g id="edge18" class="edge">
<title>node15&#45;&gt;node17</title>
<path fill="none" stroke="#888888" d="M787.63,-178.85C805.09,-168.32 827.52,-154.78 845.36,-144.01"/>
<polygon fill="#888888" stroke="#888888" points="846.95,-147.14 853.7,-138.98 843.33,-141.15 846.95,-147.14"/>
</g>
<!-- node16&#45;&gt;node2 -->
<g id="edge15" class="edge">
<title>node16&#45;&gt;node2</title>
<path fill="none" stroke="#888888" d="M693.3,-106.53C694.86,-99.39 696.73,-90.75 698.64,-82.01"/>
<polygon fill="#888888" stroke="#888888" points="702.01,-82.98 700.71,-72.46 695.17,-81.49 702.01,-82.98"/>
</g>
<!-- node16&#45;&gt;node8 -->
<g id="edge16" class="edge">
<title>node16&#45;&gt;node8</title>
<path fill="none" stroke="#888888" d="M661.55,-107.15C638.02,-93.16 604.23,-73.07 578.66,-57.87"/>
<polygon fill="#888888" stroke="#888888" points="580.64,-54.97 570.26,-52.87 577.07,-60.99 580.64,-54.97"/>
</g>
<!-- node18&#45;&gt;node6 -->
<g id="edge23" class="edge">
<title>node18&#45;&gt;node6</title>
<path fill="none" stroke="#888888" d="M539.53,-335.13C503.78,-322.57 447.83,-302.92 406.63,-288.44"/>
<polygon fill="#888888" stroke="#888888" points="407.99,-285.21 397.39,-285.2 405.67,-291.82 407.99,-285.21"/>
</g>
<!-- node18&#45;&gt;node7 -->
<g id="edge24" class="edge">
<title>node18&#45;&gt;node7</title>
<path fill="none" stroke="#888888" d="M524.57,-342.24C410.58,-330.17 140.1,-300.28 125.55,-286.8 109.24,-271.68 105.12,-246.27 104.72,-226.47"/>
<polygon fill="#888888" stroke="#888888" points="108.22,-226.56 104.85,-216.51 101.22,-226.46 108.22,-226.56"/>
</g>
<!-- node18&#45;&gt;node8 -->
<g id="edge27" class="edge">
<title>node18&#45;&gt;node8</title>
<path fill="none" stroke="#888888" d="M571.74,-329.97C566.18,-294.7 553.77,-212.4 547.55,-142.8 545.2,-116.5 543.92,-86.44 543.24,-65"/>
<polygon fill="#888888" stroke="#888888" points="546.75,-65.16 542.96,-55.26 539.75,-65.36 546.75,-65.16"/>
</g>
<!-- node18&#45;&gt;node12 -->
<g id="edge25" class="edge">
<title>node18&#45;&gt;node12</title>
<path fill="none" stroke="#888888" d="M564.39,-329.99C552.49,-310.09 531.69,-276.92 510.55,-250.8 502.89,-241.33 493.8,-231.63 485.37,-223.16"/>
<polygon fill="#888888" stroke="#888888" points="487.91,-220.74 478.33,-216.21 483,-225.73 487.91,-220.74"/>
</g>
<!-- node18&#45;&gt;node15 -->
<g id="edge26" class="edge">
<title>node18&#45;&gt;node15</title>
<path fill="none" stroke="#888888" d="M589.78,-330.15C608.21,-309.8 640.72,-275.64 672.55,-250.8 687.07,-239.46 704.19,-228.57 719.37,-219.65"/>
<polygon fill="#888888" stroke="#888888" points="720.8,-222.86 727.72,-214.83 717.31,-216.8 720.8,-222.86"/>
</g>
<!-- node18&#45;&gt;node16 -->
<g id="edge28" class="edge">
<title>node18&#45;&gt;node16</title>
<path fill="none" stroke="#888888" d="M583.57,-330.04C603.48,-291.69 651.27,-199.57 675.28,-153.3"/>
<polygon fill="#888888" stroke="#888888" points="678.37,-154.94 679.87,-144.45 672.16,-151.72 678.37,-154.94"/>
</g>
<!-- node19&#45;&gt;node8 -->
<g id="edge32" class="edge">
<title>node19&#45;&gt;node8</title>
<path fill="none" stroke="#888888" d="M692.7,-417.34C668.06,-354.83 583.78,-141 553.5,-64.17"/>
<polygon fill="#888888" stroke="#888888" points="556.91,-63.29 549.99,-55.27 550.4,-65.86 556.91,-63.29"/>
</g>
<!-- node19&#45;&gt;node15 -->
<g id="edge31" class="edge">
<title>node19&#45;&gt;node15</title>
<path fill="none" stroke="#888888" d="M715.64,-417.31C725.19,-405.9 736.56,-390.16 742.55,-374.08 760.93,-324.72 762.32,-262.48 761.23,-226.71"/>
<polygon fill="#888888" stroke="#888888" points="764.73,-226.58 760.83,-216.73 757.74,-226.87 764.73,-226.58"/>
</g>
<!-- node19&#45;&gt;node18 -->
<g id="edge30" class="edge">
<title>node19&#45;&gt;node18</title>
<path fill="none" stroke="#888888" d="M673.95,-417.25C654.84,-404.21 628.55,-386.28 607.81,-372.12"/>
<polygon fill="#888888" stroke="#888888" points="609.9,-369.32 599.67,-366.57 605.96,-375.1 609.9,-369.32"/>
</g>
<!-- node20&#45;&gt;node2 -->
<g id="edge36" class="edge">
<title>node20&#45;&gt;node2</title>
<path fill="none" stroke="#888888" stroke-dasharray="1,5" d="M909.33,-182.04C923.44,-172.96 939.63,-159.64 947.55,-142.8 954.36,-128.32 957.13,-119.61 947.55,-106.8 930.45,-83.94 867.45,-65.93 810.42,-53.86"/>
<polygon fill="#888888" stroke="#888888" points="811.47,-50.5 800.97,-51.9 810.05,-57.36 811.47,-50.5"/>
</g>
<!-- node20&#45;&gt;node8 -->
<g id="edge37" class="edge">
<title>node20&#45;&gt;node8</title>
<path fill="none" stroke="#888888" d="M898.77,-178.41C913.99,-158.86 932.72,-127.2 914.55,-106.8 868.58,-55.16 671.43,-91.75 605.55,-70.8 596.08,-67.78 586.39,-63.31 577.54,-58.57"/>
<polygon fill="#888888" stroke="#888888" points="579.35,-55.58 568.92,-53.71 575.91,-61.67 579.35,-55.58"/>
</g>
<!-- node20&#45;&gt;node17 -->
<g id="edge38" class="edge">
<title>node20&#45;&gt;node17</title>
<path fill="none" stroke="#888888" d="M881.57,-178.49C880.74,-171.2 879.75,-162.52 878.81,-154.33"/>
<polygon fill="#888888" stroke="#888888" points="882.29,-153.94 877.68,-144.4 875.34,-154.74 882.29,-153.94"/>
</g>
<!-- node21 -->
<g id="node20" class="node">
<title>node21</title>
<polygon fill="#f4e04d" stroke="black" points="202.31,-250.85 206.12,-250.94 209.89,-251.09 213.61,-251.29 217.26,-251.53 220.82,-251.82 224.29,-252.16 227.64,-252.54 230.87,-252.97 233.96,-253.44 236.91,-253.96 239.69,-254.51 242.31,-255.1 244.75,-255.74 247.01,-256.4 249.08,-257.1 250.96,-257.83 252.63,-258.6 254.11,-259.39 255.38,-260.2 256.45,-261.04 257.32,-261.91 257.98,-262.79 258.44,-263.68 258.71,-264.59 258.78,-265.52 258.66,-266.45 258.36,-267.38 257.88,-268.33 257.23,-269.27 256.42,-270.21 255.45,-271.15 254.33,-272.08 253.08,-273 251.69,-273.91 250.17,-274.81 248.55,-275.69 246.81,-276.55 244.98,-277.39 243.06,-278.2 241.05,-279 238.98,-279.76 236.83,-280.49 234.62,-281.19 232.36,-281.86 230.06,-282.49 227.71,-283.08 225.33,-283.64 222.91,-284.15 220.47,-284.62 218,-285.05 215.52,-285.43 213.02,-285.77 210.51,-286.06 207.98,-286.31 205.45,-286.5 202.91,-286.65 200.37,-286.75 197.82,-286.8 195.28,-286.8 192.73,-286.75 190.19,-286.65 187.65,-286.5 185.12,-286.31 182.6,-286.06 180.08,-285.77 177.58,-285.43 175.1,-285.05 172.63,-284.62 170.19,-284.15 167.77,-283.64 165.39,-283.08 163.04,-282.49 160.74,-281.86 158.48,-281.19 156.27,-280.49 154.13,-279.76 152.05,-279 150.04,-278.2 148.12,-277.39 146.29,-276.55 144.55,-275.69 142.93,-274.81 141.41,-273.91 140.03,-273 138.77,-272.08 137.65,-271.15 136.68,-270.21 135.87,-269.27 135.22,-268.33 134.74,-267.38 134.44,-266.45 134.32,-265.52 134.39,-264.59 134.66,-263.68 135.12,-262.79 135.78,-261.91 136.65,-261.04 137.72,-260.2 138.99,-259.39 140.47,-258.6 142.14,-257.83 144.02,-257.1 146.09,-256.4 148.35,-255.74 150.79,-255.1 153.41,-254.51 156.19,-253.96 159.14,-253.44 162.23,-252.97 165.46,-252.54 168.81,-252.16 172.28,-251.82 175.84,-251.53 179.49,-251.29 183.21,-251.09 186.98,-250.94 190.79,-250.85 194.63,-250.8 198.47,-250.8 202.31,-250.85"/>
<text xml:space="preserve" text-anchor="middle" x="196.55" y="-263.77" font-family="Helvetica,sans-Serif" font-size="12.00">draxul&#45;rpc&#45;fake</text>
</g>
<!-- node21&#45;&gt;node13 -->
<g id="edge40" class="edge">
<title>node21&#45;&gt;node13</title>
<path fill="none" stroke="#888888" stroke-dasharray="1,5" d="M224.77,-251.74C241.88,-242 263.92,-229.46 282.44,-218.92"/>
<polygon fill="#888888" stroke="#888888" points="284.03,-222.04 290.99,-214.05 280.57,-215.95 284.03,-222.04"/>
</g>
<!-- node22 -->
<g id="node21" class="node">
<title>node22</title>
<polygon fill="#f4e04d" stroke="black" points="416.22,-417.77 419.32,-417.86 422.38,-418.01 425.4,-418.21 428.36,-418.45 431.25,-418.74 434.06,-419.08 436.78,-419.46 439.4,-419.89 441.91,-420.36 444.3,-420.88 446.56,-421.43 448.68,-422.02 450.67,-422.65 452.5,-423.32 454.18,-424.02 455.7,-424.75 457.06,-425.52 458.26,-426.31 459.29,-427.12 460.16,-427.96 460.86,-428.83 461.4,-429.71 461.78,-430.6 461.99,-431.51 462.05,-432.43 461.95,-433.37 461.71,-434.3 461.32,-435.24 460.79,-436.19 460.13,-437.13 459.35,-438.07 458.44,-439 457.42,-439.92 456.29,-440.83 455.07,-441.73 453.75,-442.61 452.34,-443.47 450.85,-444.31 449.29,-445.12 447.67,-445.91 445.98,-446.68 444.24,-447.41 442.45,-448.11 440.61,-448.78 438.74,-449.41 436.84,-450 434.9,-450.56 432.94,-451.07 430.96,-451.54 428.96,-451.97 426.94,-452.35 424.91,-452.69 422.87,-452.98 420.83,-453.22 418.77,-453.42 416.71,-453.57 414.65,-453.67 412.58,-453.72 410.52,-453.72 408.45,-453.67 406.39,-453.57 404.33,-453.42 402.27,-453.22 400.23,-452.98 398.19,-452.69 396.16,-452.35 394.14,-451.97 392.14,-451.54 390.16,-451.07 388.2,-450.56 386.26,-450 384.36,-449.41 382.49,-448.78 380.65,-448.11 378.86,-447.41 377.12,-446.68 375.43,-445.91 373.81,-445.12 372.25,-444.31 370.76,-443.47 369.35,-442.61 368.03,-441.73 366.81,-440.83 365.68,-439.92 364.66,-439 363.75,-438.07 362.97,-437.13 362.31,-436.19 361.78,-435.24 361.39,-434.3 361.15,-433.37 361.05,-432.43 361.11,-431.51 361.32,-430.6 361.7,-429.71 362.24,-428.83 362.94,-427.96 363.81,-427.12 364.84,-426.31 366.04,-425.52 367.4,-424.75 368.92,-424.02 370.6,-423.32 372.43,-422.65 374.42,-422.02 376.54,-421.43 378.8,-420.88 381.19,-420.36 383.7,-419.89 386.32,-419.46 389.04,-419.08 391.85,-418.74 394.74,-418.45 397.7,-418.21 400.72,-418.01 403.78,-417.86 406.88,-417.77 409.99,-417.72 413.11,-417.72 416.22,-417.77"/>
<text xml:space="preserve" text-anchor="middle" x="411.55" y="-430.69" font-family="Helvetica,sans-Serif" font-size="12.00">draxul&#45;tests</text>
</g>
<!-- node22&#45;&gt;node0 -->
<g id="edge41" class="edge">
<title>node22&#45;&gt;node0</title>
<path fill="none" stroke="#888888" stroke-dasharray="1,5" d="M375.61,-421.22C365.86,-417.58 355.31,-413.66 345.55,-410.08 311.18,-397.46 272.77,-383.58 241.37,-372.29"/>
<polygon fill="#888888" stroke="#888888" points="242.59,-369.01 231.99,-368.92 240.22,-375.59 242.59,-369.01"/>
</g>
<!-- node22&#45;&gt;node6 -->
<g id="edge42" class="edge">
<title>node22&#45;&gt;node6</title>
<path fill="none" stroke="#888888" stroke-dasharray="1,5" d="M405.45,-417.38C395.45,-388.92 375.45,-332.05 363.41,-297.82"/>
<polygon fill="#888888" stroke="#888888" points="366.77,-296.85 360.16,-288.58 360.17,-299.17 366.77,-296.85"/>
</g>
<!-- node22&#45;&gt;node7 -->
<g id="edge43" class="edge">
<title>node22&#45;&gt;node7</title>
<path fill="none" stroke="#888888" stroke-dasharray="1,5" d="M376.43,-420.99C353.03,-410.61 322.65,-394.65 300.55,-374.08 280.71,-355.61 289.71,-338.4 267.55,-322.8 209.73,-282.07 158.38,-340.66 112.55,-286.8 98.59,-270.39 98.03,-245.53 100.43,-226.25"/>
<polygon fill="#888888" stroke="#888888" points="103.85,-227.01 101.97,-216.59 96.94,-225.91 103.85,-227.01"/>
</g>
<!-- node22&#45;&gt;node12 -->
<g id="edge44" class="edge">
<title>node22&#45;&gt;node12</title>
<path fill="none" stroke="#888888" stroke-dasharray="1,5" d="M415.01,-417.29C423.04,-376.82 443.02,-276.1 452.87,-226.43"/>
<polygon fill="#888888" stroke="#888888" points="456.28,-227.22 454.79,-216.73 449.42,-225.86 456.28,-227.22"/>
</g>
<!-- node22&#45;&gt;node13 -->
<g id="edge46" class="edge">
<title>node22&#45;&gt;node13</title>
<path fill="none" stroke="#888888" stroke-dasharray="1,5" d="M399.77,-417.6C381.56,-392.56 344.11,-346.38 300.55,-322.8 230.72,-284.99 175.72,-348.34 125.55,-286.8 85.55,-237.72 185.36,-214.51 256.17,-204.5"/>
<polygon fill="#888888" stroke="#888888" points="256.32,-208.01 265.76,-203.2 255.39,-201.07 256.32,-208.01"/>
</g>
<!-- node22&#45;&gt;node15 -->
<g id="edge47" class="edge">
<title>node22&#45;&gt;node15</title>
<path fill="none" stroke="#888888" stroke-dasharray="1,5" d="M461.92,-430.67C509.79,-424.71 581.92,-410.04 633.55,-374.08 648.25,-363.83 710.86,-271.2 741.92,-224.48"/>
<polygon fill="#888888" stroke="#888888" points="744.77,-226.52 747.38,-216.25 738.94,-222.65 744.77,-226.52"/>
</g>
<!-- node22&#45;&gt;node18 -->
<g id="edge45" class="edge">
<title>node22&#45;&gt;node18</title>
<path fill="none" stroke="#888888" stroke-dasharray="1,5" d="M440.32,-419.67C467.05,-405.68 507.05,-384.75 536.43,-369.38"/>
<polygon fill="#888888" stroke="#888888" points="537.77,-372.63 545,-364.89 534.52,-366.43 537.77,-372.63"/>
</g>
<!-- node22&#45;&gt;node20 -->
<g id="edge48" class="edge">
<title>node22&#45;&gt;node20</title>
<path fill="none" stroke="#888888" stroke-dasharray="1,5" d="M461.44,-429.63C514.74,-422.7 600.59,-407.13 667.55,-374.08 746.84,-334.94 822.96,-261.89 860.06,-223.26"/>
<polygon fill="#888888" stroke="#888888" points="862.4,-225.87 866.75,-216.21 857.33,-221.06 862.4,-225.87"/>
</g>
<!-- node23 -->
<g id="node22" class="node">
<title>node23</title>
<polygon fill="#e8e8e8" stroke="black" points="915.78,-515.54 915.78,-530.45 877.57,-541 823.53,-541 785.32,-530.45 785.32,-515.54 823.53,-505 877.57,-505 915.78,-515.54"/>
<polygon fill="none" stroke="black" points="919.78,-512.49 919.78,-533.5 878.11,-545 822.99,-545 781.32,-533.5 781.32,-512.49 822.99,-501 878.11,-501 919.78,-512.49"/>
<text xml:space="preserve" text-anchor="middle" x="850.55" y="-517.97" font-family="Helvetica,sans-Serif" font-size="12.00">png_framework</text>
</g>
</g>
</svg>
