<?xml version="1.0" encoding="UTF-8" standalone="no"?>
<!DOCTYPE svg PUBLIC "-//W3C//DTD SVG 1.1//EN"
 "http://www.w3.org/Graphics/SVG/1.1/DTD/svg11.dtd">
<!-- Generated by graphviz version 14.1.3 (20260303.0454)
 -->
<!-- Title: draxul Pages: 1 -->
<svg width="2057pt" height="813pt"
 viewBox="0.00 0.00 2057.00 813.00" xmlns="http://www.w3.org/2000/svg" xmlns:xlink="http://www.w3.org/1999/xlink">
<g id="graph0" class="graph" transform="scale(1 1) rotate(0) translate(4 809.17)">
<title>draxul</title>
<polygon fill="white" stroke="none" points="-4,4 -4,-809.17 2053.08,-809.17 2053.08,4 -4,4"/>
<!-- node0 -->
<g id="node1" class="node">
<title>node0</title>
<polygon fill="#e8e8e8" stroke="black" points="709.52,-673.79 709.52,-696.94 662,-713.3 594.79,-713.3 547.26,-696.94 547.26,-673.79 594.79,-657.43 662,-657.43 709.52,-673.79"/>
<text xml:space="preserve" text-anchor="middle" x="628.39" y="-688.21" font-family="Helvetica,sans-Serif" font-size="12.00">Catch2</text>
<text xml:space="preserve" text-anchor="middle" x="628.39" y="-673.96" font-family="Helvetica,sans-Serif" font-size="12.00">(Catch2::Catch2)</text>
</g>
<!-- node1 -->
<g id="node2" class="node">
<title>node1</title>
<polygon fill="#e8e8e8" stroke="black" points="747.98,-765.66 747.98,-788.81 677.93,-805.17 578.86,-805.17 508.8,-788.81 508.8,-765.66 578.86,-749.3 677.93,-749.3 747.98,-765.66"/>
<text xml:space="preserve" text-anchor="middle" x="628.39" y="-780.09" font-family="Helvetica,sans-Serif" font-size="12.00">Catch2WithMain</text>
<text xml:space="preserve" text-anchor="middle" x="628.39" y="-765.84" font-family="Helvetica,sans-Serif" font-size="12.00">(Catch2::Catch2WithMain)</text>
</g>
<!-- node1&#45;&gt;node0 -->
<g id="edge1" class="edge">
<title>node1&#45;&gt;node0</title>
<path fill="none" stroke="#888888" d="M628.39,-749.27C628.39,-741.61 628.39,-733.12 628.39,-724.91"/>
<polygon fill="#888888" stroke="#888888" points="631.89,-725.13 628.39,-715.13 624.89,-725.13 631.89,-725.13"/>
</g>
<!-- node2 -->
<g id="node3" class="node">
<title>node2</title>
<polygon fill="#e8e8e8" stroke="black" points="1563.15,-114.63 1563.15,-146.8 1508.23,-169.56 1430.56,-169.56 1375.63,-146.8 1375.63,-114.63 1430.56,-91.87 1508.23,-91.87 1563.15,-114.63"/>
<text xml:space="preserve" text-anchor="middle" x="1469.39" y="-140.69" font-family="Helvetica,sans-Serif" font-size="12.00">SDL3&#45;static</text>
<text xml:space="preserve" text-anchor="middle" x="1469.39" y="-126.44" font-family="Helvetica,sans-Serif" font-size="12.00">(SDL3::SDL3)</text>
<text xml:space="preserve" text-anchor="middle" x="1469.39" y="-112.19" font-family="Helvetica,sans-Serif" font-size="12.00">(SDL3::SDL3&#45;static)</text>
</g>
<!-- node4 -->
<g id="node4" class="node">
<title>node4</title>
<polygon fill="#e8e8e8" stroke="black" points="1385.56,-765.66 1385.56,-788.81 1333.33,-805.17 1259.46,-805.17 1207.23,-788.81 1207.23,-765.66 1259.46,-749.3 1333.33,-749.3 1385.56,-765.66"/>
<text xml:space="preserve" text-anchor="middle" x="1296.39" y="-780.09" font-family="Helvetica,sans-Serif" font-size="12.00">SDL3_test</text>
<text xml:space="preserve" text-anchor="middle" x="1296.39" y="-765.84" font-family="Helvetica,sans-Serif" font-size="12.00">(SDL3::SDL3_test)</text>
</g>
<!-- node5 -->
<g id="node5" class="node">
<title>node5</title>
<polygon fill="#2d6a9f" stroke="black" points="1159.46,-759.29 1161.5,-759.38 1163.51,-759.53 1165.49,-759.73 1167.44,-759.97 1169.34,-760.26 1171.19,-760.6 1172.97,-760.98 1174.7,-761.41 1176.35,-761.88 1177.92,-762.4 1179.4,-762.95 1180.8,-763.54 1182.1,-764.17 1183.3,-764.84 1184.41,-765.54 1185.41,-766.27 1186.3,-767.04 1187.09,-767.83 1187.77,-768.64 1188.34,-769.48 1188.8,-770.35 1189.15,-771.23 1189.4,-772.12 1189.54,-773.03 1189.58,-773.95 1189.52,-774.89 1189.36,-775.82 1189.1,-776.76 1188.76,-777.71 1188.32,-778.65 1187.81,-779.59 1187.21,-780.52 1186.54,-781.44 1185.8,-782.35 1184.99,-783.25 1184.12,-784.13 1183.2,-784.99 1182.22,-785.83 1181.2,-786.64 1180.13,-787.43 1179.02,-788.2 1177.87,-788.93 1176.7,-789.63 1175.49,-790.3 1174.26,-790.93 1173.01,-791.52 1171.74,-792.08 1170.45,-792.59 1169.15,-793.06 1167.83,-793.49 1166.51,-793.87 1165.17,-794.21 1163.83,-794.5 1162.49,-794.74 1161.14,-794.94 1159.78,-795.09 1158.43,-795.19 1157.07,-795.24 1155.71,-795.24 1154.36,-795.19 1153,-795.09 1151.65,-794.94 1150.3,-794.74 1148.95,-794.5 1147.61,-794.21 1146.27,-793.87 1144.95,-793.49 1143.64,-793.06 1142.33,-792.59 1141.04,-792.08 1139.77,-791.52 1138.52,-790.93 1137.29,-790.3 1136.09,-789.63 1134.91,-788.93 1133.76,-788.2 1132.66,-787.43 1131.59,-786.64 1130.56,-785.83 1129.58,-784.99 1128.66,-784.13 1127.79,-783.25 1126.99,-782.35 1126.24,-781.44 1125.57,-780.52 1124.98,-779.59 1124.46,-778.65 1124.03,-777.71 1123.68,-776.76 1123.43,-775.82 1123.27,-774.89 1123.2,-773.95 1123.24,-773.03 1123.38,-772.12 1123.63,-771.23 1123.98,-770.35 1124.44,-769.48 1125.01,-768.64 1125.69,-767.83 1126.48,-767.04 1127.37,-766.27 1128.37,-765.54 1129.48,-764.84 1130.68,-764.17 1131.99,-763.54 1133.38,-762.95 1134.87,-762.4 1136.44,-761.88 1138.09,-761.41 1139.81,-760.98 1141.6,-760.6 1143.45,-760.26 1145.35,-759.97 1147.29,-759.73 1149.27,-759.53 1151.29,-759.38 1153.32,-759.29 1155.37,-759.24 1157.42,-759.24 1159.46,-759.29"/>
<text xml:space="preserve" text-anchor="middle" x="1156.39" y="-772.96" font-family="Helvetica,sans-Serif" font-size="12.00" fill="white">draxul</text>
</g>
<!-- node6 -->
<g id="node6" class="node">
<title>node6</title>
<polygon fill="#e8e8e8" stroke="black" points="1317.65,-677.91 1317.65,-692.82 1288.21,-703.36 1246.58,-703.36 1217.14,-692.82 1217.14,-677.91 1246.58,-667.36 1288.21,-667.36 1317.65,-677.91"/>
<text xml:space="preserve" text-anchor="middle" x="1267.39" y="-681.09" font-family="Helvetica,sans-Serif" font-size="12.00">draxul&#45;app</text>
</g>
<!-- node5&#45;&gt;node6 -->
<g id="edge67" class="edge">
<title>node5&#45;&gt;node6</title>
<path fill="none" stroke="#888888" stroke-dasharray="1,5" d="M1174.97,-761.19C1191.99,-747.41 1217.49,-726.77 1237.39,-710.65"/>
<polygon fill="#888888" stroke="#888888" points="1239.35,-713.57 1244.92,-704.56 1234.94,-708.13 1239.35,-713.57"/>
</g>
<!-- node28 -->
<g id="node28" class="node">
<title>node28</title>
<polygon fill="#e8e8e8" stroke="black" points="903.75,-595.97 903.75,-610.88 863.12,-621.43 805.66,-621.43 765.03,-610.88 765.03,-595.97 805.66,-585.43 863.12,-585.43 903.75,-595.97"/>
<text xml:space="preserve" text-anchor="middle" x="834.39" y="-599.15" font-family="Helvetica,sans-Serif" font-size="12.00">draxul&#45;megacity</text>
</g>
<!-- node5&#45;&gt;node28 -->
<g id="edge87" class="edge">
<title>node5&#45;&gt;node28</title>
<path fill="none" stroke="#888888" stroke-dasharray="1,5" d="M1131.93,-763.18C1077.06,-733.91 943.71,-662.76 875.73,-626.48"/>
<polygon fill="#888888" stroke="#888888" points="877.6,-623.51 867.13,-621.89 874.3,-629.69 877.6,-623.51"/>
</g>
<!-- node7 -->
<g id="node7" class="node">
<title>node7</title>
<polygon fill="#e8e8e8" stroke="black" points="1363.91,-379.97 1363.91,-394.88 1329.63,-405.43 1281.15,-405.43 1246.88,-394.88 1246.88,-379.97 1281.15,-369.43 1329.63,-369.43 1363.91,-379.97"/>
<text xml:space="preserve" text-anchor="middle" x="1305.39" y="-383.15" font-family="Helvetica,sans-Serif" font-size="12.00">draxul&#45;config</text>
</g>
<!-- node6&#45;&gt;node7 -->
<g id="edge5" class="edge">
<title>node6&#45;&gt;node7</title>
<path fill="none" stroke="#888888" d="M1269.6,-667.17C1275.88,-618.24 1293.91,-477.82 1301.72,-417.04"/>
<polygon fill="#888888" stroke="#888888" points="1305.18,-417.53 1302.99,-407.17 1298.24,-416.64 1305.18,-417.53"/>
</g>
<!-- node10 -->
<g id="node10" class="node">
<title>node10</title>
<polygon fill="#f0a868" stroke="black" points="1789.13,-379.97 1789.13,-394.88 1759.99,-405.43 1718.79,-405.43 1689.65,-394.88 1689.65,-379.97 1718.79,-369.43 1759.99,-369.43 1789.13,-379.97"/>
<text xml:space="preserve" text-anchor="middle" x="1739.39" y="-383.15" font-family="Helvetica,sans-Serif" font-size="12.00">draxul&#45;font</text>
</g>
<!-- node6&#45;&gt;node10 -->
<g id="edge10" class="edge">
<title>node6&#45;&gt;node10</title>
<path fill="none" stroke="#888888" d="M1300.88,-671.64C1315.06,-666.63 1331.87,-661.19 1347.39,-657.43 1450.94,-632.33 1484.72,-659.06 1584.39,-621.43 1695.11,-579.62 1751.68,-581.31 1808.39,-477.43 1816.06,-463.38 1815.46,-455.78 1808.39,-441.43 1801.81,-428.06 1790.05,-417.13 1778.09,-408.74"/>
<polygon fill="#888888" stroke="#888888" points="1780.11,-405.88 1769.82,-403.38 1776.31,-411.75 1780.11,-405.88"/>
</g>
<!-- node13 -->
<g id="node13" class="node">
<title>node13</title>
<polygon fill="#f0a868" stroke="black" points="1558.65,-379.97 1558.65,-394.88 1529.21,-405.43 1487.58,-405.43 1458.14,-394.88 1458.14,-379.97 1487.58,-369.43 1529.21,-369.43 1558.65,-379.97"/>
<text xml:space="preserve" text-anchor="middle" x="1508.39" y="-383.15" font-family="Helvetica,sans-Serif" font-size="12.00">draxul&#45;grid</text>
</g>
<!-- node6&#45;&gt;node13 -->
<g id="edge12" class="edge">
<title>node6&#45;&gt;node13</title>
<path fill="none" stroke="#888888" d="M1302.72,-672.08C1316.6,-667.35 1332.7,-662 1347.39,-657.43 1403,-640.13 1434.9,-665.14 1473.39,-621.43 1499.66,-591.61 1506.21,-472.83 1507.85,-417.31"/>
<polygon fill="#888888" stroke="#888888" points="1511.35,-417.46 1508.1,-407.37 1504.35,-417.28 1511.35,-417.46"/>
</g>
<!-- node14 -->
<g id="node14" class="node">
<title>node14</title>
<polygon fill="#e8e8e8" stroke="black" points="1017.07,-451.97 1017.07,-466.88 989.14,-477.43 949.64,-477.43 921.72,-466.88 921.72,-451.97 949.64,-441.43 989.14,-441.43 1017.07,-451.97"/>
<text xml:space="preserve" text-anchor="middle" x="969.39" y="-455.15" font-family="Helvetica,sans-Serif" font-size="12.00">draxul&#45;gui</text>
</g>
<!-- node6&#45;&gt;node14 -->
<g id="edge34" class="edge">
<title>node6&#45;&gt;node14</title>
<path fill="none" stroke="#888888" d="M1216.91,-678.24C1173.94,-670.87 1112.52,-654.99 1069.39,-621.43 1024.17,-586.23 994.2,-524.41 979.65,-488.48"/>
<polygon fill="#888888" stroke="#888888" points="982.93,-487.24 976.03,-479.2 976.41,-489.79 982.93,-487.24"/>
</g>
<!-- node15 -->
<g id="node15" class="node">
<title>node15</title>
<polygon fill="#7ec8a4" stroke="black" points="1150.69,-379.97 1150.69,-394.88 1111.27,-405.43 1055.52,-405.43 1016.1,-394.88 1016.1,-379.97 1055.52,-369.43 1111.27,-369.43 1150.69,-379.97"/>
<text xml:space="preserve" text-anchor="middle" x="1083.39" y="-383.15" font-family="Helvetica,sans-Serif" font-size="12.00">draxul&#45;renderer</text>
</g>
<!-- node6&#45;&gt;node15 -->
<g id="edge60" class="edge">
<title>node6&#45;&gt;node15</title>
<path fill="none" stroke="#888888" d="M1238.29,-669.8C1199.94,-648.9 1133.7,-606.54 1102.39,-549.43 1079.5,-507.66 1078.57,-450.77 1080.57,-416.99"/>
<polygon fill="#888888" stroke="#888888" points="1084.05,-417.4 1081.29,-407.17 1077.07,-416.89 1084.05,-417.4"/>
</g>
<!-- node21 -->
<g id="node21" class="node">
<title>node21</title>
<polygon fill="#e8e8e8" stroke="black" points="1475.2,-523.97 1475.2,-538.88 1444.85,-549.43 1401.93,-549.43 1371.59,-538.88 1371.59,-523.97 1401.93,-513.43 1444.85,-513.43 1475.2,-523.97"/>
<text xml:space="preserve" text-anchor="middle" x="1423.39" y="-527.15" font-family="Helvetica,sans-Serif" font-size="12.00">draxul&#45;host</text>
</g>
<!-- node6&#45;&gt;node21 -->
<g id="edge50" class="edge">
<title>node6&#45;&gt;node21</title>
<path fill="none" stroke="#888888" d="M1317.8,-683.01C1362.37,-678.81 1425.04,-664.91 1456.39,-621.43 1469.93,-602.65 1458.67,-577.67 1445.75,-558.96"/>
<polygon fill="#888888" stroke="#888888" points="1448.63,-556.97 1439.87,-551.03 1443.01,-561.14 1448.63,-556.97"/>
</g>
<!-- node22 -->
<g id="node22" class="node">
<title>node22</title>
<polygon fill="#e8e8e8" stroke="black" points="1711.02,-451.97 1711.02,-466.88 1656.17,-477.43 1578.61,-477.43 1523.77,-466.88 1523.77,-451.97 1578.61,-441.43 1656.17,-441.43 1711.02,-451.97"/>
<text xml:space="preserve" text-anchor="middle" x="1617.39" y="-455.15" font-family="Helvetica,sans-Serif" font-size="12.00">draxul&#45;runtime&#45;support</text>
</g>
<!-- node6&#45;&gt;node22 -->
<g id="edge61" class="edge">
<title>node6&#45;&gt;node22</title>
<path fill="none" stroke="#888888" d="M1301.31,-671.66C1315.41,-666.72 1332.05,-661.31 1347.39,-657.43 1438.34,-634.39 1482.87,-680.95 1555.39,-621.43 1595.75,-588.31 1609.89,-525.65 1614.81,-489.04"/>
<polygon fill="#888888" stroke="#888888" points="1618.27,-489.54 1615.97,-479.2 1611.32,-488.72 1618.27,-489.54"/>
</g>
<!-- node23 -->
<g id="node23" class="node">
<title>node23</title>
<polygon fill="#5b8dd9" stroke="black" points="1960.26,-379.97 1960.26,-394.88 1928.71,-405.43 1884.08,-405.43 1852.52,-394.88 1852.52,-379.97 1884.08,-369.43 1928.71,-369.43 1960.26,-379.97"/>
<text xml:space="preserve" text-anchor="middle" x="1906.39" y="-383.15" font-family="Helvetica,sans-Serif" font-size="12.00" fill="white">draxul&#45;nvim</text>
</g>
<!-- node6&#45;&gt;node23 -->
<g id="edge53" class="edge">
<title>node6&#45;&gt;node23</title>
<path fill="none" stroke="#888888" d="M1300.82,-671.39C1314.99,-666.35 1331.81,-660.94 1347.39,-657.43 1542.14,-613.53 1631.44,-678.91 1783.39,-549.43 1829.73,-509.94 1869.64,-450.25 1890.63,-415.72"/>
<polygon fill="#888888" stroke="#888888" points="1893.62,-417.55 1895.74,-407.17 1887.61,-413.95 1893.62,-417.55"/>
</g>
<!-- node25 -->
<g id="node25" class="node">
<title>node25</title>
<polygon fill="#e8e8e8" stroke="black" points="1239.07,-523.97 1239.07,-538.88 1201.77,-549.43 1149.01,-549.43 1111.71,-538.88 1111.71,-523.97 1149.01,-513.43 1201.77,-513.43 1239.07,-523.97"/>
<text xml:space="preserve" text-anchor="middle" x="1175.39" y="-527.15" font-family="Helvetica,sans-Serif" font-size="12.00">draxul&#45;nanovg</text>
</g>
<!-- node6&#45;&gt;node25 -->
<g id="edge52" class="edge">
<title>node6&#45;&gt;node25</title>
<path fill="none" stroke="#888888" d="M1256.84,-666.94C1240.89,-640.6 1210.53,-590.46 1191.72,-559.4"/>
<polygon fill="#888888" stroke="#888888" points="1194.78,-557.69 1186.61,-550.95 1188.79,-561.32 1194.78,-557.69"/>
</g>
<!-- node26 -->
<g id="node26" class="node">
<title>node26</title>
<polygon fill="#e8e8e8" stroke="black" points="1446.95,-595.97 1446.95,-610.88 1402.69,-621.43 1340.1,-621.43 1295.84,-610.88 1295.84,-595.97 1340.1,-585.43 1402.69,-585.43 1446.95,-595.97"/>
<text xml:space="preserve" text-anchor="middle" x="1371.39" y="-599.15" font-family="Helvetica,sans-Serif" font-size="12.00">draxul&#45;render&#45;test</text>
</g>
<!-- node6&#45;&gt;node26 -->
<g id="edge59" class="edge">
<title>node6&#45;&gt;node26</title>
<path fill="none" stroke="#888888" d="M1289.45,-667.41C1304.14,-656.12 1323.66,-641.11 1339.97,-628.58"/>
<polygon fill="#888888" stroke="#888888" points="1341.65,-631.7 1347.45,-622.83 1337.39,-626.15 1341.65,-631.7"/>
</g>
<!-- node27 -->
<g id="node27" class="node">
<title>node27</title>
<polygon fill="#e8e8e8" stroke="black" points="865.42,-451.97 865.42,-466.88 840.21,-477.43 804.57,-477.43 779.36,-466.88 779.36,-451.97 804.57,-441.43 840.21,-441.43 865.42,-451.97"/>
<text xml:space="preserve" text-anchor="middle" x="822.39" y="-455.15" font-family="Helvetica,sans-Serif" font-size="12.00">draxul&#45;ui</text>
</g>
<!-- node6&#45;&gt;node27 -->
<g id="edge66" class="edge">
<title>node6&#45;&gt;node27</title>
<path fill="none" stroke="#888888" d="M1218.39,-677.12C1169.21,-668.53 1092.23,-651.46 1031.39,-621.43 958.01,-585.21 885.25,-521.12 847.99,-485.71"/>
<polygon fill="#888888" stroke="#888888" points="850.46,-483.23 840.82,-478.82 845.61,-488.27 850.46,-483.23"/>
</g>
<!-- node7&#45;&gt;node2 -->
<g id="edge2" class="edge">
<title>node7&#45;&gt;node2</title>
<path fill="none" stroke="#888888" stroke-dasharray="1,5" d="M1353.65,-376.4C1408.37,-361.95 1493.61,-329.17 1521.39,-261.43 1530.81,-238.45 1528.89,-229.23 1521.39,-205.56 1518.53,-196.53 1514.13,-187.66 1509.07,-179.36"/>
<polygon fill="#888888" stroke="#888888" points="1512.12,-177.63 1503.71,-171.19 1506.27,-181.47 1512.12,-177.63"/>
</g>
<!-- node8 -->
<g id="node8" class="node">
<title>node8</title>
<polygon fill="#c9a8e0" stroke="black" points="958.33,-123.26 958.33,-138.17 925.56,-148.71 879.22,-148.71 846.46,-138.17 846.46,-123.26 879.22,-112.71 925.56,-112.71 958.33,-123.26"/>
<text xml:space="preserve" text-anchor="middle" x="902.39" y="-126.44" font-family="Helvetica,sans-Serif" font-size="12.00">draxul&#45;types</text>
</g>
<!-- node7&#45;&gt;node8 -->
<g id="edge4" class="edge">
<title>node7&#45;&gt;node8</title>
<path fill="none" stroke="#888888" d="M1309.79,-368.97C1313.56,-349.94 1316.53,-319.28 1303.39,-297.43 1265.93,-235.12 1057.01,-172.57 956.47,-145.56"/>
<polygon fill="#888888" stroke="#888888" points="957.66,-142.25 947.09,-143.06 955.86,-149.02 957.66,-142.25"/>
</g>
<!-- node9 -->
<g id="node9" class="node">
<title>node9</title>
<polygon fill="#e8e8e8" stroke="black" points="443.82,-16.36 443.82,-39.51 413.11,-55.87 369.68,-55.87 338.96,-39.51 338.96,-16.36 369.68,0 413.11,0 443.82,-16.36"/>
<text xml:space="preserve" text-anchor="middle" x="391.39" y="-30.79" font-family="Helvetica,sans-Serif" font-size="12.00">glm</text>
<text xml:space="preserve" text-anchor="middle" x="391.39" y="-16.54" font-family="Helvetica,sans-Serif" font-size="12.00">(glm::glm)</text>
</g>
<!-- node8&#45;&gt;node9 -->
<g id="edge3" class="edge">
<title>node8&#45;&gt;node9</title>
<path fill="none" stroke="#888888" d="M854.32,-120.23C761.88,-102 559.34,-62.06 455.52,-41.58"/>
<polygon fill="#888888" stroke="#888888" points="456.25,-38.16 445.76,-39.66 454.89,-45.03 456.25,-38.16"/>
</g>
<!-- node10&#45;&gt;node8 -->
<g id="edge6" class="edge">
<title>node10&#45;&gt;node8</title>
<path fill="none" stroke="#888888" d="M1720.18,-369.23C1673.69,-327.99 1555.42,-225.4 1507.39,-205.56 1411.32,-165.86 1106.35,-143.6 969.72,-135.4"/>
<polygon fill="#888888" stroke="#888888" points="970.31,-131.92 960.12,-134.83 969.89,-138.91 970.31,-131.92"/>
</g>
<!-- node11 -->
<g id="node11" class="node">
<title>node11</title>
<polygon fill="#e8e8e8" stroke="black" points="1796.84,-226.04 1796.84,-240.95 1773.14,-251.49 1739.64,-251.49 1715.95,-240.95 1715.95,-226.04 1739.64,-215.49 1773.14,-215.49 1796.84,-226.04"/>
<text xml:space="preserve" text-anchor="middle" x="1756.39" y="-229.22" font-family="Helvetica,sans-Serif" font-size="12.00">freetype</text>
</g>
<!-- node10&#45;&gt;node11 -->
<g id="edge7" class="edge">
<title>node10&#45;&gt;node11</title>
<path fill="none" stroke="#888888" d="M1760.85,-369.45C1770.97,-360.05 1781.99,-347.44 1787.39,-333.43 1796.6,-309.54 1786.01,-281.66 1774.78,-261.6"/>
<polygon fill="#888888" stroke="#888888" points="1777.87,-259.95 1769.73,-253.18 1771.87,-263.56 1777.87,-259.95"/>
</g>
<!-- node12 -->
<g id="node12" class="node">
<title>node12</title>
<polygon fill="#e8e8e8" stroke="black" points="1777.9,-307.97 1777.9,-322.88 1753,-333.43 1717.78,-333.43 1692.88,-322.88 1692.88,-307.97 1717.78,-297.43 1753,-297.43 1777.9,-307.97"/>
<text xml:space="preserve" text-anchor="middle" x="1735.39" y="-311.15" font-family="Helvetica,sans-Serif" font-size="12.00">harfbuzz</text>
</g>
<!-- node10&#45;&gt;node12 -->
<g id="edge9" class="edge">
<title>node10&#45;&gt;node12</title>
<path fill="none" stroke="#888888" d="M1738.4,-369.12C1737.99,-361.83 1737.49,-353.15 1737.02,-344.96"/>
<polygon fill="#888888" stroke="#888888" points="1740.52,-344.83 1736.46,-335.04 1733.53,-345.23 1740.52,-344.83"/>
</g>
<!-- node12&#45;&gt;node11 -->
<g id="edge8" class="edge">
<title>node12&#45;&gt;node11</title>
<path fill="none" stroke="#888888" d="M1739.95,-297.08C1742.59,-287.03 1745.98,-274.12 1749,-262.65"/>
<polygon fill="#888888" stroke="#888888" points="1752.3,-263.83 1751.46,-253.27 1745.53,-262.05 1752.3,-263.83"/>
</g>
<!-- node13&#45;&gt;node8 -->
<g id="edge11" class="edge">
<title>node13&#45;&gt;node8</title>
<path fill="none" stroke="#888888" d="M1533.05,-370.4C1544.91,-361.17 1557.94,-348.43 1564.39,-333.43 1570.72,-318.73 1571.45,-311.79 1564.39,-297.43 1534.93,-237.46 1507.03,-231.35 1445.39,-205.56 1360.82,-170.17 1095.81,-146.21 970,-136.53"/>
<polygon fill="#888888" stroke="#888888" points="970.37,-133.05 960.14,-135.78 969.84,-140.03 970.37,-133.05"/>
</g>
<!-- node14&#45;&gt;node8 -->
<g id="edge33" class="edge">
<title>node14&#45;&gt;node8</title>
<path fill="none" stroke="#888888" d="M935.45,-446.38C888.79,-428.32 804.69,-390.17 752.39,-333.43 728.41,-307.41 726.13,-295.96 718.39,-261.43 712.96,-237.2 704.48,-226.13 718.39,-205.56 744.35,-167.16 793.91,-148.73 835.06,-139.88"/>
<polygon fill="#888888" stroke="#888888" points="835.53,-143.35 844.66,-137.97 834.17,-136.49 835.53,-143.35"/>
</g>
<!-- node14&#45;&gt;node10 -->
<g id="edge13" class="edge">
<title>node14&#45;&gt;node10</title>
<path fill="none" stroke="#888888" d="M1017.47,-454.33C1119.04,-445.65 1362.96,-424.59 1567.39,-405.43 1604.14,-401.98 1645.28,-397.93 1678.11,-394.64"/>
<polygon fill="#888888" stroke="#888888" points="1678.25,-398.14 1687.85,-393.66 1677.55,-391.18 1678.25,-398.14"/>
</g>
<!-- node14&#45;&gt;node15 -->
<g id="edge32" class="edge">
<title>node14&#45;&gt;node15</title>
<path fill="none" stroke="#888888" d="M994.41,-443.07C1009.42,-433.85 1028.81,-421.94 1045.66,-411.6"/>
<polygon fill="#888888" stroke="#888888" points="1047.25,-414.73 1053.94,-406.51 1043.58,-408.76 1047.25,-414.73"/>
</g>
<!-- node15&#45;&gt;node2 -->
<g id="edge14" class="edge">
<title>node15&#45;&gt;node2</title>
<path fill="none" stroke="#888888" d="M1145.49,-378.1C1218.18,-367.84 1333.77,-349.75 1374.39,-333.43 1428.27,-311.79 1455.89,-312.56 1483.39,-261.43 1496.52,-237.01 1493.9,-206.3 1487.58,-180.88"/>
<polygon fill="#888888" stroke="#888888" points="1491.01,-180.15 1484.98,-171.44 1484.27,-182.02 1491.01,-180.15"/>
</g>
<!-- node15&#45;&gt;node8 -->
<g id="edge28" class="edge">
<title>node15&#45;&gt;node8</title>
<path fill="none" stroke="#888888" d="M1015.81,-381.42C961.47,-375.38 884.24,-362.16 822.39,-333.43 775.62,-311.7 753.86,-307.85 731.39,-261.43 720.57,-239.08 717.75,-226.31 731.39,-205.56 754.84,-169.9 799.55,-151.38 837.38,-141.81"/>
<polygon fill="#888888" stroke="#888888" points="837.95,-145.27 846.88,-139.57 836.34,-138.45 837.95,-145.27"/>
</g>
<!-- node16 -->
<g id="node16" class="node">
<title>node16</title>
<polygon fill="#e8e8e8" stroke="black" points="1294.01,-315.43 1248.2,-333.43 1156.58,-333.43 1110.77,-315.43 1156.58,-297.43 1248.2,-297.43 1294.01,-315.43"/>
<text xml:space="preserve" text-anchor="middle" x="1202.39" y="-311.15" font-family="Helvetica,sans-Serif" font-size="12.00">draxul&#45;renderer&#45;core</text>
</g>
<!-- node15&#45;&gt;node16 -->
<g id="edge21" class="edge">
<title>node15&#45;&gt;node16</title>
<path fill="none" stroke="#888888" d="M1112.5,-369.3C1127.66,-360.39 1146.41,-349.36 1162.86,-339.68"/>
<polygon fill="#888888" stroke="#888888" points="1164.61,-342.72 1171.45,-334.63 1161.06,-336.68 1164.61,-342.72"/>
</g>
<!-- node17 -->
<g id="node17" class="node">
<title>node17</title>
<polygon fill="#7ec8a4" stroke="black" points="1403.1,-226.04 1403.1,-240.95 1365.2,-251.49 1311.59,-251.49 1273.68,-240.95 1273.68,-226.04 1311.59,-215.49 1365.2,-215.49 1403.1,-226.04"/>
<text xml:space="preserve" text-anchor="middle" x="1338.39" y="-229.22" font-family="Helvetica,sans-Serif" font-size="12.00">draxul&#45;window</text>
</g>
<!-- node15&#45;&gt;node17 -->
<g id="edge29" class="edge">
<title>node15&#45;&gt;node17</title>
<path fill="none" stroke="#888888" d="M1145.56,-378.17C1202.19,-369.48 1280.37,-354.18 1303.39,-333.43 1323.35,-315.44 1331.93,-285.34 1335.62,-263.05"/>
<polygon fill="#888888" stroke="#888888" points="1339.05,-263.79 1336.96,-253.41 1332.11,-262.83 1339.05,-263.79"/>
</g>
<!-- node18 -->
<g id="node18" class="node">
<title>node18</title>
<polygon fill="#e8e8e8" stroke="black" points="802.54,-226.04 802.54,-240.95 784.29,-251.49 758.49,-251.49 740.24,-240.95 740.24,-226.04 758.49,-215.49 784.29,-215.49 802.54,-226.04"/>
<text xml:space="preserve" text-anchor="middle" x="771.39" y="-229.22" font-family="Helvetica,sans-Serif" font-size="12.00">imgui</text>
</g>
<!-- node15&#45;&gt;node18 -->
<g id="edge30" class="edge">
<title>node15&#45;&gt;node18</title>
<path fill="none" stroke="#888888" d="M1017.79,-379.03C974.37,-372.02 917.37,-358.62 872.39,-333.43 839.45,-314.98 809.64,-282.98 791.08,-260.38"/>
<polygon fill="#888888" stroke="#888888" points="794,-258.43 785.02,-252.82 788.54,-262.81 794,-258.43"/>
</g>
<!-- node19 -->
<g id="node19" class="node">
<title>node19</title>
<polygon fill="#e8e8e8" stroke="black" points="1092.82,-315.43 1042.61,-333.43 942.18,-333.43 891.96,-315.43 942.18,-297.43 1042.61,-297.43 1092.82,-315.43"/>
<text xml:space="preserve" text-anchor="middle" x="992.39" y="-311.15" font-family="Helvetica,sans-Serif" font-size="12.00">draxul&#45;renderer&#45;vulkan</text>
</g>
<!-- node15&#45;&gt;node19 -->
<g id="edge27" class="edge">
<title>node15&#45;&gt;node19</title>
<path fill="none" stroke="#888888" d="M1060.9,-369.12C1049.74,-360.54 1036.08,-350.03 1023.9,-340.67"/>
<polygon fill="#888888" stroke="#888888" points="1026.2,-338.02 1016.14,-334.7 1021.93,-343.57 1026.2,-338.02"/>
</g>
<!-- node20 -->
<g id="node20" class="node">
<title>node20</title>
<polygon fill="#e8e8e8" stroke="black" points="1065.85,-221.92 1065.85,-245.06 994.12,-261.43 892.67,-261.43 820.93,-245.06 820.93,-221.92 892.67,-205.56 994.12,-205.56 1065.85,-221.92"/>
<text xml:space="preserve" text-anchor="middle" x="943.39" y="-236.34" font-family="Helvetica,sans-Serif" font-size="12.00">vk&#45;bootstrap</text>
<text xml:space="preserve" text-anchor="middle" x="943.39" y="-222.09" font-family="Helvetica,sans-Serif" font-size="12.00">(vk&#45;bootstrap::vk&#45;bootstrap)</text>
</g>
<!-- node15&#45;&gt;node20 -->
<g id="edge31" class="edge">
<title>node15&#45;&gt;node20</title>
<path fill="none" stroke="#888888" stroke-dasharray="1,5" d="M1020.97,-378.25C968.76,-369.98 900.2,-355.28 883.39,-333.43 867.96,-313.37 882.25,-289.09 900.75,-269.6"/>
<polygon fill="#888888" stroke="#888888" points="903.14,-272.16 907.78,-262.63 898.21,-267.18 903.14,-272.16"/>
</g>
<!-- node16&#45;&gt;node2 -->
<g id="edge15" class="edge">
<title>node16&#45;&gt;node2</title>
<path fill="none" stroke="#888888" d="M1207.9,-297.21C1216.36,-273.38 1234.76,-230.48 1264.39,-205.56 1294.29,-180.4 1333.45,-163.52 1369.51,-152.34"/>
<polygon fill="#888888" stroke="#888888" points="1370.05,-155.83 1378.64,-149.62 1368.06,-149.12 1370.05,-155.83"/>
</g>
<!-- node16&#45;&gt;node8 -->
<g id="edge16" class="edge">
<title>node16&#45;&gt;node8</title>
<path fill="none" stroke="#888888" d="M1188.99,-297.1C1169.99,-273.54 1133.07,-231.38 1093.39,-205.56 1050.76,-177.82 996.14,-158.02 956.23,-145.96"/>
<polygon fill="#888888" stroke="#888888" points="957.42,-142.66 946.84,-143.18 955.44,-149.37 957.42,-142.66"/>
</g>
<!-- node16&#45;&gt;node17 -->
<g id="edge19" class="edge">
<title>node16&#45;&gt;node17</title>
<path fill="none" stroke="#888888" d="M1231.9,-297.08C1251.86,-285.35 1278.43,-269.74 1300.03,-257.04"/>
<polygon fill="#888888" stroke="#888888" points="1301.72,-260.11 1308.57,-252.02 1298.17,-254.07 1301.72,-260.11"/>
</g>
<!-- node16&#45;&gt;node18 -->
<g id="edge20" class="edge">
<title>node16&#45;&gt;node18</title>
<path fill="none" stroke="#888888" d="M1139.96,-303.49C1127.21,-301.38 1113.88,-299.26 1101.39,-297.43 973.32,-278.68 933.87,-306.13 812.39,-261.43 807.81,-259.74 803.22,-257.46 798.85,-254.93"/>
<polygon fill="#888888" stroke="#888888" points="800.79,-252.01 790.48,-249.57 797.01,-257.9 800.79,-252.01"/>
</g>
<!-- node17&#45;&gt;node2 -->
<g id="edge17" class="edge">
<title>node17&#45;&gt;node2</title>
<path fill="none" stroke="#888888" d="M1360.91,-215.17C1375.69,-203.8 1395.68,-188.42 1414.48,-173.96"/>
<polygon fill="#888888" stroke="#888888" points="1416.6,-176.75 1422.39,-167.87 1412.33,-171.2 1416.6,-176.75"/>
</g>
<!-- node17&#45;&gt;node8 -->
<g id="edge18" class="edge">
<title>node17&#45;&gt;node8</title>
<path fill="none" stroke="#888888" d="M1289.65,-221.23C1208.2,-202.4 1044.89,-164.65 958.68,-144.72"/>
<polygon fill="#888888" stroke="#888888" points="959.55,-141.33 949.02,-142.49 957.97,-148.15 959.55,-141.33"/>
</g>
<!-- node19&#45;&gt;node2 -->
<g id="edge22" class="edge">
<title>node19&#45;&gt;node2</title>
<path fill="none" stroke="#888888" stroke-dasharray="1,5" d="M1024.53,-297.09C1068.04,-274.09 1148.53,-233.17 1220.39,-205.56 1271.35,-185.97 1329.8,-168.4 1377.26,-155.31"/>
<polygon fill="#888888" stroke="#888888" points="1377.96,-158.75 1386.68,-152.73 1376.11,-152 1377.96,-158.75"/>
</g>
<!-- node19&#45;&gt;node8 -->
<g id="edge23" class="edge">
<title>node19&#45;&gt;node8</title>
<path fill="none" stroke="#888888" stroke-dasharray="1,5" d="M1035.87,-296.94C1050.85,-288.56 1065.96,-276.91 1074.39,-261.43 1086.26,-239.62 1088.05,-226.29 1074.39,-205.56 1050.79,-169.75 1005.82,-151.23 967.77,-141.7"/>
<polygon fill="#888888" stroke="#888888" points="968.74,-138.33 958.21,-139.47 967.16,-145.15 968.74,-138.33"/>
</g>
<!-- node19&#45;&gt;node17 -->
<g id="edge24" class="edge">
<title>node19&#45;&gt;node17</title>
<path fill="none" stroke="#888888" stroke-dasharray="1,5" d="M1052.66,-300.5C1116.04,-285.86 1215.17,-262.96 1278.43,-248.34"/>
<polygon fill="#888888" stroke="#888888" points="1279,-251.81 1287.95,-246.15 1277.42,-244.99 1279,-251.81"/>
</g>
<!-- node19&#45;&gt;node18 -->
<g id="edge25" class="edge">
<title>node19&#45;&gt;node18</title>
<path fill="none" stroke="#888888" stroke-dasharray="1,5" d="M930.77,-301.07C895.23,-292.21 850.23,-278.96 812.39,-261.43 808.04,-259.41 803.63,-256.99 799.38,-254.42"/>
<polygon fill="#888888" stroke="#888888" points="801.48,-251.61 791.17,-249.14 797.69,-257.49 801.48,-251.61"/>
</g>
<!-- node19&#45;&gt;node20 -->
<g id="edge26" class="edge">
<title>node19&#45;&gt;node20</title>
<path fill="none" stroke="#888888" stroke-dasharray="1,5" d="M981.76,-297.08C977.13,-289.53 971.51,-280.37 966.02,-271.41"/>
<polygon fill="#888888" stroke="#888888" points="969.17,-269.85 960.96,-263.15 963.2,-273.51 969.17,-269.85"/>
</g>
<!-- node21&#45;&gt;node8 -->
<g id="edge48" class="edge">
<title>node21&#45;&gt;node8</title>
<path fill="none" stroke="#888888" d="M1425.55,-513.28C1432.74,-452.88 1453.24,-251.17 1412.39,-205.56 1354.87,-141.34 1094.89,-131.96 969.9,-131.25"/>
<polygon fill="#888888" stroke="#888888" points="970.13,-127.75 960.12,-131.21 970.1,-134.75 970.13,-127.75"/>
</g>
<!-- node21&#45;&gt;node10 -->
<g id="edge35" class="edge">
<title>node21&#45;&gt;node10</title>
<path fill="none" stroke="#888888" d="M1463.38,-519.46C1471.93,-517.3 1480.93,-515.17 1489.39,-513.43 1540.27,-502.94 1682.65,-513.13 1720.39,-477.43 1736.46,-462.23 1740.64,-437.05 1741.12,-417.35"/>
<polygon fill="#888888" stroke="#888888" points="1744.62,-417.4 1741.03,-407.44 1737.62,-417.47 1744.62,-417.4"/>
</g>
<!-- node21&#45;&gt;node13 -->
<g id="edge36" class="edge">
<title>node21&#45;&gt;node13</title>
<path fill="none" stroke="#888888" d="M1433.81,-513.02C1448.42,-488.61 1475.12,-444.01 1492.29,-415.32"/>
<polygon fill="#888888" stroke="#888888" points="1495.24,-417.22 1497.37,-406.84 1489.23,-413.62 1495.24,-417.22"/>
</g>
<!-- node21&#45;&gt;node15 -->
<g id="edge37" class="edge">
<title>node21&#45;&gt;node15</title>
<path fill="none" stroke="#888888" d="M1395.58,-515.16C1360.69,-496.36 1298.7,-464.13 1243.39,-441.43 1209.25,-427.41 1169.91,-414.34 1138.78,-404.69"/>
<polygon fill="#888888" stroke="#888888" points="1140.17,-401.45 1129.59,-401.86 1138.12,-408.14 1140.17,-401.45"/>
</g>
<!-- node21&#45;&gt;node17 -->
<g id="edge49" class="edge">
<title>node21&#45;&gt;node17</title>
<path fill="none" stroke="#888888" d="M1417.3,-513.32C1413.69,-502.98 1409.1,-489.5 1405.39,-477.43 1381.73,-400.46 1357.46,-308.59 1345.69,-263.03"/>
<polygon fill="#888888" stroke="#888888" points="1349.1,-262.25 1343.22,-253.44 1342.32,-264 1349.1,-262.25"/>
</g>
<!-- node21&#45;&gt;node22 -->
<g id="edge47" class="edge">
<title>node21&#45;&gt;node22</title>
<path fill="none" stroke="#888888" d="M1458.52,-517.75C1487.29,-507.37 1528.53,-492.49 1561.77,-480.5"/>
<polygon fill="#888888" stroke="#888888" points="1562.62,-483.91 1570.84,-477.23 1560.24,-477.33 1562.62,-483.91"/>
</g>
<!-- node22&#45;&gt;node7 -->
<g id="edge38" class="edge">
<title>node22&#45;&gt;node7</title>
<path fill="none" stroke="#888888" d="M1557.6,-445.01C1501.65,-432.46 1418.61,-413.83 1363.28,-401.42"/>
<polygon fill="#888888" stroke="#888888" points="1364.26,-398.05 1353.73,-399.27 1362.73,-404.88 1364.26,-398.05"/>
</g>
<!-- node22&#45;&gt;node10 -->
<g id="edge39" class="edge">
<title>node22&#45;&gt;node10</title>
<path fill="none" stroke="#888888" d="M1647.86,-440.94C1664.62,-431.33 1685.51,-419.34 1703.11,-409.25"/>
<polygon fill="#888888" stroke="#888888" points="1704.79,-412.32 1711.72,-404.31 1701.3,-406.25 1704.79,-412.32"/>
</g>
<!-- node22&#45;&gt;node13 -->
<g id="edge40" class="edge">
<title>node22&#45;&gt;node13</title>
<path fill="none" stroke="#888888" d="M1590.17,-440.94C1575.79,-431.71 1557.99,-420.28 1542.68,-410.45"/>
<polygon fill="#888888" stroke="#888888" points="1544.62,-407.53 1534.31,-405.07 1540.83,-413.42 1544.62,-407.53"/>
</g>
<!-- node22&#45;&gt;node15 -->
<g id="edge45" class="edge">
<title>node22&#45;&gt;node15</title>
<path fill="none" stroke="#888888" d="M1540.31,-448.32C1437.83,-434.89 1257.94,-411.31 1157.16,-398.1"/>
<polygon fill="#888888" stroke="#888888" points="1157.74,-394.64 1147.37,-396.81 1156.83,-401.58 1157.74,-394.64"/>
</g>
<!-- node22&#45;&gt;node17 -->
<g id="edge46" class="edge">
<title>node22&#45;&gt;node17</title>
<path fill="none" stroke="#888888" d="M1609.67,-441.02C1600.91,-422.31 1585.48,-392.18 1567.39,-369.43 1537.82,-332.25 1528.43,-322.99 1488.39,-297.43 1458.08,-278.07 1420.8,-262.4 1390.99,-251.54"/>
<polygon fill="#888888" stroke="#888888" points="1392.39,-248.32 1381.8,-248.26 1390.04,-254.91 1392.39,-248.32"/>
</g>
<!-- node22&#45;&gt;node23 -->
<g id="edge44" class="edge">
<title>node22&#45;&gt;node23</title>
<path fill="none" stroke="#888888" d="M1674.83,-444.51C1726.41,-432.02 1801.57,-413.82 1852.14,-401.57"/>
<polygon fill="#888888" stroke="#888888" points="1852.81,-405.01 1861.7,-399.25 1851.16,-398.21 1852.81,-405.01"/>
</g>
<!-- node23&#45;&gt;node2 -->
<g id="edge41" class="edge">
<title>node23&#45;&gt;node2</title>
<path fill="none" stroke="#888888" d="M1937.95,-372.27C1953.45,-363.5 1970.64,-350.59 1979.39,-333.43 1986.66,-319.17 1986.5,-311.76 1979.39,-297.43 1949.37,-236.95 1920.09,-233 1858.39,-205.56 1767.51,-165.14 1655.09,-146.82 1574.52,-138.53"/>
<polygon fill="#888888" stroke="#888888" points="1575.17,-135.08 1564.87,-137.57 1574.48,-142.04 1575.17,-135.08"/>
</g>
<!-- node23&#45;&gt;node8 -->
<g id="edge42" class="edge">
<title>node23&#45;&gt;node8</title>
<path fill="none" stroke="#888888" d="M1890.46,-369.13C1881.78,-359.16 1871.24,-346.13 1863.39,-333.43 1830.58,-280.35 1856.42,-241.47 1805.39,-205.56 1805.39,-205.56 1179.7,-154.39 969.98,-137.24"/>
<polygon fill="#888888" stroke="#888888" points="970.3,-133.76 960.05,-136.43 969.73,-140.73 970.3,-133.76"/>
</g>
<!-- node24 -->
<g id="node24" class="node">
<title>node24</title>
<polygon fill="#e8e8e8" stroke="black" points="1970.1,-307.97 1970.1,-322.88 1941.57,-333.43 1901.22,-333.43 1872.69,-322.88 1872.69,-307.97 1901.22,-297.43 1941.57,-297.43 1970.1,-307.97"/>
<text xml:space="preserve" text-anchor="middle" x="1921.39" y="-311.15" font-family="Helvetica,sans-Serif" font-size="12.00">mpack_lib</text>
</g>
<!-- node23&#45;&gt;node24 -->
<g id="edge43" class="edge">
<title>node23&#45;&gt;node24</title>
<path fill="none" stroke="#888888" d="M1910.1,-369.12C1911.68,-361.75 1913.56,-352.95 1915.34,-344.68"/>
<polygon fill="#888888" stroke="#888888" points="1918.74,-345.52 1917.41,-335.01 1911.89,-344.06 1918.74,-345.52"/>
</g>
<!-- node25&#45;&gt;node15 -->
<g id="edge51" class="edge">
<title>node25&#45;&gt;node15</title>
<path fill="none" stroke="#888888" d="M1164.11,-513.02C1148.23,-488.5 1119.15,-443.62 1100.57,-414.95"/>
<polygon fill="#888888" stroke="#888888" points="1103.68,-413.3 1095.3,-406.81 1097.8,-417.11 1103.68,-413.3"/>
</g>
<!-- node26&#45;&gt;node7 -->
<g id="edge54" class="edge">
<title>node26&#45;&gt;node7</title>
<path fill="none" stroke="#888888" d="M1366.1,-585.28C1354.73,-548.42 1327.88,-461.35 1314.01,-416.39"/>
<polygon fill="#888888" stroke="#888888" points="1317.44,-415.63 1311.15,-407.11 1310.76,-417.69 1317.44,-415.63"/>
</g>
<!-- node26&#45;&gt;node10 -->
<g id="edge55" class="edge">
<title>node26&#45;&gt;node10</title>
<path fill="none" stroke="#888888" d="M1435.5,-592.79C1542.17,-575.3 1748.64,-534.76 1791.39,-477.43 1806.77,-456.81 1788.49,-431.29 1769.49,-412.87"/>
<polygon fill="#888888" stroke="#888888" points="1771.98,-410.4 1762.24,-406.22 1767.25,-415.56 1771.98,-410.4"/>
</g>
<!-- node26&#45;&gt;node15 -->
<g id="edge58" class="edge">
<title>node26&#45;&gt;node15</title>
<path fill="none" stroke="#888888" d="M1348.31,-585.28C1297.23,-547.32 1174.5,-456.13 1115.77,-412.49"/>
<polygon fill="#888888" stroke="#888888" points="1117.91,-409.72 1107.8,-406.56 1113.74,-415.34 1117.91,-409.72"/>
</g>
<!-- node26&#45;&gt;node21 -->
<g id="edge56" class="edge">
<title>node26&#45;&gt;node21</title>
<path fill="none" stroke="#888888" d="M1384.25,-585.12C1390.16,-577.16 1397.32,-567.53 1403.88,-558.69"/>
<polygon fill="#888888" stroke="#888888" points="1406.63,-560.86 1409.78,-550.75 1401.01,-556.69 1406.63,-560.86"/>
</g>
<!-- node26&#45;&gt;node25 -->
<g id="edge57" class="edge">
<title>node26&#45;&gt;node25</title>
<path fill="none" stroke="#888888" d="M1329.83,-587.58C1299.13,-576.62 1257.24,-561.66 1224.83,-550.08"/>
<polygon fill="#888888" stroke="#888888" points="1226.25,-546.88 1215.66,-546.81 1223.9,-553.47 1226.25,-546.88"/>
</g>
<!-- node27&#45;&gt;node2 -->
<g id="edge62" class="edge">
<title>node27&#45;&gt;node2</title>
<path fill="none" stroke="#888888" stroke-dasharray="1,5" d="M846.49,-443.64C880.85,-423.32 946.5,-387.25 1007.39,-369.43 1134.58,-332.2 1179.01,-379.17 1303.39,-333.43 1330.64,-323.41 1393.68,-283.62 1412.39,-261.43 1432.16,-237.98 1446.2,-206.6 1455.39,-180.58"/>
<polygon fill="#888888" stroke="#888888" points="1458.67,-181.82 1458.55,-171.23 1452.03,-179.58 1458.67,-181.82"/>
</g>
<!-- node27&#45;&gt;node8 -->
<g id="edge64" class="edge">
<title>node27&#45;&gt;node8</title>
<path fill="none" stroke="#888888" d="M803.37,-441.71C757.8,-399.6 650.19,-286.78 706.39,-205.56 735.13,-164.02 790.39,-145.82 834.93,-137.86"/>
<polygon fill="#888888" stroke="#888888" points="835.49,-141.31 844.79,-136.25 834.36,-134.4 835.49,-141.31"/>
</g>
<!-- node27&#45;&gt;node15 -->
<g id="edge63" class="edge">
<title>node27&#45;&gt;node15</title>
<path fill="none" stroke="#888888" stroke-dasharray="1,5" d="M856.7,-447.98C864.16,-445.77 872.03,-443.48 879.39,-441.43 928.04,-427.86 983.53,-413.51 1024.34,-403.18"/>
<polygon fill="#888888" stroke="#888888" points="1025.14,-406.58 1033.98,-400.74 1023.43,-399.8 1025.14,-406.58"/>
</g>
<!-- node27&#45;&gt;node18 -->
<g id="edge65" class="edge">
<title>node27&#45;&gt;node18</title>
<path fill="none" stroke="#888888" d="M818.47,-441.23C809.74,-402.88 788.6,-310.07 777.87,-262.95"/>
<polygon fill="#888888" stroke="#888888" points="781.29,-262.2 775.66,-253.23 774.47,-263.75 781.29,-262.2"/>
</g>
<!-- node28&#45;&gt;node7 -->
<g id="edge75" class="edge">
<title>node28&#45;&gt;node7</title>
<path fill="none" stroke="#888888" d="M869.03,-586.69C953.53,-548.3 1170.09,-449.9 1262.53,-407.9"/>
<polygon fill="#888888" stroke="#888888" points="1263.87,-411.14 1271.53,-403.81 1260.98,-404.76 1263.87,-411.14"/>
</g>
<!-- node28&#45;&gt;node8 -->
<g id="edge84" class="edge">
<title>node28&#45;&gt;node8</title>
<path fill="none" stroke="#888888" d="M767.27,-594.94C705.81,-587.06 612.77,-572.54 534.39,-549.43 369.64,-500.86 142.62,-533.83 192.39,-369.43 224.51,-263.34 276.68,-244.67 380.39,-205.56 535.83,-146.94 733.26,-134.32 835,-131.94"/>
<polygon fill="#888888" stroke="#888888" points="834.89,-135.44 844.81,-131.74 834.74,-128.45 834.89,-135.44"/>
</g>
<!-- node28&#45;&gt;node10 -->
<g id="edge76" class="edge">
<title>node28&#45;&gt;node10</title>
<path fill="none" stroke="#888888" d="M904.21,-601.07C1023.86,-597.78 1275.39,-586.65 1484.39,-549.43 1499.09,-546.81 1734.36,-489.32 1743.39,-477.43 1756.33,-460.4 1754.13,-435.79 1749.36,-416.77"/>
<polygon fill="#888888" stroke="#888888" points="1752.74,-415.85 1746.59,-407.22 1746.01,-417.8 1752.74,-415.85"/>
</g>
<!-- node28&#45;&gt;node14 -->
<g id="edge80" class="edge">
<title>node28&#45;&gt;node14</title>
<path fill="none" stroke="#888888" d="M862.81,-585.04C877.09,-575.54 894.12,-562.96 907.39,-549.43 925.75,-530.71 942.47,-506.03 953.92,-487.41"/>
<polygon fill="#888888" stroke="#888888" points="956.78,-489.43 958.93,-479.06 950.78,-485.83 956.78,-489.43"/>
</g>
<!-- node28&#45;&gt;node15 -->
<g id="edge82" class="edge">
<title>node28&#45;&gt;node15</title>
<path fill="none" stroke="#888888" d="M837.98,-585.08C845.69,-552.17 866.94,-480.51 912.39,-441.43 938.85,-418.68 974.99,-405.69 1007.23,-398.28"/>
<polygon fill="#888888" stroke="#888888" points="1007.92,-401.71 1016.97,-396.2 1006.46,-394.86 1007.92,-401.71"/>
</g>
<!-- node28&#45;&gt;node18 -->
<g id="edge86" class="edge">
<title>node28&#45;&gt;node18</title>
<path fill="none" stroke="#888888" d="M822.23,-585.26C806.63,-562.09 780.39,-518.91 770.39,-477.43 752.15,-401.78 760.72,-308.98 766.93,-263.05"/>
<polygon fill="#888888" stroke="#888888" points="770.36,-263.79 768.31,-253.4 763.43,-262.81 770.36,-263.79"/>
</g>
<!-- node28&#45;&gt;node21 -->
<g id="edge81" class="edge">
<title>node28&#45;&gt;node21</title>
<path fill="none" stroke="#888888" d="M900.24,-594.6C1014.45,-581.03 1247.77,-553.3 1360.14,-539.95"/>
<polygon fill="#888888" stroke="#888888" points="1360.26,-543.46 1369.77,-538.8 1359.43,-536.51 1360.26,-543.46"/>
</g>
<!-- node28&#45;&gt;node27 -->
<g id="edge85" class="edge">
<title>node28&#45;&gt;node27</title>
<path fill="none" stroke="#888888" stroke-dasharray="1,5" d="M832.92,-585.02C830.89,-561.04 827.22,-517.57 824.79,-488.85"/>
<polygon fill="#888888" stroke="#888888" points="828.29,-488.72 823.97,-479.05 821.32,-489.31 828.29,-488.72"/>
</g>
<!-- node29 -->
<g id="node29" class="node">
<title>node29</title>
<polygon fill="#e8e8e8" stroke="black" points="704.39,-523.97 704.39,-538.88 670.42,-549.43 622.37,-549.43 588.39,-538.88 588.39,-523.97 622.37,-513.43 670.42,-513.43 704.39,-523.97"/>
<text xml:space="preserve" text-anchor="middle" x="646.39" y="-527.15" font-family="Helvetica,sans-Serif" font-size="12.00">draxul&#45;citydb</text>
</g>
<!-- node28&#45;&gt;node29 -->
<g id="edge74" class="edge">
<title>node28&#45;&gt;node29</title>
<path fill="none" stroke="#888888" d="M794.98,-587.75C765.41,-576.74 724.81,-561.63 693.53,-549.98"/>
<polygon fill="#888888" stroke="#888888" points="694.89,-546.75 684.3,-546.54 692.45,-553.31 694.89,-546.75"/>
</g>
<!-- node30 -->
<g id="node30" class="node">
<title>node30</title>
<polygon fill="#e8e8e8" stroke="black" points="569.2,-451.97 569.2,-466.88 529.48,-477.43 473.3,-477.43 433.58,-466.88 433.58,-451.97 473.3,-441.43 529.48,-441.43 569.2,-451.97"/>
<text xml:space="preserve" text-anchor="middle" x="501.39" y="-455.15" font-family="Helvetica,sans-Serif" font-size="12.00">draxul&#45;treesitter</text>
</g>
<!-- node28&#45;&gt;node30 -->
<g id="edge83" class="edge">
<title>node28&#45;&gt;node30</title>
<path fill="none" stroke="#888888" d="M780.91,-591.42C706.46,-576.08 580.49,-550.07 579.39,-549.43 553.46,-534.3 531.73,-507.46 517.84,-487.19"/>
<polygon fill="#888888" stroke="#888888" points="520.94,-485.53 512.51,-479.12 515.1,-489.39 520.94,-485.53"/>
</g>
<!-- node34 -->
<g id="node34" class="node">
<title>node34</title>
<polygon fill="#e8e8e8" stroke="black" points="140.78,-523.97 140.78,-538.88 99.55,-549.43 41.23,-549.43 0,-538.88 0,-523.97 41.23,-513.43 99.55,-513.43 140.78,-523.97"/>
<text xml:space="preserve" text-anchor="middle" x="70.39" y="-527.15" font-family="Helvetica,sans-Serif" font-size="12.00">draxul&#45;geometry</text>
</g>
<!-- node28&#45;&gt;node34 -->
<g id="edge79" class="edge">
<title>node28&#45;&gt;node34</title>
<path fill="none" stroke="#888888" stroke-dasharray="1,5" d="M783.22,-590.77C772.74,-588.71 761.75,-586.79 751.39,-585.43 487.86,-550.67 417.97,-583.88 154.39,-549.43 147.52,-548.53 140.36,-547.4 133.26,-546.14"/>
<polygon fill="#888888" stroke="#888888" points="134.14,-542.74 123.67,-544.36 132.86,-549.63 134.14,-542.74"/>
</g>
<!-- node29&#45;&gt;node8 -->
<g id="edge72" class="edge">
<title>node29&#45;&gt;node8</title>
<path fill="none" stroke="#888888" d="M633.67,-513.27C627.11,-503.35 619.78,-490.31 616.39,-477.43 612.32,-461.96 614.09,-457.26 616.39,-441.43 632.11,-333.21 610.67,-284.44 686.39,-205.56 725.26,-165.06 787.25,-146.77 834.87,-138.51"/>
<polygon fill="#888888" stroke="#888888" points="835.21,-142 844.53,-136.95 834.1,-135.09 835.21,-142"/>
</g>
<!-- node29&#45;&gt;node30 -->
<g id="edge71" class="edge">
<title>node29&#45;&gt;node30</title>
<path fill="none" stroke="#888888" d="M614.93,-515.24C594.44,-505.35 567.42,-492.3 544.88,-481.42"/>
<polygon fill="#888888" stroke="#888888" points="546.45,-478.29 535.92,-477.1 543.4,-484.6 546.45,-478.29"/>
</g>
<!-- node33 -->
<g id="node33" class="node">
<title>node33</title>
<polygon fill="#e8e8e8" stroke="black" points="723.1,-451.97 723.1,-466.88 694.57,-477.43 654.22,-477.43 625.69,-466.88 625.69,-451.97 654.22,-441.43 694.57,-441.43 723.1,-451.97"/>
<text xml:space="preserve" text-anchor="middle" x="674.39" y="-455.15" font-family="Helvetica,sans-Serif" font-size="12.00">sqlite3_lib</text>
</g>
<!-- node29&#45;&gt;node33 -->
<g id="edge73" class="edge">
<title>node29&#45;&gt;node33</title>
<path fill="none" stroke="#888888" d="M653.31,-513.12C656.33,-505.58 659.94,-496.55 663.32,-488.11"/>
<polygon fill="#888888" stroke="#888888" points="666.52,-489.52 666.99,-478.94 660.02,-486.92 666.52,-489.52"/>
</g>
<!-- node30&#45;&gt;node8 -->
<g id="edge68" class="edge">
<title>node30&#45;&gt;node8</title>
<path fill="none" stroke="#888888" d="M433.15,-456.11C354.44,-451.84 232.12,-439.72 203.39,-405.43 193.12,-393.16 194.59,-382.79 203.39,-369.43 276.03,-259.11 684.74,-172.35 841.33,-142.72"/>
<polygon fill="#888888" stroke="#888888" points="841.94,-146.17 851.12,-140.88 840.65,-139.29 841.94,-146.17"/>
</g>
<!-- node31 -->
<g id="node31" class="node">
<title>node31</title>
<polygon fill="#e8e8e8" stroke="black" points="570.2,-379.97 570.2,-394.88 530.48,-405.43 474.3,-405.43 434.58,-394.88 434.58,-379.97 474.3,-369.43 530.48,-369.43 570.2,-379.97"/>
<text xml:space="preserve" text-anchor="middle" x="502.39" y="-383.15" font-family="Helvetica,sans-Serif" font-size="12.00">tree_sitter_core</text>
</g>
<!-- node30&#45;&gt;node31 -->
<g id="edge69" class="edge">
<title>node30&#45;&gt;node31</title>
<path fill="none" stroke="#888888" d="M501.64,-441.12C501.74,-433.83 501.87,-425.15 501.98,-416.96"/>
<polygon fill="#888888" stroke="#888888" points="505.48,-417.1 502.13,-407.05 498.48,-416.99 505.48,-417.1"/>
</g>
<!-- node32 -->
<g id="node32" class="node">
<title>node32</title>
<polygon fill="#e8e8e8" stroke="black" points="416.8,-379.97 416.8,-394.88 356.81,-405.43 271.97,-405.43 211.99,-394.88 211.99,-379.97 271.97,-369.43 356.81,-369.43 416.8,-379.97"/>
<text xml:space="preserve" text-anchor="middle" x="314.39" y="-383.15" font-family="Helvetica,sans-Serif" font-size="12.00">tree_sitter_cpp_grammar</text>
</g>
<!-- node30&#45;&gt;node32 -->
<g id="edge70" class="edge">
<title>node30&#45;&gt;node32</title>
<path fill="none" stroke="#888888" d="M462.65,-443.92C435.97,-433.94 400.11,-420.51 370.34,-409.37"/>
<polygon fill="#888888" stroke="#888888" points="371.68,-406.14 361.09,-405.91 369.23,-412.69 371.68,-406.14"/>
</g>
<!-- node34&#45;&gt;node8 -->
<g id="edge77" class="edge">
<title>node34&#45;&gt;node8</title>
<path fill="none" stroke="#888888" d="M78.08,-513.34C89.19,-487.05 108.39,-434.88 108.39,-388.43 108.39,-388.43 108.39,-388.43 108.39,-314.43 108.39,-264.88 95.29,-238.4 132.39,-205.56 184.47,-159.44 656.67,-139.6 834.8,-133.71"/>
<polygon fill="#888888" stroke="#888888" points="834.7,-137.22 844.59,-133.4 834.48,-130.22 834.7,-137.22"/>
</g>
<!-- node34&#45;&gt;node9 -->
<g id="edge78" class="edge">
<title>node34&#45;&gt;node9</title>
<path fill="none" stroke="#888888" d="M70.39,-512.94C70.39,-486.14 70.39,-433.3 70.39,-388.43 70.39,-388.43 70.39,-388.43 70.39,-232.49 70.39,-111.85 234.1,-59.71 327.69,-39.75"/>
<polygon fill="#888888" stroke="#888888" points="328.17,-43.23 337.26,-37.78 326.76,-36.37 328.17,-43.23"/>
</g>
<!-- node35 -->
<g id="node35" class="node">
<title>node35</title>
<polygon fill="#f4e04d" stroke="black" points="1990.38,-585.48 1994.34,-585.58 1998.26,-585.72 2002.13,-585.92 2005.92,-586.16 2009.62,-586.45 2013.23,-586.79 2016.71,-587.18 2020.07,-587.6 2023.28,-588.08 2026.34,-588.59 2029.24,-589.14 2031.96,-589.74 2034.5,-590.37 2036.84,-591.03 2039,-591.73 2040.95,-592.47 2042.69,-593.23 2044.22,-594.02 2045.55,-594.84 2046.66,-595.68 2047.56,-596.54 2048.25,-597.42 2048.73,-598.31 2049,-599.22 2049.08,-600.15 2048.95,-601.08 2048.64,-602.02 2048.14,-602.96 2047.47,-603.9 2046.62,-604.84 2045.62,-605.78 2044.46,-606.71 2043.15,-607.63 2041.7,-608.54 2040.13,-609.44 2038.44,-610.32 2036.64,-611.18 2034.73,-612.02 2032.74,-612.84 2030.65,-613.63 2028.49,-614.39 2026.26,-615.12 2023.97,-615.82 2021.62,-616.49 2019.22,-617.12 2016.78,-617.71 2014.3,-618.27 2011.79,-618.78 2009.25,-619.25 2006.69,-619.68 2004.11,-620.06 2001.51,-620.4 1998.9,-620.69 1996.27,-620.94 1993.64,-621.13 1991,-621.28 1988.36,-621.38 1985.71,-621.43 1983.07,-621.43 1980.42,-621.38 1977.78,-621.28 1975.14,-621.13 1972.51,-620.94 1969.89,-620.69 1967.27,-620.4 1964.67,-620.06 1962.09,-619.68 1959.53,-619.25 1956.99,-618.78 1954.48,-618.27 1952,-617.71 1949.56,-617.12 1947.16,-616.49 1944.81,-615.82 1942.52,-615.12 1940.29,-614.39 1938.13,-613.63 1936.05,-612.84 1934.05,-612.02 1932.15,-611.18 1930.34,-610.32 1928.65,-609.44 1927.08,-608.54 1925.63,-607.63 1924.33,-606.71 1923.17,-605.78 1922.16,-604.84 1921.31,-603.9 1920.64,-602.96 1920.14,-602.02 1919.83,-601.08 1919.71,-600.15 1919.78,-599.22 1920.06,-598.31 1920.54,-597.42 1921.23,-596.54 1922.12,-595.68 1923.24,-594.84 1924.56,-594.02 1926.09,-593.23 1927.84,-592.47 1929.79,-591.73 1931.94,-591.03 1934.29,-590.37 1936.83,-589.74 1939.55,-589.14 1942.44,-588.59 1945.5,-588.08 1948.72,-587.6 1952.07,-587.18 1955.56,-586.79 1959.16,-586.45 1962.86,-586.16 1966.66,-585.92 1970.52,-585.72 1974.44,-585.58 1978.41,-585.48 1982.39,-585.43 1986.39,-585.43 1990.38,-585.48"/>
<text xml:space="preserve" text-anchor="middle" x="1984.39" y="-599.15" font-family="Helvetica,sans-Serif" font-size="12.00">draxul&#45;rpc&#45;fake</text>
</g>
<!-- node35&#45;&gt;node23 -->
<g id="edge88" class="edge">
<title>node35&#45;&gt;node23</title>
<path fill="none" stroke="#888888" stroke-dasharray="1,5" d="M1978.14,-585.28C1964.71,-548.42 1932.97,-461.35 1916.58,-416.39"/>
<polygon fill="#888888" stroke="#888888" points="1919.9,-415.28 1913.19,-407.08 1913.33,-417.68 1919.9,-415.28"/>
</g>
<!-- node36 -->
<g id="node36" class="node">
<title>node36</title>
<polygon fill="#f4e04d" stroke="black" points="839.25,-759.29 842.47,-759.38 845.65,-759.53 848.78,-759.73 851.86,-759.97 854.87,-760.26 857.79,-760.6 860.62,-760.98 863.34,-761.41 865.95,-761.88 868.43,-762.4 870.78,-762.95 872.99,-763.54 875.05,-764.17 876.96,-764.84 878.7,-765.54 880.29,-766.27 881.7,-767.04 882.95,-767.83 884.02,-768.64 884.92,-769.48 885.65,-770.35 886.21,-771.23 886.6,-772.12 886.82,-773.03 886.88,-773.95 886.79,-774.89 886.53,-775.82 886.13,-776.76 885.58,-777.71 884.89,-778.65 884.08,-779.59 883.13,-780.52 882.07,-781.44 880.9,-782.35 879.63,-783.25 878.25,-784.13 876.79,-784.99 875.25,-785.83 873.62,-786.64 871.93,-787.43 870.18,-788.2 868.37,-788.93 866.51,-789.63 864.6,-790.3 862.66,-790.93 860.68,-791.52 858.67,-792.08 856.63,-792.59 854.57,-793.06 852.49,-793.49 850.39,-793.87 848.28,-794.21 846.16,-794.5 844.03,-794.74 841.9,-794.94 839.76,-795.09 837.61,-795.19 835.47,-795.24 833.32,-795.24 831.17,-795.19 829.03,-795.09 826.89,-794.94 824.75,-794.74 822.62,-794.5 820.5,-794.21 818.39,-793.87 816.29,-793.49 814.22,-793.06 812.16,-792.59 810.12,-792.08 808.11,-791.52 806.13,-790.93 804.18,-790.3 802.27,-789.63 800.41,-788.93 798.6,-788.2 796.85,-787.43 795.16,-786.64 793.54,-785.83 791.99,-784.99 790.53,-784.13 789.16,-783.25 787.88,-782.35 786.71,-781.44 785.65,-780.52 784.71,-779.59 783.89,-778.65 783.2,-777.71 782.66,-776.76 782.25,-775.82 782,-774.89 781.9,-773.95 781.96,-773.03 782.18,-772.12 782.57,-771.23 783.13,-770.35 783.86,-769.48 784.76,-768.64 785.84,-767.83 787.08,-767.04 788.5,-766.27 790.08,-765.54 791.82,-764.84 793.73,-764.17 795.79,-763.54 798,-762.95 800.35,-762.4 802.83,-761.88 805.44,-761.41 808.16,-760.98 810.99,-760.6 813.91,-760.26 816.92,-759.97 820,-759.73 823.14,-759.53 826.32,-759.38 829.53,-759.29 832.77,-759.24 836.01,-759.24 839.25,-759.29"/>
<text xml:space="preserve" text-anchor="middle" x="834.39" y="-772.96" font-family="Helvetica,sans-Serif" font-size="12.00">draxul&#45;tests</text>
</g>
<!-- node36&#45;&gt;node0 -->
<g id="edge89" class="edge">
<title>node36&#45;&gt;node0</title>
<path fill="none" stroke="#888888" stroke-dasharray="1,5" d="M801.29,-761.8C770.94,-748.55 725.24,-728.62 688.45,-712.57"/>
<polygon fill="#888888" stroke="#888888" points="690.28,-709.55 679.72,-708.76 687.49,-715.96 690.28,-709.55"/>
</g>
<!-- node36&#45;&gt;node6 -->
<g id="edge90" class="edge">
<title>node36&#45;&gt;node6</title>
<path fill="none" stroke="#888888" stroke-dasharray="1,5" d="M881.55,-766.45C962.32,-749.68 1126.66,-715.57 1212.46,-697.77"/>
<polygon fill="#888888" stroke="#888888" points="1212.96,-701.24 1222.04,-695.78 1211.54,-694.38 1212.96,-701.24"/>
</g>
<!-- node36&#45;&gt;node28 -->
<g id="edge92" class="edge">
<title>node36&#45;&gt;node28</title>
<path fill="none" stroke="#888888" stroke-dasharray="1,5" d="M834.39,-758.82C834.39,-729.23 834.39,-668.89 834.39,-633.04"/>
<polygon fill="#888888" stroke="#888888" points="837.89,-633.41 834.39,-623.41 830.89,-633.41 837.89,-633.41"/>
</g>
<!-- node36&#45;&gt;node34 -->
<g id="edge91" class="edge">
<title>node36&#45;&gt;node34</title>
<path fill="none" stroke="#888888" stroke-dasharray="1,5" d="M823.11,-759.29C804.6,-732.93 765.11,-682.54 718.39,-657.43 493.6,-536.58 404.8,-598.74 154.39,-549.43 148.37,-548.24 142.11,-547 135.84,-545.74"/>
<polygon fill="#888888" stroke="#888888" points="136.58,-542.32 126.08,-543.78 135.2,-549.18 136.58,-542.32"/>
</g>
<!-- node36&#45;&gt;node35 -->
<g id="edge93" class="edge">
<title>node36&#45;&gt;node35</title>
<path fill="none" stroke="#888888" d="M886.19,-770.28C1041.39,-752.11 1515.96,-694.17 1905.39,-621.43 1912.8,-620.04 1920.59,-618.49 1928.26,-616.9"/>
<polygon fill="#888888" stroke="#888888" points="1928.81,-620.36 1937.88,-614.88 1927.37,-613.51 1928.81,-620.36"/>
</g>
</g>
</svg>
