<?xml version="1.0" encoding="UTF-8" standalone="no"?>
<!DOCTYPE svg PUBLIC "-//W3C//DTD SVG 1.1//EN"
 "http://www.w3.org/Graphics/SVG/1.1/DTD/svg11.dtd">
<!-- Generated by graphviz version 14.1.3 (20260303.0454)
 -->
<!-- Title: DraxulConcreteOnly Pages: 1 -->
<svg width="2508pt" height="671pt"
 viewBox="0.00 0.00 2508.00 671.00" xmlns="http://www.w3.org/2000/svg" xmlns:xlink="http://www.w3.org/1999/xlink">
<g id="graph0" class="graph" transform="scale(1 1) rotate(0) translate(21.6 649.1)">
<title>DraxulConcreteOnly</title>
<polygon fill="white" stroke="none" points="-21.6,21.6 -21.6,-649.1 2486.6,-649.1 2486.6,21.6 -21.6,21.6"/>
<text xml:space="preserve" text-anchor="middle" x="1232.5" y="-600.7" font-family="Helvetica,sans-Serif" font-size="24.00">Draxul Concrete Runtime Classes</text>
<g id="clust1" class="cluster">
<title>cluster_app</title>
<path fill="white" stroke="#b53a3a" d="M73,-161.75C73,-161.75 905,-161.75 905,-161.75 911,-161.75 917,-167.75 917,-173.75 917,-173.75 917,-574.75 917,-574.75 917,-580.75 911,-586.75 905,-586.75 905,-586.75 73,-586.75 73,-586.75 67,-586.75 61,-580.75 61,-574.75 61,-574.75 61,-173.75 61,-173.75 61,-167.75 67,-161.75 73,-161.75"/>
<text xml:space="preserve" text-anchor="middle" x="489" y="-559.95" font-family="Helvetica,sans-Serif" font-size="24.00">App runtime</text>
</g>
<g id="clust2" class="cluster">
<title>cluster_platform</title>
<path fill="white" stroke="#3d8c50" d="M937,-315.5C937,-315.5 1423,-315.5 1423,-315.5 1429,-315.5 1435,-321.5 1435,-327.5 1435,-327.5 1435,-421 1435,-421 1435,-427 1429,-433 1423,-433 1423,-433 937,-433 937,-433 931,-433 925,-427 925,-421 925,-421 925,-327.5 925,-327.5 925,-321.5 931,-315.5 937,-315.5"/>
<text xml:space="preserve" text-anchor="middle" x="1180" y="-406.2" font-family="Helvetica,sans-Serif" font-size="24.00">Platform</text>
</g>
<g id="clust3" class="cluster">
<title>cluster_text</title>
<path fill="white" stroke="#7a4cc2" d="M937,-8C937,-8 2445,-8 2445,-8 2451,-8 2457,-14 2457,-20 2457,-20 2457,-113.5 2457,-113.5 2457,-119.5 2451,-125.5 2445,-125.5 2445,-125.5 937,-125.5 937,-125.5 931,-125.5 925,-119.5 925,-113.5 925,-113.5 925,-20 925,-20 925,-14 931,-8 937,-8"/>
<text xml:space="preserve" text-anchor="middle" x="1691" y="-98.7" font-family="Helvetica,sans-Serif" font-size="24.00">Text + grid support</text>
</g>
<g id="clust4" class="cluster">
<title>cluster_nvim</title>
<path fill="white" stroke="#7a4cc2" d="M20,-8C20,-8 905,-8 905,-8 911,-8 917,-14 917,-20 917,-20 917,-113.5 917,-113.5 917,-119.5 911,-125.5 905,-125.5 905,-125.5 20,-125.5 20,-125.5 14,-125.5 8,-119.5 8,-113.5 8,-113.5 8,-20 8,-20 8,-14 14,-8 20,-8"/>
<text xml:space="preserve" text-anchor="middle" x="462.5" y="-98.7" font-family="Helvetica,sans-Serif" font-size="24.00">Neovim concrete runtime</text>
</g>
<g id="clust5" class="cluster">
<title>cluster_hosts</title>
<path fill="white" stroke="#3d8c50" d="M937,-161.75C937,-161.75 1469,-161.75 1469,-161.75 1475,-161.75 1481,-167.75 1481,-173.75 1481,-173.75 1481,-267.25 1481,-267.25 1481,-273.25 1475,-279.25 1469,-279.25 1469,-279.25 937,-279.25 937,-279.25 931,-279.25 925,-273.25 925,-267.25 925,-267.25 925,-173.75 925,-173.75 925,-167.75 931,-161.75 937,-161.75"/>
<text xml:space="preserve" text-anchor="middle" x="1203" y="-252.45" font-family="Helvetica,sans-Serif" font-size="24.00">Concrete hosts</text>
</g>
<!-- App -->
<g id="node1" class="node">
<title>App</title>
<path fill="#ffd7d7" stroke="#b53a3a" stroke-width="1.2" d="M897.39,-513.25C897.39,-513.25 776.61,-513.25 776.61,-513.25 770.61,-513.25 764.61,-507.25 764.61,-501.25 764.61,-501.25 764.61,-489.25 764.61,-489.25 764.61,-483.25 770.61,-477.25 776.61,-477.25 776.61,-477.25 897.39,-477.25 897.39,-477.25 903.39,-477.25 909.39,-483.25 909.39,-489.25 909.39,-489.25 909.39,-501.25 909.39,-501.25 909.39,-507.25 903.39,-513.25 897.39,-513.25"/>
<text xml:space="preserve" text-anchor="start" x="817.12" y="-496.8" font-family="Helvetica,sans-Serif" font-size="11.00"> &#160;&#160;&#160;&#160;&#160;</text>
<text xml:space="preserve" text-anchor="start" x="835.12" y="-496.8" font-family="Helvetica,sans-Serif" font-weight="bold" font-size="11.00">App</text>
<text xml:space="preserve" text-anchor="start" x="773.25" y="-485.8" font-family="Helvetica,sans-Serif" font-size="11.00"> &#160;&#160;&#160;&#160;&#160;top&#45;level coordinator &#160;&#160;&#160;</text>
</g>
<!-- HostManager -->
<g id="node2" class="node">
<title>HostManager</title>
<path fill="#ffd7d7" stroke="#b53a3a" stroke-width="1.2" d="M207.01,-359.5C207.01,-359.5 80.99,-359.5 80.99,-359.5 74.99,-359.5 68.98,-353.5 68.98,-347.5 68.98,-347.5 68.98,-335.5 68.98,-335.5 68.98,-329.5 74.98,-323.5 80.98,-323.5 80.98,-323.5 207.01,-323.5 207.01,-323.5 213.01,-323.5 219.01,-329.5 219.01,-335.5 219.01,-335.5 219.01,-347.5 219.01,-347.5 219.01,-353.5 213.01,-359.5 207.01,-359.5"/>
<text xml:space="preserve" text-anchor="start" x="100.12" y="-343.05" font-family="Helvetica,sans-Serif" font-size="11.00"> &#160;&#160;&#160;&#160;&#160;</text>
<text xml:space="preserve" text-anchor="start" x="118.12" y="-343.05" font-family="Helvetica,sans-Serif" font-weight="bold" font-size="11.00">HostManager</text>
<text xml:space="preserve" text-anchor="start" x="77.62" y="-332.05" font-family="Helvetica,sans-Serif" font-size="11.00"> &#160;&#160;&#160;&#160;&#160;pane hosts + lifecycle &#160;&#160;&#160;</text>
</g>
<!-- App&#45;&gt;HostManager -->
<g id="edge1" class="edge">
<title>App&#45;&gt;HostManager</title>
<path fill="none" stroke="#496057" stroke-width="1.1" stroke-dasharray="5,2" d="M764.26,-488.56C617.49,-477.09 299.75,-452.25 299.75,-452.25 299.75,-452.25 221.87,-397.37 176.25,-365.23"/>
<polygon fill="#496057" stroke="#496057" stroke-width="1.1" points="169.77,-360.66 178.39,-362.33 171.98,-362.15 176.34,-365.23 176.31,-365.27 176.29,-365.31 171.92,-362.24 174.24,-368.21 169.77,-360.66"/>
<text xml:space="preserve" text-anchor="middle" x="311.38" y="-442.75" font-family="Helvetica,sans-Serif" font-size="10.00">owns</text>
</g>
<!-- InputDispatcher -->
<g id="node4" class="node">
<title>InputDispatcher</title>
<path fill="#ffd7d7" stroke="#b53a3a" stroke-width="1.2" d="M419.64,-359.5C419.64,-359.5 312.36,-359.5 312.36,-359.5 306.36,-359.5 300.36,-353.5 300.36,-347.5 300.36,-347.5 300.36,-335.5 300.36,-335.5 300.36,-329.5 306.36,-323.5 312.36,-323.5 312.36,-323.5 419.64,-323.5 419.64,-323.5 425.64,-323.5 431.64,-329.5 431.64,-335.5 431.64,-335.5 431.64,-347.5 431.64,-347.5 431.64,-353.5 425.64,-359.5 419.64,-359.5"/>
<text xml:space="preserve" text-anchor="start" x="309" y="-338.05" font-family="Helvetica,sans-Serif" font-size="11.00"> &#160;&#160;&#160;&#160;&#160;</text>
<text xml:space="preserve" text-anchor="start" x="327" y="-338.05" font-family="Helvetica,sans-Serif" font-weight="bold" font-size="11.00">InputDispatcher</text>
<text xml:space="preserve" text-anchor="start" x="411" y="-338.05" font-family="Helvetica,sans-Serif" font-size="11.00"> &#160;&#160;&#160;</text>
</g>
<!-- App&#45;&gt;InputDispatcher -->
<g id="edge2" class="edge">
<title>App&#45;&gt;InputDispatcher</title>
<path fill="none" stroke="#496057" stroke-width="1.1" stroke-dasharray="5,2" d="M764.04,-488.23C623.22,-476.62 327.75,-452.25 327.75,-452.25 327.75,-452.25 327.75,-441 327.75,-441 327.75,-441 344.69,-397.37 356.03,-368.19"/>
<polygon fill="#496057" stroke="#496057" stroke-width="1.1" points="358.85,-360.91 359.31,-369.67 357.94,-363.4 356,-368.38 355.96,-368.36 355.91,-368.35 357.84,-363.37 352.6,-367.06 358.85,-360.91"/>
<text xml:space="preserve" text-anchor="middle" x="339.38" y="-442.75" font-family="Helvetica,sans-Serif" font-size="10.00">owns</text>
</g>
<!-- GuiActionHandler -->
<g id="node5" class="node">
<title>GuiActionHandler</title>
<path fill="#ffd7d7" stroke="#b53a3a" stroke-width="1.2" d="M580.51,-359.5C580.51,-359.5 463.49,-359.5 463.49,-359.5 457.49,-359.5 451.49,-353.5 451.49,-347.5 451.49,-347.5 451.49,-335.5 451.49,-335.5 451.49,-329.5 457.49,-323.5 463.49,-323.5 463.49,-323.5 580.51,-323.5 580.51,-323.5 586.51,-323.5 592.51,-329.5 592.51,-335.5 592.51,-335.5 592.51,-347.5 592.51,-347.5 592.51,-353.5 586.51,-359.5 580.51,-359.5"/>
<text xml:space="preserve" text-anchor="start" x="460.12" y="-338.05" font-family="Helvetica,sans-Serif" font-size="11.00"> &#160;&#160;&#160;&#160;&#160;</text>
<text xml:space="preserve" text-anchor="start" x="478.12" y="-338.05" font-family="Helvetica,sans-Serif" font-weight="bold" font-size="11.00">GuiActionHandler</text>
<text xml:space="preserve" text-anchor="start" x="571.88" y="-338.05" font-family="Helvetica,sans-Serif" font-size="11.00"> &#160;&#160;&#160;</text>
</g>
<!-- App&#45;&gt;GuiActionHandler -->
<g id="edge3" class="edge">
<title>App&#45;&gt;GuiActionHandler</title>
<path fill="none" stroke="#496057" stroke-width="1.1" stroke-dasharray="5,2" d="M764.17,-487.89C629.63,-476.15 355.75,-452.25 355.75,-452.25 355.75,-452.25 355.75,-441 355.75,-441 355.75,-441 442,-433 442,-433 442,-433 476.83,-393.6 500.52,-366.8"/>
<polygon fill="#496057" stroke="#496057" stroke-width="1.1" points="505.69,-360.95 503.09,-369.33 503.96,-362.98 500.43,-366.98 500.39,-366.95 500.35,-366.91 503.89,-362.91 497.69,-364.56 505.69,-360.95"/>
<text xml:space="preserve" text-anchor="middle" x="367.38" y="-442.75" font-family="Helvetica,sans-Serif" font-size="10.00">owns</text>
</g>
<!-- UiPanel -->
<g id="node6" class="node">
<title>UiPanel</title>
<path fill="#ffd7d7" stroke="#b53a3a" stroke-width="1.2" d="M766.89,-359.5C766.89,-359.5 703.11,-359.5 703.11,-359.5 697.11,-359.5 691.11,-353.5 691.11,-347.5 691.11,-347.5 691.11,-335.5 691.11,-335.5 691.11,-329.5 697.11,-323.5 703.11,-323.5 703.11,-323.5 766.89,-323.5 766.89,-323.5 772.89,-323.5 778.89,-329.5 778.89,-335.5 778.89,-335.5 778.89,-347.5 778.89,-347.5 778.89,-353.5 772.89,-359.5 766.89,-359.5"/>
<text xml:space="preserve" text-anchor="start" x="699.75" y="-338.05" font-family="Helvetica,sans-Serif" font-size="11.00"> &#160;&#160;&#160;&#160;&#160;</text>
<text xml:space="preserve" text-anchor="start" x="717.75" y="-338.05" font-family="Helvetica,sans-Serif" font-weight="bold" font-size="11.00">UiPanel</text>
<text xml:space="preserve" text-anchor="start" x="758.25" y="-338.05" font-family="Helvetica,sans-Serif" font-size="11.00"> &#160;&#160;&#160;</text>
</g>
<!-- App&#45;&gt;UiPanel -->
<g id="edge4" class="edge">
<title>App&#45;&gt;UiPanel</title>
<path fill="none" stroke="#496057" stroke-width="1.1" stroke-dasharray="5,2" d="M823.37,-476.86C809.18,-458.75 789,-433 789,-433 789,-433 766.09,-394.6 750.11,-367.83"/>
<polygon fill="#496057" stroke="#496057" stroke-width="1.1" points="746.1,-361.1 753.29,-366.13 747.5,-363.36 750.24,-367.94 750.2,-367.97 750.15,-368 747.42,-363.41 747.11,-369.81 746.1,-361.1"/>
<text xml:space="preserve" text-anchor="middle" x="814.81" y="-442.75" font-family="Helvetica,sans-Serif" font-size="10.00">owns</text>
</g>
<!-- FrameTimer -->
<g id="node7" class="node">
<title>FrameTimer</title>
<path fill="#ffd7d7" stroke="#b53a3a" stroke-width="1.2" d="M897.14,-359.5C897.14,-359.5 810.86,-359.5 810.86,-359.5 804.86,-359.5 798.86,-353.5 798.86,-347.5 798.86,-347.5 798.86,-335.5 798.86,-335.5 798.86,-329.5 804.86,-323.5 810.86,-323.5 810.86,-323.5 897.14,-323.5 897.14,-323.5 903.14,-323.5 909.14,-329.5 909.14,-335.5 909.14,-335.5 909.14,-347.5 909.14,-347.5 909.14,-353.5 903.14,-359.5 897.14,-359.5"/>
<text xml:space="preserve" text-anchor="start" x="807.5" y="-338.05" font-family="Helvetica,sans-Serif" font-size="11.00"> &#160;&#160;&#160;&#160;&#160;</text>
<text xml:space="preserve" text-anchor="start" x="825.5" y="-338.05" font-family="Helvetica,sans-Serif" font-weight="bold" font-size="11.00">FrameTimer</text>
<text xml:space="preserve" text-anchor="start" x="888.5" y="-338.05" font-family="Helvetica,sans-Serif" font-size="11.00"> &#160;&#160;&#160;</text>
</g>
<!-- App&#45;&gt;FrameTimer -->
<g id="edge5" class="edge">
<title>App&#45;&gt;FrameTimer</title>
<path fill="none" stroke="#496057" stroke-width="1.1" stroke-dasharray="5,2" d="M838.95,-476.84C841.92,-450.31 847.6,-399.59 851.07,-368.63"/>
<polygon fill="#496057" stroke="#496057" stroke-width="1.1" points="851.92,-361.04 854.61,-369.39 851.68,-363.69 851.08,-368.99 851.03,-368.99 850.98,-368.98 851.58,-363.67 847.46,-368.59 851.92,-361.04"/>
<text xml:space="preserve" text-anchor="middle" x="854.12" y="-442.75" font-family="Helvetica,sans-Serif" font-size="10.00">owns</text>
</g>
<!-- SdlWindow -->
<g id="node8" class="node">
<title>SdlWindow</title>
<path fill="#e8f7eb" stroke="#2f6b3b" stroke-width="1.2" d="M1111.27,-359.5C1111.27,-359.5 944.74,-359.5 944.74,-359.5 938.74,-359.5 932.74,-353.5 932.74,-347.5 932.74,-347.5 932.74,-335.5 932.74,-335.5 932.74,-329.5 938.74,-323.5 944.74,-323.5 944.74,-323.5 1111.27,-323.5 1111.27,-323.5 1117.27,-323.5 1123.27,-329.5 1123.27,-335.5 1123.27,-335.5 1123.27,-347.5 1123.27,-347.5 1123.27,-353.5 1117.27,-359.5 1111.27,-359.5"/>
<text xml:space="preserve" text-anchor="start" x="989.38" y="-343.05" font-family="Helvetica,sans-Serif" font-size="11.00"> &#160;&#160;&#160;&#160;&#160;</text>
<text xml:space="preserve" text-anchor="start" x="1007.38" y="-343.05" font-family="Helvetica,sans-Serif" font-weight="bold" font-size="11.00">SdlWindow</text>
<text xml:space="preserve" text-anchor="start" x="941.38" y="-332.05" font-family="Helvetica,sans-Serif" font-size="11.00"> &#160;&#160;&#160;&#160;&#160;SDL3 window implementation &#160;&#160;&#160;</text>
</g>
<!-- App&#45;&gt;SdlWindow -->
<g id="edge6" class="edge">
<title>App&#45;&gt;SdlWindow</title>
<path fill="none" stroke="#496057" stroke-width="1.1" stroke-dasharray="5,2" d="M861.13,-476.86C886.26,-458.75 922,-433 922,-433 922,-433 969.33,-392.59 1000.74,-365.78"/>
<polygon fill="#496057" stroke="#496057" stroke-width="1.1" points="1006.54,-360.82 1002.8,-368.75 1004.55,-362.58 1000.49,-366.05 1000.46,-366.01 1000.43,-365.98 1004.49,-362.51 998.12,-363.28 1006.54,-360.82"/>
<text xml:space="preserve" text-anchor="middle" x="939.29" y="-442.75" font-family="Helvetica,sans-Serif" font-size="10.00">owns window</text>
</g>
<!-- MetalRenderer -->
<g id="node9" class="node">
<title>MetalRenderer</title>
<path fill="#e8f7eb" stroke="#2f6b3b" stroke-width="1.2" d="M1258.77,-359.5C1258.77,-359.5 1155.23,-359.5 1155.23,-359.5 1149.23,-359.5 1143.23,-353.5 1143.23,-347.5 1143.23,-347.5 1143.23,-335.5 1143.23,-335.5 1143.23,-329.5 1149.23,-323.5 1155.23,-323.5 1155.23,-323.5 1258.77,-323.5 1258.77,-323.5 1264.77,-323.5 1270.77,-329.5 1270.77,-335.5 1270.77,-335.5 1270.77,-347.5 1270.77,-347.5 1270.77,-353.5 1264.77,-359.5 1258.77,-359.5"/>
<text xml:space="preserve" text-anchor="start" x="1159.75" y="-343.05" font-family="Helvetica,sans-Serif" font-size="11.00"> &#160;&#160;&#160;&#160;&#160;</text>
<text xml:space="preserve" text-anchor="start" x="1177.75" y="-343.05" font-family="Helvetica,sans-Serif" font-weight="bold" font-size="11.00">MetalRenderer</text>
<text xml:space="preserve" text-anchor="start" x="1151.88" y="-332.05" font-family="Helvetica,sans-Serif" font-size="11.00"> &#160;&#160;&#160;&#160;&#160;macOS renderer &#160;&#160;&#160;</text>
</g>
<!-- App&#45;&gt;MetalRenderer -->
<g id="edge8" class="edge">
<title>App&#45;&gt;MetalRenderer</title>
<path fill="none" stroke="#496057" stroke-width="1.1" stroke-dasharray="5,2" d="M909.79,-479.19C997.43,-461.05 1133,-433 1133,-433 1133,-433 1164.94,-393.94 1186.85,-367.14"/>
<polygon fill="#496057" stroke="#496057" stroke-width="1.1" points="1191.88,-360.99 1189.61,-369.46 1190.24,-363.08 1186.86,-367.21 1186.82,-367.18 1186.78,-367.15 1190.16,-363.01 1184.03,-364.9 1191.88,-360.99"/>
<text xml:space="preserve" text-anchor="middle" x="1126.41" y="-442.75" font-family="Helvetica,sans-Serif" font-size="10.00">owns on macOS</text>
</g>
<!-- VkRenderer -->
<g id="node10" class="node">
<title>VkRenderer</title>
<path fill="#e8f7eb" stroke="#2f6b3b" stroke-width="1.2" d="M1414.89,-359.5C1414.89,-359.5 1303.11,-359.5 1303.11,-359.5 1297.11,-359.5 1291.11,-353.5 1291.11,-347.5 1291.11,-347.5 1291.11,-335.5 1291.11,-335.5 1291.11,-329.5 1297.11,-323.5 1303.11,-323.5 1303.11,-323.5 1414.89,-323.5 1414.89,-323.5 1420.89,-323.5 1426.89,-329.5 1426.89,-335.5 1426.89,-335.5 1426.89,-347.5 1426.89,-347.5 1426.89,-353.5 1420.89,-359.5 1414.89,-359.5"/>
<text xml:space="preserve" text-anchor="start" x="1318.88" y="-343.05" font-family="Helvetica,sans-Serif" font-size="11.00"> &#160;&#160;&#160;&#160;&#160;</text>
<text xml:space="preserve" text-anchor="start" x="1336.88" y="-343.05" font-family="Helvetica,sans-Serif" font-weight="bold" font-size="11.00">VkRenderer</text>
<text xml:space="preserve" text-anchor="start" x="1299.75" y="-332.05" font-family="Helvetica,sans-Serif" font-size="11.00"> &#160;&#160;&#160;&#160;&#160;Windows renderer &#160;&#160;&#160;</text>
</g>
<!-- App&#45;&gt;VkRenderer -->
<g id="edge9" class="edge">
<title>App&#45;&gt;VkRenderer</title>
<path fill="none" stroke="#496057" stroke-width="1.1" stroke-dasharray="5,2" d="M909.64,-485.03C1007.07,-472.67 1168,-452.25 1168,-452.25 1168,-452.25 1281,-433 1281,-433 1281,-433 1314.96,-393.6 1338.06,-366.8"/>
<polygon fill="#496057" stroke="#496057" stroke-width="1.1" points="1343.09,-360.96 1340.59,-369.37 1341.39,-363.01 1337.9,-367.06 1337.86,-367.02 1337.83,-366.99 1341.31,-362.95 1335.14,-364.67 1343.09,-360.96"/>
<text xml:space="preserve" text-anchor="middle" x="1271.39" y="-442.75" font-family="Helvetica,sans-Serif" font-size="10.00">owns on Windows</text>
</g>
<!-- TextService -->
<g id="node11" class="node">
<title>TextService</title>
<path fill="#eadbff" stroke="#7a4cc2" stroke-width="1.2" d="M2437.01,-52C2437.01,-52 2352.99,-52 2352.99,-52 2346.99,-52 2340.99,-46 2340.99,-40 2340.99,-40 2340.99,-28 2340.99,-28 2340.99,-22 2346.99,-16 2352.99,-16 2352.99,-16 2437.01,-16 2437.01,-16 2443.01,-16 2449.01,-22 2449.01,-28 2449.01,-28 2449.01,-40 2449.01,-40 2449.01,-46 2443.01,-52 2437.01,-52"/>
<text xml:space="preserve" text-anchor="start" x="2349.62" y="-30.55" font-family="Helvetica,sans-Serif" font-size="11.00"> &#160;&#160;&#160;&#160;&#160;</text>
<text xml:space="preserve" text-anchor="start" x="2367.62" y="-30.55" font-family="Helvetica,sans-Serif" font-weight="bold" font-size="11.00">TextService</text>
<text xml:space="preserve" text-anchor="start" x="2428.38" y="-30.55" font-family="Helvetica,sans-Serif" font-size="11.00"> &#160;&#160;&#160;</text>
</g>
<!-- App&#45;&gt;TextService -->
<g id="edge7" class="edge">
<title>App&#45;&gt;TextService</title>
<path fill="none" stroke="#496057" stroke-width="1.1" stroke-dasharray="5,2" d="M909.9,-487.87C1044.18,-476.12 1317,-452.25 1317,-452.25 1317,-452.25 1440,-433 1440,-433 1440,-433 2180,-279.25 2180,-279.25 2180,-279.25 2331,-125.5 2331,-125.5 2331,-125.5 2358.39,-86.77 2377.33,-59.98"/>
<polygon fill="#496057" stroke="#496057" stroke-width="1.1" points="2381.89,-53.54 2380.21,-62.15 2380.39,-55.74 2377.31,-60.1 2377.27,-60.08 2377.23,-60.05 2380.31,-55.69 2374.33,-58 2381.89,-53.54"/>
<text xml:space="preserve" text-anchor="middle" x="2152.99" y="-289" font-family="Helvetica,sans-Serif" font-size="10.00">owns</text>
</g>
<!-- SplitTree -->
<g id="node3" class="node">
<title>SplitTree</title>
<path fill="#ffd7d7" stroke="#b53a3a" stroke-width="1.2" d="M178.89,-205.75C178.89,-205.75 109.11,-205.75 109.11,-205.75 103.11,-205.75 97.11,-199.75 97.11,-193.75 97.11,-193.75 97.11,-181.75 97.11,-181.75 97.11,-175.75 103.11,-169.75 109.11,-169.75 109.11,-169.75 178.89,-169.75 178.89,-169.75 184.89,-169.75 190.89,-175.75 190.89,-181.75 190.89,-181.75 190.89,-193.75 190.89,-193.75 190.89,-199.75 184.89,-205.75 178.89,-205.75"/>
<text xml:space="preserve" text-anchor="start" x="105.75" y="-184.3" font-family="Helvetica,sans-Serif" font-size="11.00"> &#160;&#160;&#160;&#160;&#160;</text>
<text xml:space="preserve" text-anchor="start" x="123.75" y="-184.3" font-family="Helvetica,sans-Serif" font-weight="bold" font-size="11.00">SplitTree</text>
<text xml:space="preserve" text-anchor="start" x="170.25" y="-184.3" font-family="Helvetica,sans-Serif" font-size="11.00"> &#160;&#160;&#160;</text>
</g>
<!-- HostManager&#45;&gt;SplitTree -->
<g id="edge10" class="edge">
<title>HostManager&#45;&gt;SplitTree</title>
<path fill="none" stroke="#496057" stroke-width="1.1" stroke-dasharray="5,2" d="M144,-323.09C144,-296.68 144,-246.28 144,-215.28"/>
<polygon fill="#496057" stroke="#496057" stroke-width="1.1" points="144,-207.29 147.6,-215.29 144.05,-209.95 144.05,-215.29 144,-215.29 143.95,-215.29 143.95,-209.95 140.4,-215.29 144,-207.29"/>
<text xml:space="preserve" text-anchor="middle" x="155.62" y="-289" font-family="Helvetica,sans-Serif" font-size="10.00">owns</text>
</g>
<!-- NvimHost -->
<g id="node28" class="node">
<title>NvimHost</title>
<path fill="#e8f7eb" stroke="#2f6b3b" stroke-width="1.2" d="M1020.52,-205.75C1020.52,-205.75 945.49,-205.75 945.49,-205.75 939.49,-205.75 933.49,-199.75 933.49,-193.75 933.49,-193.75 933.49,-181.75 933.49,-181.75 933.49,-175.75 939.49,-169.75 945.49,-169.75 945.49,-169.75 1020.52,-169.75 1020.52,-169.75 1026.52,-169.75 1032.52,-175.75 1032.52,-181.75 1032.52,-181.75 1032.52,-193.75 1032.52,-193.75 1032.52,-199.75 1026.52,-205.75 1020.52,-205.75"/>
<text xml:space="preserve" text-anchor="start" x="942.12" y="-184.3" font-family="Helvetica,sans-Serif" font-size="11.00"> &#160;&#160;&#160;&#160;&#160;</text>
<text xml:space="preserve" text-anchor="start" x="960.12" y="-184.3" font-family="Helvetica,sans-Serif" font-weight="bold" font-size="11.00">NvimHost</text>
<text xml:space="preserve" text-anchor="start" x="1011.88" y="-184.3" font-family="Helvetica,sans-Serif" font-size="11.00"> &#160;&#160;&#160;</text>
</g>
<!-- HostManager&#45;&gt;NvimHost -->
<g id="edge11" class="edge">
<title>HostManager&#45;&gt;NvimHost</title>
<path fill="none" stroke="#496057" stroke-width="1.1" stroke-dasharray="5,2" d="M160.54,-323.06C175.26,-307.53 194.5,-287.25 194.5,-287.25 194.5,-287.25 922,-279.25 922,-279.25 922,-279.25 948.1,-240.52 966.16,-213.73"/>
<polygon fill="#496057" stroke="#496057" stroke-width="1.1" points="970.49,-207.31 969,-215.96 969.04,-209.54 966.06,-213.97 966.02,-213.94 965.98,-213.92 968.96,-209.49 963.03,-211.93 970.49,-207.31"/>
<text xml:space="preserve" text-anchor="middle" x="223.75" y="-289" font-family="Helvetica,sans-Serif" font-size="10.00">creates/owns</text>
</g>
<!-- ShellHost -->
<g id="node29" class="node">
<title>ShellHost</title>
<path fill="#e8f7eb" stroke="#2f6b3b" stroke-width="1.2" d="M1169.52,-205.75C1169.52,-205.75 1064.48,-205.75 1064.48,-205.75 1058.48,-205.75 1052.48,-199.75 1052.48,-193.75 1052.48,-193.75 1052.48,-181.75 1052.48,-181.75 1052.48,-175.75 1058.48,-169.75 1064.48,-169.75 1064.48,-169.75 1169.52,-169.75 1169.52,-169.75 1175.52,-169.75 1181.52,-175.75 1181.52,-181.75 1181.52,-181.75 1181.52,-193.75 1181.52,-193.75 1181.52,-199.75 1175.52,-205.75 1169.52,-205.75"/>
<text xml:space="preserve" text-anchor="start" x="1082.5" y="-189.3" font-family="Helvetica,sans-Serif" font-size="11.00"> &#160;&#160;&#160;&#160;&#160;</text>
<text xml:space="preserve" text-anchor="start" x="1100.5" y="-189.3" font-family="Helvetica,sans-Serif" font-weight="bold" font-size="11.00">ShellHost</text>
<text xml:space="preserve" text-anchor="start" x="1061.12" y="-178.3" font-family="Helvetica,sans-Serif" font-size="11.00"> &#160;&#160;&#160;&#160;&#160;bash / zsh / WSL &#160;&#160;&#160;</text>
</g>
<!-- HostManager&#45;&gt;ShellHost -->
<g id="edge12" class="edge">
<title>HostManager&#45;&gt;ShellHost</title>
<path fill="none" stroke="#496057" stroke-width="1.1" stroke-dasharray="5,2" d="M190.01,-322.93C220.16,-311.42 254,-298.5 254,-298.5 254,-298.5 278.5,-287.25 278.5,-287.25 278.5,-287.25 1043,-279.25 1043,-279.25 1043,-279.25 1074.94,-240.19 1096.85,-213.39"/>
<polygon fill="#496057" stroke="#496057" stroke-width="1.1" points="1101.88,-207.24 1099.61,-215.71 1100.24,-209.33 1096.86,-213.46 1096.82,-213.43 1096.78,-213.4 1100.16,-209.26 1094.03,-211.15 1101.88,-207.24"/>
<text xml:space="preserve" text-anchor="middle" x="307.75" y="-289" font-family="Helvetica,sans-Serif" font-size="10.00">creates/owns</text>
</g>
<!-- PowerShellHost -->
<g id="node30" class="node">
<title>PowerShellHost</title>
<path fill="#e8f7eb" stroke="#2f6b3b" stroke-width="1.2" d="M1320.64,-205.75C1320.64,-205.75 1213.36,-205.75 1213.36,-205.75 1207.36,-205.75 1201.36,-199.75 1201.36,-193.75 1201.36,-193.75 1201.36,-181.75 1201.36,-181.75 1201.36,-175.75 1207.36,-169.75 1213.36,-169.75 1213.36,-169.75 1320.64,-169.75 1320.64,-169.75 1326.64,-169.75 1332.64,-175.75 1332.64,-181.75 1332.64,-181.75 1332.64,-193.75 1332.64,-193.75 1332.64,-199.75 1326.64,-205.75 1320.64,-205.75"/>
<text xml:space="preserve" text-anchor="start" x="1210" y="-184.3" font-family="Helvetica,sans-Serif" font-size="11.00"> &#160;&#160;&#160;&#160;&#160;</text>
<text xml:space="preserve" text-anchor="start" x="1228" y="-184.3" font-family="Helvetica,sans-Serif" font-weight="bold" font-size="11.00">PowerShellHost</text>
<text xml:space="preserve" text-anchor="start" x="1312" y="-184.3" font-family="Helvetica,sans-Serif" font-size="11.00"> &#160;&#160;&#160;</text>
</g>
<!-- HostManager&#45;&gt;PowerShellHost -->
<g id="edge13" class="edge">
<title>HostManager&#45;&gt;PowerShellHost</title>
<path fill="none" stroke="#496057" stroke-width="1.1" stroke-dasharray="5,2" d="M219.56,-324.14C274.03,-312.35 338,-298.5 338,-298.5 338,-298.5 362.5,-287.25 362.5,-287.25 362.5,-287.25 1192,-279.25 1192,-279.25 1192,-279.25 1224.37,-240.19 1246.58,-213.39"/>
<polygon fill="#496057" stroke="#496057" stroke-width="1.1" points="1251.68,-207.23 1249.35,-215.69 1250.03,-209.31 1246.62,-213.42 1246.58,-213.39 1246.54,-213.36 1249.95,-209.25 1243.81,-211.09 1251.68,-207.23"/>
<text xml:space="preserve" text-anchor="middle" x="391.75" y="-289" font-family="Helvetica,sans-Serif" font-size="10.00">creates/owns</text>
</g>
<!-- MegaCityHost -->
<g id="node31" class="node">
<title>MegaCityHost</title>
<path fill="#e8f7eb" stroke="#2f6b3b" stroke-width="1.2" d="M1461.39,-205.75C1461.39,-205.75 1364.61,-205.75 1364.61,-205.75 1358.61,-205.75 1352.61,-199.75 1352.61,-193.75 1352.61,-193.75 1352.61,-181.75 1352.61,-181.75 1352.61,-175.75 1358.61,-169.75 1364.61,-169.75 1364.61,-169.75 1461.39,-169.75 1461.39,-169.75 1467.39,-169.75 1473.39,-175.75 1473.39,-181.75 1473.39,-181.75 1473.39,-193.75 1473.39,-193.75 1473.39,-199.75 1467.39,-205.75 1461.39,-205.75"/>
<text xml:space="preserve" text-anchor="start" x="1361.25" y="-184.3" font-family="Helvetica,sans-Serif" font-size="11.00"> &#160;&#160;&#160;&#160;&#160;</text>
<text xml:space="preserve" text-anchor="start" x="1379.25" y="-184.3" font-family="Helvetica,sans-Serif" font-weight="bold" font-size="11.00">MegaCityHost</text>
<text xml:space="preserve" text-anchor="start" x="1452.75" y="-184.3" font-family="Helvetica,sans-Serif" font-size="11.00"> &#160;&#160;&#160;</text>
</g>
<!-- HostManager&#45;&gt;MegaCityHost -->
<g id="edge14" class="edge">
<title>HostManager&#45;&gt;MegaCityHost</title>
<path fill="none" stroke="#496057" stroke-width="1.1" stroke-dasharray="5,2" d="M219.57,-327.56C255.19,-321.46 290,-315.5 290,-315.5 290,-315.5 422,-298.5 422,-298.5 422,-298.5 446.5,-287.25 446.5,-287.25 446.5,-287.25 1343,-279.25 1343,-279.25 1343,-279.25 1373.21,-240.19 1393.94,-213.39"/>
<polygon fill="#496057" stroke="#496057" stroke-width="1.1" points="1398.68,-207.26 1396.64,-215.79 1397.1,-209.39 1393.83,-213.62 1393.79,-213.59 1393.75,-213.56 1397.02,-209.33 1390.94,-211.38 1398.68,-207.26"/>
<text xml:space="preserve" text-anchor="middle" x="475.75" y="-289" font-family="Helvetica,sans-Serif" font-size="10.00">creates/owns</text>
</g>
<!-- InputDispatcher&#45;&gt;HostManager -->
<g id="edge51" class="edge">
<title>InputDispatcher&#45;&gt;HostManager</title>
<path fill="none" stroke="#94a3b8" stroke-width="1.1" d="M300.02,-341.5C277.77,-341.5 252.6,-341.5 229.08,-341.5"/>
<polygon fill="#94a3b8" stroke="#94a3b8" stroke-width="1.1" points="229.13,-338.7 221.13,-341.5 229.13,-344.3 229.13,-338.7"/>
<text xml:space="preserve" text-anchor="middle" x="259.69" y="-346.25" font-family="Helvetica,sans-Serif" font-size="10.00">mouse hit&#45;test</text>
</g>
<!-- InputDispatcher&#45;&gt;UiPanel -->
<g id="edge52" class="edge">
<title>InputDispatcher&#45;&gt;UiPanel</title>
<path fill="none" stroke="#94a3b8" stroke-width="1.1" d="M382.64,-359.77C404.74,-384.02 441,-423.81 441,-423.81 441,-423.81 603,-423.81 603,-423.81 603,-423.81 658.31,-389.32 697.32,-364.99"/>
<polygon fill="#94a3b8" stroke="#94a3b8" stroke-width="1.1" points="698.66,-367.46 703.96,-360.85 695.69,-362.71 698.66,-367.46"/>
<text xml:space="preserve" text-anchor="middle" x="561" y="-442.75" font-family="Helvetica,sans-Serif" font-size="10.00">panel routing</text>
</g>
<!-- GuiActionHandler&#45;&gt;HostManager -->
<g id="edge53" class="edge">
<title>GuiActionHandler&#45;&gt;HostManager</title>
<path fill="none" stroke="#94a3b8" stroke-width="1.1" d="M504.25,-359.77C480.68,-384.02 442,-423.81 442,-423.81 442,-423.81 290,-423.81 290,-423.81 290,-423.81 228.31,-389.03 185.13,-364.69"/>
<polygon fill="#94a3b8" stroke="#94a3b8" stroke-width="1.1" points="186.56,-362.28 178.22,-360.79 183.81,-367.16 186.56,-362.28"/>
<text xml:space="preserve" text-anchor="middle" x="408" y="-442.75" font-family="Helvetica,sans-Serif" font-size="10.00">split panes</text>
</g>
<!-- GuiActionHandler&#45;&gt;UiPanel -->
<g id="edge54" class="edge">
<title>GuiActionHandler&#45;&gt;UiPanel</title>
<path fill="none" stroke="#94a3b8" stroke-width="1.1" d="M592.93,-341.5C621.7,-341.5 654.4,-341.5 681.16,-341.5"/>
<polygon fill="#94a3b8" stroke="#94a3b8" stroke-width="1.1" points="681.07,-344.3 689.07,-341.5 681.07,-338.7 681.07,-344.3"/>
<text xml:space="preserve" text-anchor="middle" x="641.81" y="-346.25" font-family="Helvetica,sans-Serif" font-size="10.00">toggle diagnostics</text>
</g>
<!-- GuiActionHandler&#45;&gt;TextService -->
<g id="edge55" class="edge">
<title>GuiActionHandler&#45;&gt;TextService</title>
<path fill="none" stroke="#94a3b8" stroke-width="1.1" d="M592.67,-329.39C635.13,-322.71 681,-315.5 681,-315.5 681,-315.5 992,-287.25 992,-287.25 992,-287.25 1486,-279.25 1486,-279.25 1486,-279.25 2331,-125.5 2331,-125.5 2331,-125.5 2358.15,-87.1 2377.09,-60.33"/>
<polygon fill="#94a3b8" stroke="#94a3b8" stroke-width="1.1" points="2379.37,-61.96 2381.7,-53.81 2374.79,-58.72 2379.37,-61.96"/>
<text xml:space="preserve" text-anchor="middle" x="2149.84" y="-183.88" font-family="Helvetica,sans-Serif" font-size="10.00">font actions</text>
</g>
<!-- Grid -->
<g id="node12" class="node">
<title>Grid</title>
<path fill="#eadbff" stroke="#7a4cc2" stroke-width="1.2" d="M990.89,-52C990.89,-52 945.11,-52 945.11,-52 939.11,-52 933.11,-46 933.11,-40 933.11,-40 933.11,-28 933.11,-28 933.11,-22 939.11,-16 945.11,-16 945.11,-16 990.89,-16 990.89,-16 996.89,-16 1002.89,-22 1002.89,-28 1002.89,-28 1002.89,-40 1002.89,-40 1002.89,-46 996.89,-52 990.89,-52"/>
<text xml:space="preserve" text-anchor="start" x="941.75" y="-30.55" font-family="Helvetica,sans-Serif" font-size="11.00"> &#160;&#160;&#160;&#160;&#160;</text>
<text xml:space="preserve" text-anchor="start" x="959.75" y="-30.55" font-family="Helvetica,sans-Serif" font-weight="bold" font-size="11.00">Grid</text>
<text xml:space="preserve" text-anchor="start" x="982.25" y="-30.55" font-family="Helvetica,sans-Serif" font-size="11.00"> &#160;&#160;&#160;</text>
</g>
<!-- HighlightTable -->
<g id="node13" class="node">
<title>HighlightTable</title>
<path fill="#eadbff" stroke="#7a4cc2" stroke-width="1.2" d="M1133.52,-52C1133.52,-52 1034.48,-52 1034.48,-52 1028.48,-52 1022.49,-46 1022.49,-40 1022.49,-40 1022.49,-28 1022.49,-28 1022.49,-22 1028.48,-16 1034.48,-16 1034.48,-16 1133.52,-16 1133.52,-16 1139.52,-16 1145.52,-22 1145.52,-28 1145.52,-28 1145.52,-40 1145.52,-40 1145.52,-46 1139.52,-52 1133.52,-52"/>
<text xml:space="preserve" text-anchor="start" x="1031.12" y="-30.55" font-family="Helvetica,sans-Serif" font-size="11.00"> &#160;&#160;&#160;&#160;&#160;</text>
<text xml:space="preserve" text-anchor="start" x="1049.12" y="-30.55" font-family="Helvetica,sans-Serif" font-weight="bold" font-size="11.00">HighlightTable</text>
<text xml:space="preserve" text-anchor="start" x="1124.88" y="-30.55" font-family="Helvetica,sans-Serif" font-size="11.00"> &#160;&#160;&#160;</text>
</g>
<!-- GridRenderingPipeline -->
<g id="node14" class="node">
<title>GridRenderingPipeline</title>
<path fill="#eadbff" stroke="#7a4cc2" stroke-width="1.2" d="M1320.27,-52C1320.27,-52 1177.73,-52 1177.73,-52 1171.73,-52 1165.73,-46 1165.73,-40 1165.73,-40 1165.73,-28 1165.73,-28 1165.73,-22 1171.73,-16 1177.73,-16 1177.73,-16 1320.27,-16 1320.27,-16 1326.27,-16 1332.27,-22 1332.27,-28 1332.27,-28 1332.27,-40 1332.27,-40 1332.27,-46 1326.27,-52 1320.27,-52"/>
<text xml:space="preserve" text-anchor="start" x="1174.38" y="-30.55" font-family="Helvetica,sans-Serif" font-size="11.00"> &#160;&#160;&#160;&#160;&#160;</text>
<text xml:space="preserve" text-anchor="start" x="1192.38" y="-30.55" font-family="Helvetica,sans-Serif" font-weight="bold" font-size="11.00">GridRenderingPipeline</text>
<text xml:space="preserve" text-anchor="start" x="1311.62" y="-30.55" font-family="Helvetica,sans-Serif" font-size="11.00"> &#160;&#160;&#160;</text>
</g>
<!-- GridRenderingPipeline&#45;&gt;TextService -->
<g id="edge45" class="edge">
<title>GridRenderingPipeline&#45;&gt;TextService</title>
<path fill="none" stroke="#94a3b8" stroke-width="1.1" d="M1269.64,-52.27C1297.04,-76.52 1342,-116.31 1342,-116.31 1342,-116.31 2331,-116.31 2331,-116.31 2331,-116.31 2356.19,-83.91 2374.97,-59.77"/>
<polygon fill="#94a3b8" stroke="#94a3b8" stroke-width="1.1" points="2377.07,-61.62 2379.77,-53.58 2372.65,-58.18 2377.07,-61.62"/>
<text xml:space="preserve" text-anchor="middle" x="1474" y="-135.25" font-family="Helvetica,sans-Serif" font-size="10.00">uses shaping + atlas</text>
</g>
<!-- CursorBlinker -->
<g id="node15" class="node">
<title>CursorBlinker</title>
<path fill="#eadbff" stroke="#7a4cc2" stroke-width="1.2" d="M1461.77,-52C1461.77,-52 1364.23,-52 1364.23,-52 1358.23,-52 1352.23,-46 1352.23,-40 1352.23,-40 1352.23,-28 1352.23,-28 1352.23,-22 1358.23,-16 1364.23,-16 1364.23,-16 1461.77,-16 1461.77,-16 1467.77,-16 1473.77,-22 1473.77,-28 1473.77,-28 1473.77,-40 1473.77,-40 1473.77,-46 1467.77,-52 1461.77,-52"/>
<text xml:space="preserve" text-anchor="start" x="1360.88" y="-30.55" font-family="Helvetica,sans-Serif" font-size="11.00"> &#160;&#160;&#160;&#160;&#160;</text>
<text xml:space="preserve" text-anchor="start" x="1378.88" y="-30.55" font-family="Helvetica,sans-Serif" font-weight="bold" font-size="11.00">CursorBlinker</text>
<text xml:space="preserve" text-anchor="start" x="1453.12" y="-30.55" font-family="Helvetica,sans-Serif" font-size="11.00"> &#160;&#160;&#160;</text>
</g>
<!-- VtParser -->
<g id="node16" class="node">
<title>VtParser</title>
<path fill="#eadbff" stroke="#7a4cc2" stroke-width="1.2" d="M1574.52,-52C1574.52,-52 1505.48,-52 1505.48,-52 1499.48,-52 1493.48,-46 1493.48,-40 1493.48,-40 1493.48,-28 1493.48,-28 1493.48,-22 1499.48,-16 1505.48,-16 1505.48,-16 1574.52,-16 1574.52,-16 1580.52,-16 1586.52,-22 1586.52,-28 1586.52,-28 1586.52,-40 1586.52,-40 1586.52,-46 1580.52,-52 1574.52,-52"/>
<text xml:space="preserve" text-anchor="start" x="1502.12" y="-30.55" font-family="Helvetica,sans-Serif" font-size="11.00"> &#160;&#160;&#160;&#160;&#160;</text>
<text xml:space="preserve" text-anchor="start" x="1520.12" y="-30.55" font-family="Helvetica,sans-Serif" font-weight="bold" font-size="11.00">VtParser</text>
<text xml:space="preserve" text-anchor="start" x="1565.88" y="-30.55" font-family="Helvetica,sans-Serif" font-size="11.00"> &#160;&#160;&#160;</text>
</g>
<!-- VtState -->
<g id="node17" class="node">
<title>VtState</title>
<path fill="#eadbff" stroke="#7a4cc2" stroke-width="1.2" d="M1679.77,-52C1679.77,-52 1618.23,-52 1618.23,-52 1612.23,-52 1606.23,-46 1606.23,-40 1606.23,-40 1606.23,-28 1606.23,-28 1606.23,-22 1612.23,-16 1618.23,-16 1618.23,-16 1679.77,-16 1679.77,-16 1685.77,-16 1691.77,-22 1691.77,-28 1691.77,-28 1691.77,-40 1691.77,-40 1691.77,-46 1685.77,-52 1679.77,-52"/>
<text xml:space="preserve" text-anchor="start" x="1614.88" y="-30.55" font-family="Helvetica,sans-Serif" font-size="11.00"> &#160;&#160;&#160;&#160;&#160;</text>
<text xml:space="preserve" text-anchor="start" x="1632.88" y="-30.55" font-family="Helvetica,sans-Serif" font-weight="bold" font-size="11.00">VtState</text>
<text xml:space="preserve" text-anchor="start" x="1671.12" y="-30.55" font-family="Helvetica,sans-Serif" font-size="11.00"> &#160;&#160;&#160;</text>
</g>
<!-- AltScreenManager -->
<g id="node18" class="node">
<title>AltScreenManager</title>
<path fill="#eadbff" stroke="#7a4cc2" stroke-width="1.2" d="M1844.02,-52C1844.02,-52 1723.98,-52 1723.98,-52 1717.98,-52 1711.98,-46 1711.98,-40 1711.98,-40 1711.98,-28 1711.98,-28 1711.98,-22 1717.98,-16 1723.98,-16 1723.98,-16 1844.02,-16 1844.02,-16 1850.02,-16 1856.02,-22 1856.02,-28 1856.02,-28 1856.02,-40 1856.02,-40 1856.02,-46 1850.02,-52 1844.02,-52"/>
<text xml:space="preserve" text-anchor="start" x="1720.62" y="-30.55" font-family="Helvetica,sans-Serif" font-size="11.00"> &#160;&#160;&#160;&#160;&#160;</text>
<text xml:space="preserve" text-anchor="start" x="1738.62" y="-30.55" font-family="Helvetica,sans-Serif" font-weight="bold" font-size="11.00">AltScreenManager</text>
<text xml:space="preserve" text-anchor="start" x="1835.38" y="-30.55" font-family="Helvetica,sans-Serif" font-size="11.00"> &#160;&#160;&#160;</text>
</g>
<!-- MouseReporter -->
<g id="node19" class="node">
<title>MouseReporter</title>
<path fill="#eadbff" stroke="#7a4cc2" stroke-width="1.2" d="M1992.14,-52C1992.14,-52 1887.86,-52 1887.86,-52 1881.86,-52 1875.86,-46 1875.86,-40 1875.86,-40 1875.86,-28 1875.86,-28 1875.86,-22 1881.86,-16 1887.86,-16 1887.86,-16 1992.14,-16 1992.14,-16 1998.14,-16 2004.14,-22 2004.14,-28 2004.14,-28 2004.14,-40 2004.14,-40 2004.14,-46 1998.14,-52 1992.14,-52"/>
<text xml:space="preserve" text-anchor="start" x="1884.5" y="-30.55" font-family="Helvetica,sans-Serif" font-size="11.00"> &#160;&#160;&#160;&#160;&#160;</text>
<text xml:space="preserve" text-anchor="start" x="1902.5" y="-30.55" font-family="Helvetica,sans-Serif" font-weight="bold" font-size="11.00">MouseReporter</text>
<text xml:space="preserve" text-anchor="start" x="1983.5" y="-30.55" font-family="Helvetica,sans-Serif" font-size="11.00"> &#160;&#160;&#160;</text>
</g>
<!-- SelectionManager -->
<g id="node20" class="node">
<title>SelectionManager</title>
<path fill="#eadbff" stroke="#7a4cc2" stroke-width="1.2" d="M2153.51,-52C2153.51,-52 2036.48,-52 2036.48,-52 2030.48,-52 2024.48,-46 2024.48,-40 2024.48,-40 2024.48,-28 2024.48,-28 2024.48,-22 2030.48,-16 2036.48,-16 2036.48,-16 2153.51,-16 2153.51,-16 2159.51,-16 2165.51,-22 2165.51,-28 2165.51,-28 2165.51,-40 2165.51,-40 2165.51,-46 2159.51,-52 2153.51,-52"/>
<text xml:space="preserve" text-anchor="start" x="2033.12" y="-30.55" font-family="Helvetica,sans-Serif" font-size="11.00"> &#160;&#160;&#160;&#160;&#160;</text>
<text xml:space="preserve" text-anchor="start" x="2051.12" y="-30.55" font-family="Helvetica,sans-Serif" font-weight="bold" font-size="11.00">SelectionManager</text>
<text xml:space="preserve" text-anchor="start" x="2144.88" y="-30.55" font-family="Helvetica,sans-Serif" font-size="11.00"> &#160;&#160;&#160;</text>
</g>
<!-- ScrollbackBuffer -->
<g id="node21" class="node">
<title>ScrollbackBuffer</title>
<path fill="#eadbff" stroke="#7a4cc2" stroke-width="1.2" d="M2308.89,-52C2308.89,-52 2197.11,-52 2197.11,-52 2191.11,-52 2185.11,-46 2185.11,-40 2185.11,-40 2185.11,-28 2185.11,-28 2185.11,-22 2191.11,-16 2197.11,-16 2197.11,-16 2308.89,-16 2308.89,-16 2314.89,-16 2320.89,-22 2320.89,-28 2320.89,-28 2320.89,-40 2320.89,-40 2320.89,-46 2314.89,-52 2308.89,-52"/>
<text xml:space="preserve" text-anchor="start" x="2193.75" y="-30.55" font-family="Helvetica,sans-Serif" font-size="11.00"> &#160;&#160;&#160;&#160;&#160;</text>
<text xml:space="preserve" text-anchor="start" x="2211.75" y="-30.55" font-family="Helvetica,sans-Serif" font-weight="bold" font-size="11.00">ScrollbackBuffer</text>
<text xml:space="preserve" text-anchor="start" x="2300.25" y="-30.55" font-family="Helvetica,sans-Serif" font-size="11.00"> &#160;&#160;&#160;</text>
</g>
<!-- NvimProcess -->
<g id="node22" class="node">
<title>NvimProcess</title>
<path fill="#eadbff" stroke="#7a4cc2" stroke-width="1.2" d="M121.51,-52C121.51,-52 28.48,-52 28.48,-52 22.48,-52 16.48,-46 16.48,-40 16.48,-40 16.48,-28 16.48,-28 16.48,-22 22.48,-16 28.48,-16 28.48,-16 121.51,-16 121.51,-16 127.51,-16 133.51,-22 133.51,-28 133.51,-28 133.51,-40 133.51,-40 133.51,-46 127.51,-52 121.51,-52"/>
<text xml:space="preserve" text-anchor="start" x="25.12" y="-30.55" font-family="Helvetica,sans-Serif" font-size="11.00"> &#160;&#160;&#160;&#160;&#160;</text>
<text xml:space="preserve" text-anchor="start" x="43.12" y="-30.55" font-family="Helvetica,sans-Serif" font-weight="bold" font-size="11.00">NvimProcess</text>
<text xml:space="preserve" text-anchor="start" x="112.88" y="-30.55" font-family="Helvetica,sans-Serif" font-size="11.00"> &#160;&#160;&#160;</text>
</g>
<!-- NvimRpc -->
<g id="node23" class="node">
<title>NvimRpc</title>
<path fill="#eadbff" stroke="#7a4cc2" stroke-width="1.2" d="M296.64,-52C296.64,-52 225.36,-52 225.36,-52 219.36,-52 213.36,-46 213.36,-40 213.36,-40 213.36,-28 213.36,-28 213.36,-22 219.36,-16 225.36,-16 225.36,-16 296.64,-16 296.64,-16 302.64,-16 308.64,-22 308.64,-28 308.64,-28 308.64,-40 308.64,-40 308.64,-46 302.64,-52 296.64,-52"/>
<text xml:space="preserve" text-anchor="start" x="222" y="-30.55" font-family="Helvetica,sans-Serif" font-size="11.00"> &#160;&#160;&#160;&#160;&#160;</text>
<text xml:space="preserve" text-anchor="start" x="240" y="-30.55" font-family="Helvetica,sans-Serif" font-weight="bold" font-size="11.00">NvimRpc</text>
<text xml:space="preserve" text-anchor="start" x="288" y="-30.55" font-family="Helvetica,sans-Serif" font-size="11.00"> &#160;&#160;&#160;</text>
</g>
<!-- NvimRpc&#45;&gt;NvimProcess -->
<g id="edge46" class="edge">
<title>NvimRpc&#45;&gt;NvimProcess</title>
<path fill="none" stroke="#94a3b8" stroke-width="1.1" d="M212.93,-34C191.78,-34 166.56,-34 143.5,-34"/>
<polygon fill="#94a3b8" stroke="#94a3b8" stroke-width="1.1" points="143.77,-31.2 135.77,-34 143.77,-36.8 143.77,-31.2"/>
<text xml:space="preserve" text-anchor="middle" x="173.44" y="-38.75" font-family="Helvetica,sans-Serif" font-size="10.00">transport over</text>
</g>
<!-- UiEventHandler -->
<g id="node24" class="node">
<title>UiEventHandler</title>
<path fill="#eadbff" stroke="#7a4cc2" stroke-width="1.2" d="M446.89,-52C446.89,-52 341.11,-52 341.11,-52 335.11,-52 329.11,-46 329.11,-40 329.11,-40 329.11,-28 329.11,-28 329.11,-22 335.11,-16 341.11,-16 341.11,-16 446.89,-16 446.89,-16 452.89,-16 458.89,-22 458.89,-28 458.89,-28 458.89,-40 458.89,-40 458.89,-46 452.89,-52 446.89,-52"/>
<text xml:space="preserve" text-anchor="start" x="337.75" y="-30.55" font-family="Helvetica,sans-Serif" font-size="11.00"> &#160;&#160;&#160;&#160;&#160;</text>
<text xml:space="preserve" text-anchor="start" x="355.75" y="-30.55" font-family="Helvetica,sans-Serif" font-weight="bold" font-size="11.00">UiEventHandler</text>
<text xml:space="preserve" text-anchor="start" x="438.25" y="-30.55" font-family="Helvetica,sans-Serif" font-size="11.00"> &#160;&#160;&#160;</text>
</g>
<!-- UiEventHandler&#45;&gt;Grid -->
<g id="edge47" class="edge">
<title>UiEventHandler&#45;&gt;Grid</title>
<path fill="none" stroke="#94a3b8" stroke-width="1.1" d="M410.64,-52.27C432.74,-76.52 469,-116.31 469,-116.31 469,-116.31 922,-116.31 922,-116.31 922,-116.31 939.8,-84.47 953.25,-60.39"/>
<polygon fill="#94a3b8" stroke="#94a3b8" stroke-width="1.1" points="955.52,-62.07 956.98,-53.72 950.63,-59.34 955.52,-62.07"/>
<text xml:space="preserve" text-anchor="middle" x="689" y="-135.25" font-family="Helvetica,sans-Serif" font-size="10.00">writes redraws</text>
</g>
<!-- UiEventHandler&#45;&gt;HighlightTable -->
<g id="edge48" class="edge">
<title>UiEventHandler&#45;&gt;HighlightTable</title>
<path fill="none" stroke="#94a3b8" stroke-width="1.1" d="M410.64,-52.27C432.74,-76.52 469,-116.31 469,-116.31 469,-116.31 1013,-116.31 1013,-116.31 1013,-116.31 1041.19,-83.63 1062.05,-59.45"/>
<polygon fill="#94a3b8" stroke="#94a3b8" stroke-width="1.1" points="1064.05,-61.42 1067.16,-53.53 1059.81,-57.76 1064.05,-61.42"/>
<text xml:space="preserve" text-anchor="middle" x="546" y="-135.25" font-family="Helvetica,sans-Serif" font-size="10.00">updates attrs</text>
</g>
<!-- NvimInput -->
<g id="node25" class="node">
<title>NvimInput</title>
<path fill="#eadbff" stroke="#7a4cc2" stroke-width="1.2" d="M568.64,-52C568.64,-52 491.36,-52 491.36,-52 485.36,-52 479.36,-46 479.36,-40 479.36,-40 479.36,-28 479.36,-28 479.36,-22 485.36,-16 491.36,-16 491.36,-16 568.64,-16 568.64,-16 574.64,-16 580.64,-22 580.64,-28 580.64,-28 580.64,-40 580.64,-40 580.64,-46 574.64,-52 568.64,-52"/>
<text xml:space="preserve" text-anchor="start" x="488" y="-30.55" font-family="Helvetica,sans-Serif" font-size="11.00"> &#160;&#160;&#160;&#160;&#160;</text>
<text xml:space="preserve" text-anchor="start" x="506" y="-30.55" font-family="Helvetica,sans-Serif" font-weight="bold" font-size="11.00">NvimInput</text>
<text xml:space="preserve" text-anchor="start" x="560" y="-30.55" font-family="Helvetica,sans-Serif" font-size="11.00"> &#160;&#160;&#160;</text>
</g>
<!-- NvimInput&#45;&gt;NvimRpc -->
<g id="edge49" class="edge">
<title>NvimInput&#45;&gt;NvimRpc</title>
<path fill="none" stroke="#94a3b8" stroke-width="1.1" d="M516.46,-52.27C498.49,-76.52 469,-116.31 469,-116.31 469,-116.31 319,-116.31 319,-116.31 319,-116.31 296.37,-84.19 279.38,-60.08"/>
<polygon fill="#94a3b8" stroke="#94a3b8" stroke-width="1.1" points="281.73,-58.56 274.83,-53.63 277.15,-61.78 281.73,-58.56"/>
<text xml:space="preserve" text-anchor="middle" x="434" y="-135.25" font-family="Helvetica,sans-Serif" font-size="10.00">sends input</text>
</g>
<!-- UiRequestWorker -->
<g id="node26" class="node">
<title>UiRequestWorker</title>
<path fill="#eadbff" stroke="#7a4cc2" stroke-width="1.2" d="M729.14,-52C729.14,-52 612.86,-52 612.86,-52 606.86,-52 600.86,-46 600.86,-40 600.86,-40 600.86,-28 600.86,-28 600.86,-22 606.86,-16 612.86,-16 612.86,-16 729.14,-16 729.14,-16 735.14,-16 741.14,-22 741.14,-28 741.14,-28 741.14,-40 741.14,-40 741.14,-46 735.14,-52 729.14,-52"/>
<text xml:space="preserve" text-anchor="start" x="609.5" y="-30.55" font-family="Helvetica,sans-Serif" font-size="11.00"> &#160;&#160;&#160;&#160;&#160;</text>
<text xml:space="preserve" text-anchor="start" x="627.5" y="-30.55" font-family="Helvetica,sans-Serif" font-weight="bold" font-size="11.00">UiRequestWorker</text>
<text xml:space="preserve" text-anchor="start" x="720.5" y="-30.55" font-family="Helvetica,sans-Serif" font-size="11.00"> &#160;&#160;&#160;</text>
</g>
<!-- UiRequestWorker&#45;&gt;NvimRpc -->
<g id="edge50" class="edge">
<title>UiRequestWorker&#45;&gt;NvimRpc</title>
<path fill="none" stroke="#94a3b8" stroke-width="1.1" d="M653.25,-52.27C629.68,-76.52 591,-116.31 591,-116.31 591,-116.31 319,-116.31 319,-116.31 319,-116.31 296.37,-84.19 279.38,-60.08"/>
<polygon fill="#94a3b8" stroke="#94a3b8" stroke-width="1.1" points="281.73,-58.56 274.83,-53.63 277.15,-61.78 281.73,-58.56"/>
<text xml:space="preserve" text-anchor="middle" x="370" y="-135.25" font-family="Helvetica,sans-Serif" font-size="10.00">async requests</text>
</g>
<!-- StartupResizeState -->
<g id="node27" class="node">
<title>StartupResizeState</title>
<path fill="#eadbff" stroke="#7a4cc2" stroke-width="1.2" d="M896.89,-52C896.89,-52 773.11,-52 773.11,-52 767.11,-52 761.11,-46 761.11,-40 761.11,-40 761.11,-28 761.11,-28 761.11,-22 767.11,-16 773.11,-16 773.11,-16 896.89,-16 896.89,-16 902.89,-16 908.89,-22 908.89,-28 908.89,-28 908.89,-40 908.89,-40 908.89,-46 902.89,-52 896.89,-52"/>
<text xml:space="preserve" text-anchor="start" x="769.75" y="-30.55" font-family="Helvetica,sans-Serif" font-size="11.00"> &#160;&#160;&#160;&#160;&#160;</text>
<text xml:space="preserve" text-anchor="start" x="787.75" y="-30.55" font-family="Helvetica,sans-Serif" font-weight="bold" font-size="11.00">StartupResizeState</text>
<text xml:space="preserve" text-anchor="start" x="888.25" y="-30.55" font-family="Helvetica,sans-Serif" font-size="11.00"> &#160;&#160;&#160;</text>
</g>
<!-- NvimHost&#45;&gt;Grid -->
<g id="edge15" class="edge">
<title>NvimHost&#45;&gt;Grid</title>
<path fill="none" stroke="#496057" stroke-width="1.1" stroke-dasharray="5,2" d="M940.3,-169.25C930.05,-165.05 922,-161.75 922,-161.75 922,-161.75 211.75,-144.75 211.75,-144.75 211.75,-144.75 211.75,-133.5 211.75,-133.5 211.75,-133.5 922,-125.5 922,-125.5 922,-125.5 941.35,-87.43 954.95,-60.68"/>
<polygon fill="#496057" stroke="#496057" stroke-width="1.1" points="958.52,-53.64 958.11,-62.41 957.36,-56.04 954.94,-60.8 954.9,-60.78 954.85,-60.75 957.27,-55.99 951.69,-59.14 958.52,-53.64"/>
<text xml:space="preserve" text-anchor="middle" x="223.38" y="-135.25" font-family="Helvetica,sans-Serif" font-size="10.00">owns</text>
</g>
<!-- NvimHost&#45;&gt;HighlightTable -->
<g id="edge16" class="edge">
<title>NvimHost&#45;&gt;HighlightTable</title>
<path fill="none" stroke="#496057" stroke-width="1.1" stroke-dasharray="5,2" d="M940.3,-169.25C930.05,-165.05 922,-161.75 922,-161.75 922,-161.75 259.75,-144.75 259.75,-144.75 259.75,-144.75 259.75,-133.5 259.75,-133.5 259.75,-133.5 1013,-125.5 1013,-125.5 1013,-125.5 1043.65,-86.44 1064.67,-59.64"/>
<polygon fill="#496057" stroke="#496057" stroke-width="1.1" points="1069.48,-53.5 1067.38,-62.02 1067.88,-55.63 1064.58,-59.83 1064.55,-59.8 1064.51,-59.77 1067.8,-55.57 1061.71,-57.58 1069.48,-53.5"/>
<text xml:space="preserve" text-anchor="middle" x="271.38" y="-135.25" font-family="Helvetica,sans-Serif" font-size="10.00">owns</text>
</g>
<!-- NvimHost&#45;&gt;GridRenderingPipeline -->
<g id="edge17" class="edge">
<title>NvimHost&#45;&gt;GridRenderingPipeline</title>
<path fill="none" stroke="#496057" stroke-width="1.1" stroke-dasharray="5,2" d="M940.3,-169.25C930.05,-165.05 922,-161.75 922,-161.75 922,-161.75 308.75,-144.75 308.75,-144.75 308.75,-144.75 308.75,-133.5 308.75,-133.5 308.75,-133.5 1156,-125.5 1156,-125.5 1156,-125.5 1196.83,-85.77 1224.38,-58.96"/>
<polygon fill="#496057" stroke="#496057" stroke-width="1.1" points="1230.11,-53.38 1226.89,-61.54 1228.24,-55.27 1224.41,-59 1224.37,-58.96 1224.34,-58.93 1228.17,-55.2 1221.86,-56.38 1230.11,-53.38"/>
<text xml:space="preserve" text-anchor="middle" x="320.38" y="-135.25" font-family="Helvetica,sans-Serif" font-size="10.00">owns</text>
</g>
<!-- NvimHost&#45;&gt;CursorBlinker -->
<g id="edge18" class="edge">
<title>NvimHost&#45;&gt;CursorBlinker</title>
<path fill="none" stroke="#496057" stroke-width="1.1" stroke-dasharray="5,2" d="M940.3,-169.25C930.05,-165.05 922,-161.75 922,-161.75 922,-161.75 824.75,-144.75 824.75,-144.75 824.75,-144.75 824.75,-133.5 824.75,-133.5 824.75,-133.5 1342,-125.5 1342,-125.5 1342,-125.5 1372.65,-86.44 1393.67,-59.64"/>
<polygon fill="#496057" stroke="#496057" stroke-width="1.1" points="1398.48,-53.5 1396.38,-62.02 1396.88,-55.63 1393.58,-59.83 1393.55,-59.8 1393.51,-59.77 1396.8,-55.57 1390.71,-57.58 1398.48,-53.5"/>
<text xml:space="preserve" text-anchor="middle" x="836.38" y="-135.25" font-family="Helvetica,sans-Serif" font-size="10.00">owns</text>
</g>
<!-- NvimHost&#45;&gt;NvimProcess -->
<g id="edge19" class="edge">
<title>NvimHost&#45;&gt;NvimProcess</title>
<path fill="none" stroke="#496057" stroke-width="1.1" stroke-dasharray="5,2" d="M940.3,-169.25C930.05,-165.05 922,-161.75 922,-161.75 922,-161.75 43.75,-144.75 43.75,-144.75 43.75,-144.75 43.75,-133.5 43.75,-133.5 43.75,-133.5 57.59,-89.87 66.85,-60.69"/>
<polygon fill="#496057" stroke="#496057" stroke-width="1.1" points="69.15,-53.43 70.16,-62.15 68.39,-55.99 66.78,-61.08 66.73,-61.06 66.68,-61.05 68.3,-55.95 63.3,-59.97 69.15,-53.43"/>
<text xml:space="preserve" text-anchor="middle" x="55.38" y="-135.25" font-family="Helvetica,sans-Serif" font-size="10.00">owns</text>
</g>
<!-- NvimHost&#45;&gt;NvimRpc -->
<g id="edge20" class="edge">
<title>NvimHost&#45;&gt;NvimRpc</title>
<path fill="none" stroke="#496057" stroke-width="1.1" stroke-dasharray="5,2" d="M940.3,-169.25C930.05,-165.05 922,-161.75 922,-161.75 922,-161.75 71.75,-144.75 71.75,-144.75 71.75,-144.75 71.75,-133.5 71.75,-133.5 71.75,-133.5 144,-125.5 144,-125.5 144,-125.5 196.68,-84.75 231.34,-57.94"/>
<polygon fill="#496057" stroke="#496057" stroke-width="1.1" points="237.38,-53.27 233.26,-61.01 235.31,-54.94 231.08,-58.2 231.05,-58.16 231.02,-58.12 235.25,-54.86 228.85,-55.32 237.38,-53.27"/>
<text xml:space="preserve" text-anchor="middle" x="83.38" y="-135.25" font-family="Helvetica,sans-Serif" font-size="10.00">owns</text>
</g>
<!-- NvimHost&#45;&gt;UiEventHandler -->
<g id="edge21" class="edge">
<title>NvimHost&#45;&gt;UiEventHandler</title>
<path fill="none" stroke="#496057" stroke-width="1.1" stroke-dasharray="5,2" d="M940.3,-169.25C930.05,-165.05 922,-161.75 922,-161.75 922,-161.75 99.75,-144.75 99.75,-144.75 99.75,-144.75 99.75,-133.5 99.75,-133.5 99.75,-133.5 319,-125.5 319,-125.5 319,-125.5 351.37,-86.44 373.58,-59.64"/>
<polygon fill="#496057" stroke="#496057" stroke-width="1.1" points="378.68,-53.48 376.35,-61.94 377.03,-55.56 373.62,-59.67 373.58,-59.64 373.54,-59.61 376.95,-55.5 370.81,-57.34 378.68,-53.48"/>
<text xml:space="preserve" text-anchor="middle" x="111.38" y="-135.25" font-family="Helvetica,sans-Serif" font-size="10.00">owns</text>
</g>
<!-- NvimHost&#45;&gt;NvimInput -->
<g id="edge22" class="edge">
<title>NvimHost&#45;&gt;NvimInput</title>
<path fill="none" stroke="#496057" stroke-width="1.1" stroke-dasharray="5,2" d="M940.3,-169.25C930.05,-165.05 922,-161.75 922,-161.75 922,-161.75 127.75,-144.75 127.75,-144.75 127.75,-144.75 127.75,-133.5 127.75,-133.5 127.75,-133.5 469,-125.5 469,-125.5 469,-125.5 495.1,-86.77 513.16,-59.98"/>
<polygon fill="#496057" stroke="#496057" stroke-width="1.1" points="517.49,-53.56 516,-62.21 516.04,-55.79 513.06,-60.22 513.02,-60.19 512.98,-60.17 515.96,-55.74 510.03,-58.18 517.49,-53.56"/>
<text xml:space="preserve" text-anchor="middle" x="139.38" y="-135.25" font-family="Helvetica,sans-Serif" font-size="10.00">owns</text>
</g>
<!-- NvimHost&#45;&gt;UiRequestWorker -->
<g id="edge23" class="edge">
<title>NvimHost&#45;&gt;UiRequestWorker</title>
<path fill="none" stroke="#496057" stroke-width="1.1" stroke-dasharray="5,2" d="M940.3,-169.25C930.05,-165.05 922,-161.75 922,-161.75 922,-161.75 155.75,-144.75 155.75,-144.75 155.75,-144.75 155.75,-133.5 155.75,-133.5 155.75,-133.5 591,-125.5 591,-125.5 591,-125.5 625.83,-86.1 649.52,-59.3"/>
<polygon fill="#496057" stroke="#496057" stroke-width="1.1" points="654.69,-53.45 652.09,-61.83 652.96,-55.48 649.43,-59.48 649.39,-59.45 649.35,-59.41 652.89,-55.41 646.69,-57.06 654.69,-53.45"/>
<text xml:space="preserve" text-anchor="middle" x="167.38" y="-135.25" font-family="Helvetica,sans-Serif" font-size="10.00">owns</text>
</g>
<!-- NvimHost&#45;&gt;StartupResizeState -->
<g id="edge24" class="edge">
<title>NvimHost&#45;&gt;StartupResizeState</title>
<path fill="none" stroke="#496057" stroke-width="1.1" stroke-dasharray="5,2" d="M940.3,-169.25C930.05,-165.05 922,-161.75 922,-161.75 922,-161.75 183.75,-144.75 183.75,-144.75 183.75,-144.75 183.75,-133.5 183.75,-133.5 183.75,-133.5 751,-125.5 751,-125.5 751,-125.5 787.88,-85.77 812.77,-58.96"/>
<polygon fill="#496057" stroke="#496057" stroke-width="1.1" points="817.89,-53.43 815.09,-61.74 816.12,-55.42 812.49,-59.33 812.45,-59.3 812.41,-59.26 816.05,-55.35 809.81,-56.85 817.89,-53.43"/>
<text xml:space="preserve" text-anchor="middle" x="195.38" y="-135.25" font-family="Helvetica,sans-Serif" font-size="10.00">owns</text>
</g>
<!-- ShellHost&#45;&gt;Grid -->
<g id="edge25" class="edge">
<title>ShellHost&#45;&gt;Grid</title>
<path fill="none" stroke="#496057" stroke-width="1.1" stroke-dasharray="5,2" d="M1065.2,-169.25C1052.77,-165.05 1043,-161.75 1043,-161.75 1043,-161.75 853.25,-144.75 853.25,-144.75 853.25,-144.75 853.25,-133.5 853.25,-133.5 853.25,-133.5 922,-125.5 922,-125.5 922,-125.5 941.35,-87.43 954.95,-60.68"/>
<polygon fill="#496057" stroke="#496057" stroke-width="1.1" points="958.52,-53.64 958.11,-62.41 957.36,-56.04 954.94,-60.8 954.9,-60.78 954.85,-60.75 957.27,-55.99 951.69,-59.14 958.52,-53.64"/>
<text xml:space="preserve" text-anchor="middle" x="886.62" y="-135.25" font-family="Helvetica,sans-Serif" font-size="10.00">owns grid state</text>
</g>
<!-- ShellHost&#45;&gt;HighlightTable -->
<g id="edge26" class="edge">
<title>ShellHost&#45;&gt;HighlightTable</title>
<path fill="none" stroke="#496057" stroke-width="1.1" stroke-dasharray="5,2" d="M1065.2,-169.25C1052.77,-165.05 1043,-161.75 1043,-161.75 1043,-161.75 924.75,-144.75 924.75,-144.75 924.75,-144.75 924.75,-133.5 924.75,-133.5 924.75,-133.5 1013,-125.5 1013,-125.5 1013,-125.5 1043.65,-86.44 1064.67,-59.64"/>
<polygon fill="#496057" stroke="#496057" stroke-width="1.1" points="1069.48,-53.5 1067.38,-62.02 1067.88,-55.63 1064.58,-59.83 1064.55,-59.8 1064.51,-59.77 1067.8,-55.57 1061.71,-57.58 1069.48,-53.5"/>
<text xml:space="preserve" text-anchor="middle" x="936.38" y="-135.25" font-family="Helvetica,sans-Serif" font-size="10.00">owns</text>
</g>
<!-- ShellHost&#45;&gt;GridRenderingPipeline -->
<g id="edge27" class="edge">
<title>ShellHost&#45;&gt;GridRenderingPipeline</title>
<path fill="none" stroke="#496057" stroke-width="1.1" stroke-dasharray="5,2" d="M1065.2,-169.25C1052.77,-165.05 1043,-161.75 1043,-161.75 1043,-161.75 972.75,-144.75 972.75,-144.75 972.75,-144.75 972.75,-133.5 972.75,-133.5 972.75,-133.5 1156,-125.5 1156,-125.5 1156,-125.5 1196.83,-85.77 1224.38,-58.96"/>
<polygon fill="#496057" stroke="#496057" stroke-width="1.1" points="1230.11,-53.38 1226.89,-61.54 1228.24,-55.27 1224.41,-59 1224.37,-58.96 1224.34,-58.93 1228.17,-55.2 1221.86,-56.38 1230.11,-53.38"/>
<text xml:space="preserve" text-anchor="middle" x="984.38" y="-135.25" font-family="Helvetica,sans-Serif" font-size="10.00">owns</text>
</g>
<!-- ShellHost&#45;&gt;CursorBlinker -->
<g id="edge28" class="edge">
<title>ShellHost&#45;&gt;CursorBlinker</title>
<path fill="none" stroke="#496057" stroke-width="1.1" stroke-dasharray="5,2" d="M1076.74,-169.18C1050.36,-157.67 1020.75,-144.75 1020.75,-144.75 1020.75,-144.75 1020.75,-133.5 1020.75,-133.5 1020.75,-133.5 1342,-125.5 1342,-125.5 1342,-125.5 1372.65,-86.44 1393.67,-59.64"/>
<polygon fill="#496057" stroke="#496057" stroke-width="1.1" points="1398.48,-53.5 1396.38,-62.02 1396.88,-55.63 1393.58,-59.83 1393.55,-59.8 1393.51,-59.77 1396.8,-55.57 1390.71,-57.58 1398.48,-53.5"/>
<text xml:space="preserve" text-anchor="middle" x="1032.38" y="-135.25" font-family="Helvetica,sans-Serif" font-size="10.00">owns</text>
</g>
<!-- ShellHost&#45;&gt;VtParser -->
<g id="edge29" class="edge">
<title>ShellHost&#45;&gt;VtParser</title>
<path fill="none" stroke="#496057" stroke-width="1.1" stroke-dasharray="5,2" d="M1096.82,-169.18C1083.6,-157.67 1068.75,-144.75 1068.75,-144.75 1068.75,-144.75 1068.75,-133.5 1068.75,-133.5 1068.75,-133.5 1484,-125.5 1484,-125.5 1484,-125.5 1507.76,-87.1 1524.33,-60.33"/>
<polygon fill="#496057" stroke="#496057" stroke-width="1.1" points="1528.5,-53.59 1527.35,-62.29 1527.14,-55.88 1524.33,-60.42 1524.29,-60.39 1524.25,-60.37 1527.06,-55.82 1521.23,-58.5 1528.5,-53.59"/>
<text xml:space="preserve" text-anchor="middle" x="1080.38" y="-135.25" font-family="Helvetica,sans-Serif" font-size="10.00">owns</text>
</g>
<!-- ShellHost&#45;&gt;VtState -->
<g id="edge30" class="edge">
<title>ShellHost&#45;&gt;VtState</title>
<path fill="none" stroke="#496057" stroke-width="1.1" stroke-dasharray="5,2" d="M1116.9,-169.18C1116.83,-157.67 1116.75,-144.75 1116.75,-144.75 1116.75,-144.75 1116.75,-133.5 1116.75,-133.5 1116.75,-133.5 1597,-125.5 1597,-125.5 1597,-125.5 1619.06,-87.1 1634.45,-60.33"/>
<polygon fill="#496057" stroke="#496057" stroke-width="1.1" points="1638.31,-53.61 1637.44,-62.34 1637.02,-55.94 1634.36,-60.57 1634.32,-60.55 1634.28,-60.52 1636.94,-55.89 1631.2,-58.75 1638.31,-53.61"/>
<text xml:space="preserve" text-anchor="middle" x="1128.38" y="-135.25" font-family="Helvetica,sans-Serif" font-size="10.00">owns</text>
</g>
<!-- ShellHost&#45;&gt;AltScreenManager -->
<g id="edge31" class="edge">
<title>ShellHost&#45;&gt;AltScreenManager</title>
<path fill="none" stroke="#496057" stroke-width="1.1" stroke-dasharray="5,2" d="M1132.64,-169.31C1146.56,-153.78 1164.75,-133.5 1164.75,-133.5 1164.75,-133.5 1702,-125.5 1702,-125.5 1702,-125.5 1737.7,-86.1 1761.99,-59.3"/>
<polygon fill="#496057" stroke="#496057" stroke-width="1.1" points="1767.29,-53.44 1764.59,-61.79 1765.54,-55.45 1761.96,-59.4 1761.92,-59.37 1761.88,-59.34 1765.47,-55.38 1759.25,-56.95 1767.29,-53.44"/>
<text xml:space="preserve" text-anchor="middle" x="1176.38" y="-135.25" font-family="Helvetica,sans-Serif" font-size="10.00">owns</text>
</g>
<!-- ShellHost&#45;&gt;MouseReporter -->
<g id="edge32" class="edge">
<title>ShellHost&#45;&gt;MouseReporter</title>
<path fill="none" stroke="#496057" stroke-width="1.1" stroke-dasharray="5,2" d="M1148.62,-169.17C1176.51,-153.66 1212.75,-133.5 1212.75,-133.5 1212.75,-133.5 1866,-125.5 1866,-125.5 1866,-125.5 1897.94,-86.44 1919.85,-59.64"/>
<polygon fill="#496057" stroke="#496057" stroke-width="1.1" points="1924.88,-53.49 1922.61,-61.96 1923.24,-55.58 1919.86,-59.71 1919.82,-59.68 1919.78,-59.65 1923.16,-55.51 1917.03,-57.4 1924.88,-53.49"/>
<text xml:space="preserve" text-anchor="middle" x="1224.38" y="-135.25" font-family="Helvetica,sans-Serif" font-size="10.00">owns</text>
</g>
<!-- ShellHost&#45;&gt;SelectionManager -->
<g id="edge33" class="edge">
<title>ShellHost&#45;&gt;SelectionManager</title>
<path fill="none" stroke="#496057" stroke-width="1.1" stroke-dasharray="5,2" d="M1167.2,-169.18C1200.08,-157.67 1237,-144.75 1237,-144.75 1237,-144.75 1260.75,-133.5 1260.75,-133.5 1260.75,-133.5 2014,-125.5 2014,-125.5 2014,-125.5 2049.26,-86.1 2073.25,-59.3"/>
<polygon fill="#496057" stroke="#496057" stroke-width="1.1" points="2078.49,-53.45 2075.84,-61.81 2076.75,-55.46 2073.19,-59.44 2073.15,-59.41 2073.12,-59.38 2076.68,-55.4 2070.47,-57.01 2078.49,-53.45"/>
<text xml:space="preserve" text-anchor="middle" x="1272.38" y="-135.25" font-family="Helvetica,sans-Serif" font-size="10.00">owns</text>
</g>
<!-- ShellHost&#45;&gt;ScrollbackBuffer -->
<g id="edge34" class="edge">
<title>ShellHost&#45;&gt;ScrollbackBuffer</title>
<path fill="none" stroke="#496057" stroke-width="1.1" stroke-dasharray="5,2" d="M1168.8,-169.25C1181.23,-165.05 1191,-161.75 1191,-161.75 1191,-161.75 1285,-144.75 1285,-144.75 1285,-144.75 1304.75,-133.5 1304.75,-133.5 1304.75,-133.5 2176,-125.5 2176,-125.5 2176,-125.5 2209.52,-86.1 2232.33,-59.3"/>
<polygon fill="#496057" stroke="#496057" stroke-width="1.1" points="2237.29,-53.47 2234.84,-61.9 2235.6,-55.53 2232.14,-59.6 2232.1,-59.56 2232.06,-59.53 2235.52,-55.46 2229.36,-57.23 2237.29,-53.47"/>
<text xml:space="preserve" text-anchor="middle" x="1316.38" y="-135.25" font-family="Helvetica,sans-Serif" font-size="10.00">owns</text>
</g>
<!-- PowerShellHost&#45;&gt;Grid -->
<g id="edge35" class="edge">
<title>PowerShellHost&#45;&gt;Grid</title>
<path fill="none" stroke="#496057" stroke-width="1.1" stroke-dasharray="5,2" d="M1294.61,-169.18C1312.69,-157.67 1333,-144.75 1333,-144.75 1333,-144.75 1333,-133.5 1333,-133.5 1333,-133.5 1012,-125.5 1012,-125.5 1012,-125.5 993.49,-87.43 980.48,-60.68"/>
<polygon fill="#496057" stroke="#496057" stroke-width="1.1" points="977.07,-53.65 983.81,-59.28 978.28,-56.02 980.61,-60.83 980.57,-60.85 980.52,-60.87 978.19,-56.07 977.33,-62.42 977.07,-53.65"/>
<text xml:space="preserve" text-anchor="middle" x="1366.38" y="-135.25" font-family="Helvetica,sans-Serif" font-size="10.00">owns grid state</text>
</g>
<!-- PowerShellHost&#45;&gt;HighlightTable -->
<g id="edge36" class="edge">
<title>PowerShellHost&#45;&gt;HighlightTable</title>
<path fill="none" stroke="#496057" stroke-width="1.1" stroke-dasharray="5,2" d="M1320.2,-169.25C1332.97,-165.05 1343,-161.75 1343,-161.75 1343,-161.75 1520,-144.75 1520,-144.75 1520,-144.75 1520,-133.5 1520,-133.5 1520,-133.5 1156,-125.5 1156,-125.5 1156,-125.5 1124.92,-86.44 1103.6,-59.64"/>
<polygon fill="#496057" stroke="#496057" stroke-width="1.1" points="1098.72,-53.5 1106.51,-57.52 1100.41,-55.55 1103.74,-59.73 1103.7,-59.76 1103.66,-59.79 1100.33,-55.61 1100.88,-62 1098.72,-53.5"/>
<text xml:space="preserve" text-anchor="middle" x="1531.62" y="-135.25" font-family="Helvetica,sans-Serif" font-size="10.00">owns</text>
</g>
<!-- PowerShellHost&#45;&gt;GridRenderingPipeline -->
<g id="edge37" class="edge">
<title>PowerShellHost&#45;&gt;GridRenderingPipeline</title>
<path fill="none" stroke="#496057" stroke-width="1.1" stroke-dasharray="5,2" d="M1320.2,-169.25C1332.97,-165.05 1343,-161.75 1343,-161.75 1343,-161.75 1568,-144.75 1568,-144.75 1568,-144.75 1568,-133.5 1568,-133.5 1568,-133.5 1342,-125.5 1342,-125.5 1342,-125.5 1301.17,-85.77 1273.62,-58.96"/>
<polygon fill="#496057" stroke="#496057" stroke-width="1.1" points="1267.89,-53.38 1276.14,-56.38 1269.83,-55.2 1273.66,-58.93 1273.63,-58.96 1273.59,-59 1269.76,-55.27 1271.11,-61.54 1267.89,-53.38"/>
<text xml:space="preserve" text-anchor="middle" x="1579.62" y="-135.25" font-family="Helvetica,sans-Serif" font-size="10.00">owns</text>
</g>
<!-- PowerShellHost&#45;&gt;CursorBlinker -->
<g id="edge38" class="edge">
<title>PowerShellHost&#45;&gt;CursorBlinker</title>
<path fill="none" stroke="#496057" stroke-width="1.1" stroke-dasharray="5,2" d="M1320.2,-169.25C1332.97,-165.05 1343,-161.75 1343,-161.75 1343,-161.75 1596,-144.75 1596,-144.75 1596,-144.75 1596,-133.5 1596,-133.5 1596,-133.5 1483,-125.5 1483,-125.5 1483,-125.5 1452.79,-86.44 1432.06,-59.64"/>
<polygon fill="#496057" stroke="#496057" stroke-width="1.1" points="1427.32,-53.51 1435.06,-57.63 1428.98,-55.58 1432.25,-59.81 1432.21,-59.84 1432.17,-59.87 1428.9,-55.64 1429.36,-62.04 1427.32,-53.51"/>
<text xml:space="preserve" text-anchor="middle" x="1607.62" y="-135.25" font-family="Helvetica,sans-Serif" font-size="10.00">owns</text>
</g>
<!-- PowerShellHost&#45;&gt;VtParser -->
<g id="edge39" class="edge">
<title>PowerShellHost&#45;&gt;VtParser</title>
<path fill="none" stroke="#496057" stroke-width="1.1" stroke-dasharray="5,2" d="M1320.2,-169.25C1332.97,-165.05 1343,-161.75 1343,-161.75 1343,-161.75 1624,-144.75 1624,-144.75 1624,-144.75 1624,-133.5 1624,-133.5 1624,-133.5 1596,-125.5 1596,-125.5 1596,-125.5 1572.24,-87.1 1555.67,-60.33"/>
<polygon fill="#496057" stroke="#496057" stroke-width="1.1" points="1551.5,-53.59 1558.77,-58.5 1552.94,-55.82 1555.75,-60.37 1555.71,-60.39 1555.67,-60.42 1552.86,-55.88 1552.65,-62.29 1551.5,-53.59"/>
<text xml:space="preserve" text-anchor="middle" x="1635.62" y="-135.25" font-family="Helvetica,sans-Serif" font-size="10.00">owns</text>
</g>
<!-- PowerShellHost&#45;&gt;VtState -->
<g id="edge40" class="edge">
<title>PowerShellHost&#45;&gt;VtState</title>
<path fill="none" stroke="#496057" stroke-width="1.1" stroke-dasharray="5,2" d="M1320.2,-169.25C1332.97,-165.05 1343,-161.75 1343,-161.75 1343,-161.75 1652,-144.75 1652,-144.75 1652,-144.75 1652,-133.5 1652,-133.5 1652,-133.5 1650.69,-90.62 1649.81,-61.44"/>
<polygon fill="#496057" stroke="#496057" stroke-width="1.1" points="1649.56,-53.5 1653.41,-61.38 1649.69,-56.15 1649.86,-61.49 1649.81,-61.49 1649.76,-61.49 1649.59,-56.16 1646.21,-61.6 1649.56,-53.5"/>
<text xml:space="preserve" text-anchor="middle" x="1663.62" y="-135.25" font-family="Helvetica,sans-Serif" font-size="10.00">owns</text>
</g>
<!-- PowerShellHost&#45;&gt;AltScreenManager -->
<g id="edge41" class="edge">
<title>PowerShellHost&#45;&gt;AltScreenManager</title>
<path fill="none" stroke="#496057" stroke-width="1.1" stroke-dasharray="5,2" d="M1320.2,-169.25C1332.97,-165.05 1343,-161.75 1343,-161.75 1343,-161.75 1680,-144.75 1680,-144.75 1680,-144.75 1702,-125.5 1702,-125.5 1702,-125.5 1737.7,-86.1 1761.99,-59.3"/>
<polygon fill="#496057" stroke="#496057" stroke-width="1.1" points="1767.29,-53.44 1764.59,-61.79 1765.54,-55.45 1761.96,-59.4 1761.92,-59.37 1761.88,-59.34 1765.47,-55.38 1759.25,-56.95 1767.29,-53.44"/>
<text xml:space="preserve" text-anchor="middle" x="1703.94" y="-135.25" font-family="Helvetica,sans-Serif" font-size="10.00">owns</text>
</g>
<!-- PowerShellHost&#45;&gt;MouseReporter -->
<g id="edge42" class="edge">
<title>PowerShellHost&#45;&gt;MouseReporter</title>
<path fill="none" stroke="#496057" stroke-width="1.1" stroke-dasharray="5,2" d="M1320.2,-169.25C1332.97,-165.05 1343,-161.75 1343,-161.75 1343,-161.75 1721,-144.75 1721,-144.75 1721,-144.75 1866,-125.5 1866,-125.5 1866,-125.5 1897.94,-86.44 1919.85,-59.64"/>
<polygon fill="#496057" stroke="#496057" stroke-width="1.1" points="1924.88,-53.49 1922.61,-61.96 1923.24,-55.58 1919.86,-59.71 1919.82,-59.68 1919.78,-59.65 1923.16,-55.51 1917.03,-57.4 1924.88,-53.49"/>
<text xml:space="preserve" text-anchor="middle" x="1813.81" y="-135.25" font-family="Helvetica,sans-Serif" font-size="10.00">owns</text>
</g>
<!-- PowerShellHost&#45;&gt;SelectionManager -->
<g id="edge43" class="edge">
<title>PowerShellHost&#45;&gt;SelectionManager</title>
<path fill="none" stroke="#496057" stroke-width="1.1" stroke-dasharray="5,2" d="M1320.2,-169.25C1332.97,-165.05 1343,-161.75 1343,-161.75 1343,-161.75 1830,-144.75 1830,-144.75 1830,-144.75 2014,-125.5 2014,-125.5 2014,-125.5 2049.26,-86.1 2073.25,-59.3"/>
<polygon fill="#496057" stroke="#496057" stroke-width="1.1" points="2078.49,-53.45 2075.84,-61.81 2076.75,-55.46 2073.19,-59.44 2073.15,-59.41 2073.12,-59.38 2076.68,-55.4 2070.47,-57.01 2078.49,-53.45"/>
<text xml:space="preserve" text-anchor="middle" x="1944.64" y="-135.25" font-family="Helvetica,sans-Serif" font-size="10.00">owns</text>
</g>
<!-- PowerShellHost&#45;&gt;ScrollbackBuffer -->
<g id="edge44" class="edge">
<title>PowerShellHost&#45;&gt;ScrollbackBuffer</title>
<path fill="none" stroke="#496057" stroke-width="1.1" stroke-dasharray="5,2" d="M1320.2,-169.25C1332.97,-165.05 1343,-161.75 1343,-161.75 1343,-161.75 1961,-144.75 1961,-144.75 1961,-144.75 2176,-125.5 2176,-125.5 2176,-125.5 2209.52,-86.1 2232.33,-59.3"/>
<polygon fill="#496057" stroke="#496057" stroke-width="1.1" points="2237.29,-53.47 2234.84,-61.9 2235.6,-55.53 2232.14,-59.6 2232.1,-59.56 2232.06,-59.53 2235.52,-55.46 2229.36,-57.23 2237.29,-53.47"/>
<text xml:space="preserve" text-anchor="middle" x="2093" y="-135.25" font-family="Helvetica,sans-Serif" font-size="10.00">owns</text>
</g>
<!-- MegaCityHost&#45;&gt;UiPanel -->
<g id="edge56" class="edge">
<title>MegaCityHost&#45;&gt;UiPanel</title>
<path fill="none" stroke="#94a3b8" stroke-width="1.1" d="M1399.5,-206.2C1379.16,-232.5 1343,-279.25 1343,-279.25 1343,-279.25 1125.25,-287.25 1125.25,-287.25 1125.25,-287.25 789,-315.5 789,-315.5 789,-315.5 785.93,-316.92 781.26,-319.09"/>
<polygon fill="#94a3b8" stroke="#94a3b8" stroke-width="1.1" points="780.39,-316.4 774.31,-322.3 782.75,-321.48 780.39,-316.4"/>
<text xml:space="preserve" text-anchor="middle" x="1178.12" y="-289" font-family="Helvetica,sans-Serif" font-size="10.00">coexists with app ImGui</text>
</g>
<!-- MegaCityHost&#45;&gt;MetalRenderer -->
<g id="edge57" class="edge">
<title>MegaCityHost&#45;&gt;MetalRenderer</title>
<path fill="none" stroke="#94a3b8" stroke-width="1.1" d="M1399.5,-206.2C1379.16,-232.5 1343,-279.25 1343,-279.25 1343,-279.25 1243.25,-287.25 1243.25,-287.25 1243.25,-287.25 1233.6,-301.42 1224.26,-315.15"/>
<polygon fill="#94a3b8" stroke="#94a3b8" stroke-width="1.1" points="1221.99,-313.5 1219.81,-321.69 1226.62,-316.65 1221.99,-313.5"/>
<text xml:space="preserve" text-anchor="middle" x="1306.62" y="-289" font-family="Helvetica,sans-Serif" font-size="10.00">registers 3D pass on macOS</text>
</g>
<!-- MegaCityHost&#45;&gt;VkRenderer -->
<g id="edge58" class="edge">
<title>MegaCityHost&#45;&gt;VkRenderer</title>
<path fill="none" stroke="#94a3b8" stroke-width="1.1" d="M1406.88,-205.95C1397.48,-232.36 1379.44,-283.07 1368.38,-314.13"/>
<polygon fill="#94a3b8" stroke="#94a3b8" stroke-width="1.1" points="1365.8,-313.05 1365.75,-321.52 1371.07,-314.93 1365.8,-313.05"/>
<text xml:space="preserve" text-anchor="middle" x="1443.59" y="-289" font-family="Helvetica,sans-Serif" font-size="10.00">registers 3D pass on Windows</text>
</g>
</g>
</svg>
